<svg xmlns="http://www.w3.org/2000/svg" viewBox="0 0 146.5 62.21"><defs><style>.a{fill:#353535;}.b{fill:#1d1d1d;}.c{fill:#505050;}.d{fill:#d3d3d1;}.e{fill:#0d97ff;}</style></defs><title>Blue </title><path class="a" d="M3.9,5.15c0,.37.35.63,2.19.63s2-.11,2-.4S7.8,5,6,5c-3.52-.11-4.86-.69-4.86-2.5S2.8,0,5.86,0s4.75.73,4.75,2.72H7.72c0-.41-.67-.5-2.08-.5S4,2.29,4,2.59s.28.29,2,.36c3.06.12,5,.33,5,2.36S9.17,8,6,8,1,7.46,1,5.15Z"/><path class="a" d="M17.8,6.49H14.49L14,7.89H10.78L14,.11h4.29l3.22,7.78H18.34Zm-.75-2-.9-2.38-.9,2.38Z"/><path class="a" d="M29.68,2.56H26.35V7.89H23.46V2.56H20.12V.11h9.56Z"/><path class="a" d="M40.92.11,37.7,7.89H33.41L30.18.11h3.18l2.19,5.78L37.74.11Z"/><path class="a" d="M44.31,7.89H41.42V.11h2.89Z"/><path class="a" d="M51.14,3.78l4.48,4.11h-4L49.12,5.42l-1.2,1V7.89H45V.11h2.89V3.16L51.5.11h4.12Z"/><path class="a" d="M63.14,6.49H59.83l-.54,1.4H56.12L59.34.11h4.29l3.22,7.78H63.67Zm-.76-2-.9-2.38-.9,2.38Z"/><path class="b" d="M33.4,38.17V56.46a13.4,13.4,0,0,1-.12,2.19,4.15,4.15,0,0,1-3.45,3.43,9.26,9.26,0,0,1-1.49.12H5a7.91,7.91,0,0,1-1.68-.16A4.19,4.19,0,0,1,.07,58.18C0,57.49,0,56.8,0,56.12V19.91a11,11,0,0,1,.18-2.5,4.13,4.13,0,0,1,3.45-3.2,10.55,10.55,0,0,1,1.68-.12H28.12a7.5,7.5,0,0,1,2.11.22,4.09,4.09,0,0,1,3.05,3.38,11.41,11.41,0,0,1,.12,2.19ZM16.76,17.46c-3.72,0-7.43,0-11.15,0A2.05,2.05,0,0,0,3.33,19.7c0,2.27,0,4.55,0,6.83a2.15,2.15,0,0,0,.86,1.79,2.47,2.47,0,0,0,1.6.43H28A2,2,0,0,0,30,26.54c0-2.28,0-4.56,0-6.83a2,2,0,0,0-2.24-2.25C24.11,17.45,20.44,17.46,16.76,17.46Zm-5,41.37h0c1.73,0,3.46.06,5.19,0a3.23,3.23,0,0,0,3.15-3,3.29,3.29,0,0,0-2.41-3.45,5.21,5.21,0,0,0-1.42-.17h-9A5.17,5.17,0,0,0,6,52.33a3.14,3.14,0,0,0-2.53,2.55,3.25,3.25,0,0,0,3.15,3.94C8.29,58.89,10,58.83,11.72,58.83Zm-5-20a3.34,3.34,0,1,0-3.32-3.35A3.34,3.34,0,0,0,6.68,38.81Zm10.05,0a3.34,3.34,0,1,0-3.34-3.33A3.34,3.34,0,0,0,16.73,38.81Zm-10,10a3.34,3.34,0,1,0-3.32-3.36A3.34,3.34,0,0,0,6.68,48.84Zm10.05,0a3.34,3.34,0,1,0-3.34-3.34A3.35,3.35,0,0,0,16.73,48.84Zm10-10a3.35,3.35,0,0,0,3.38-3.38,3.39,3.39,0,0,0-6.77,0A3.36,3.36,0,0,0,26.76,38.82Zm0,10a3.36,3.36,0,0,0,3.36-3.34,3.39,3.39,0,0,0-6.77,0A3.35,3.35,0,0,0,26.78,48.85Zm0,10a3.34,3.34,0,0,0,3.39-3.37,3.39,3.39,0,0,0-6.77,0A3.35,3.35,0,0,0,26.75,58.87Z"/><path class="c" d="M16.76,17.46c3.68,0,7.35,0,11,0A2,2,0,0,1,30,19.71c0,2.27,0,4.55,0,6.83A2,2,0,0,1,28,28.74H5.79a2.47,2.47,0,0,1-1.6-.43,2.15,2.15,0,0,1-.86-1.79c0-2.28,0-4.56,0-6.83a2.05,2.05,0,0,1,2.28-2.24C9.33,17.45,13,17.46,16.76,17.46Z"/><path class="d" d="M11.72,58.83c-1.71,0-3.43.06-5.13,0a3.25,3.25,0,0,1-3.15-3.94A3.14,3.14,0,0,1,6,52.33a5.17,5.17,0,0,1,1.24-.13h9a5.21,5.21,0,0,1,1.42.17,3.29,3.29,0,0,1,2.41,3.45,3.23,3.23,0,0,1-3.15,3c-1.73.08-3.46,0-5.19,0Z"/><path class="d" d="M6.68,38.81a3.34,3.34,0,1,1,3.37-3.31A3.34,3.34,0,0,1,6.68,38.81Z"/><path class="d" d="M16.73,38.81a3.34,3.34,0,1,1,3.35-3.33A3.33,3.33,0,0,1,16.73,38.81Z"/><path class="d" d="M6.68,48.84a3.34,3.34,0,1,1,3.37-3.31A3.35,3.35,0,0,1,6.68,48.84Z"/><path class="d" d="M16.73,48.84a3.34,3.34,0,1,1,0-6.68,3.34,3.34,0,1,1,0,6.68Z"/><path class="e" d="M26.76,38.82a3.36,3.36,0,0,1-3.39-3.37,3.39,3.39,0,0,1,6.77,0A3.35,3.35,0,0,1,26.76,38.82Z"/><path class="e" d="M26.78,48.85a3.35,3.35,0,0,1-3.41-3.35,3.39,3.39,0,0,1,6.77,0A3.36,3.36,0,0,1,26.78,48.85Z"/><path class="e" d="M26.75,58.87a3.35,3.35,0,0,1-3.38-3.37,3.39,3.39,0,0,1,6.77,0A3.34,3.34,0,0,1,26.75,58.87Z"/><path class="e" d="M46.75,24.38v3.46H60.39V31H46.75v3.46H60.39v3.48h-18v-17h18v3.48Z"/><path class="e" d="M88.08,37.94H83.7V26.26L76.61,37.94H73.44L66.36,26.26V37.94H62v-17h5.92l7.14,12,7.13-12h5.92Z"/><path class="e" d="M94.42,37.94H90v-17h4.39Z"/><path class="a" d="M50.42,60.19a6.87,6.87,0,0,1-5.54-2.41,9.86,9.86,0,0,1-2-6.57,9.89,9.89,0,0,1,2-6.57,6.85,6.85,0,0,1,5.53-2.42A7.17,7.17,0,0,1,55,43.77a6.14,6.14,0,0,1,2.31,4H55.18a4.62,4.62,0,0,0-1.72-2.63,4.88,4.88,0,0,0-3.05-1,4.67,4.67,0,0,0-3.92,1.89A8.2,8.2,0,0,0,45,51.21a8.22,8.22,0,0,0,1.45,5.12,4.7,4.7,0,0,0,3.93,1.89,5.38,5.38,0,0,0,3.07-.86A4,4,0,0,0,55.18,55h2.17A5.81,5.81,0,0,1,55,58.78,7.51,7.51,0,0,1,50.42,60.19Z"/><path class="a" d="M63,60a4.59,4.59,0,0,1-3.11-1A3.47,3.47,0,0,1,58.7,56.2a3.25,3.25,0,0,1,1.22-2.69,6,6,0,0,1,3.46-1.11l3.7-.22V51a2.27,2.27,0,0,0-.74-1.82,3.27,3.27,0,0,0-2.17-.63,3.91,3.91,0,0,0-1.91.42,1.91,1.91,0,0,0-1,1.17H59.21a3.48,3.48,0,0,1,1.59-2.47,6,6,0,0,1,3.44-.94,5.28,5.28,0,0,1,3.61,1.13A4,4,0,0,1,69.12,51v8.78h-2V57.9H67a4.26,4.26,0,0,1-1.64,1.57A4.86,4.86,0,0,1,63,60Zm.38-1.79A3.81,3.81,0,0,0,66,57.3a2.91,2.91,0,0,0,1-2.29V53.83l-3.45.22a4.06,4.06,0,0,0-2.13.61,1.76,1.76,0,0,0-.68,1.49,1.79,1.79,0,0,0,.72,1.51A3,3,0,0,0,63.41,58.22Z"/><path class="a" d="M71.8,59.79V41.88h2V59.79Z"/><path class="a" d="M87.21,50.89H85.14A3,3,0,0,0,84,49.23a3.55,3.55,0,0,0-2.18-.65,3.3,3.3,0,0,0-2.74,1.29,5.4,5.4,0,0,0-1,3.46,5.63,5.63,0,0,0,1,3.53,3.3,3.3,0,0,0,2.74,1.31A3.78,3.78,0,0,0,84,57.59a2.82,2.82,0,0,0,1.14-1.67h2.07a4.61,4.61,0,0,1-1.7,3A5.69,5.69,0,0,1,81.85,60a5.41,5.41,0,0,1-4.29-1.81A7.08,7.08,0,0,1,76,53.33a6.9,6.9,0,0,1,1.6-4.79,5.43,5.43,0,0,1,4.28-1.8,5.54,5.54,0,0,1,3.67,1.18A4.7,4.7,0,0,1,87.21,50.89Z"/><path class="a" d="M99.38,47V59.79H97.43v-2h-.19a3.54,3.54,0,0,1-1.49,1.66,5,5,0,0,1-2.48.57A4.23,4.23,0,0,1,90,58.79a5.07,5.07,0,0,1-1.11-3.52V47h2v7.8a3.92,3.92,0,0,0,.69,2.56,2.76,2.76,0,0,0,2.21.82,3.44,3.44,0,0,0,2.59-.95,3.64,3.64,0,0,0,.91-2.65V47Z"/><path class="a" d="M102.14,59.79V41.88h2V59.79Z"/><path class="a" d="M110.51,60a4.59,4.59,0,0,1-3.11-1,3.44,3.44,0,0,1-1.22-2.77,3.25,3.25,0,0,1,1.21-2.69,6,6,0,0,1,3.46-1.11l3.7-.22V51a2.27,2.27,0,0,0-.74-1.82,3.24,3.24,0,0,0-2.16-.63,4,4,0,0,0-1.92.42,1.89,1.89,0,0,0-1,1.17h-2.07a3.42,3.42,0,0,1,1.59-2.47,6,6,0,0,1,3.44-.94,5.25,5.25,0,0,1,3.6,1.13A4,4,0,0,1,116.6,51v8.78h-1.95V57.9h-.19a4.29,4.29,0,0,1-1.65,1.57A4.85,4.85,0,0,1,110.51,60Zm.38-1.79a3.82,3.82,0,0,0,2.62-.92,2.93,2.93,0,0,0,1-2.29V53.83l-3.45.22a4.06,4.06,0,0,0-2.13.61,1.76,1.76,0,0,0-.68,1.49,1.8,1.8,0,0,0,.73,1.51A3,3,0,0,0,110.89,58.22Z"/><path class="a" d="M120,43.65h2V47h2.86v1.71h-2.86v7.25a2.48,2.48,0,0,0,.45,1.65,1.88,1.88,0,0,0,1.46.51c.29,0,.61,0,1-.05v1.72a7.13,7.13,0,0,1-1.2.12,4.13,4.13,0,0,1-2.85-.79,3.48,3.48,0,0,1-.85-2.63V48.68H118V47H120Z"/><path class="a" d="M136.2,58.24a6.16,6.16,0,0,1-8.64,0A7,7,0,0,1,126,53.38a7.08,7.08,0,0,1,1.58-4.87,6.18,6.18,0,0,1,8.66,0,7.08,7.08,0,0,1,1.58,4.87A7,7,0,0,1,136.2,58.24Zm-7.13-1.33a3.76,3.76,0,0,0,5.62,0,5.55,5.55,0,0,0,1-3.53,5.59,5.59,0,0,0-1-3.54,3.76,3.76,0,0,0-5.62,0,5.65,5.65,0,0,0-1,3.54A5.62,5.62,0,0,0,129.07,56.91Z"/><path class="a" d="M139.78,59.79V47h2v1.9h.19a2.63,2.63,0,0,1,1.28-1.53,4.33,4.33,0,0,1,2.27-.6,7.57,7.57,0,0,1,1,.06v2.05a5.06,5.06,0,0,0-1.3-.12,3.42,3.42,0,0,0-2.42.88,2.91,2.91,0,0,0-.95,2.23v7.95Z"/></svg>