<svg xmlns="http://www.w3.org/2000/svg" viewBox="0 0 128.21 36.21"><defs><style>.cls-1{fill:#f6f7f7;}.cls-2{fill:#ecd0a8;}</style></defs><g id="Layer_2" data-name="Layer 2"><g id="Layer_1-2" data-name="Layer 1"><path class="cls-1" d="M3.54,2.59H0V0H10.33V2.59H6.8v8.94H3.54Z"/><path class="cls-1" d="M16.18,8.47H14.4v3.06H11.14V0h5.27a6.46,6.46,0,0,1,2.71.52A4,4,0,0,1,20.9,2a4.05,4.05,0,0,1,.63,2.27,4,4,0,0,1-.59,2.18,3.92,3.92,0,0,1-1.67,1.46l2.49,3.62H18.27ZM17.72,3a2.27,2.27,0,0,0-1.51-.44H14.4V6h1.81a2.27,2.27,0,0,0,1.51-.44,1.55,1.55,0,0,0,.51-1.24A1.59,1.59,0,0,0,17.72,3Z"/><path class="cls-1" d="M22.91,0h3.26V11.53H22.91Z"/><path class="cls-1" d="M39.06,0V11.53H36.37L31.28,5.39v6.14h-3.2V0h2.69l5.09,6.14V0Z"/><path class="cls-1" d="M50.21,9v2.52H41V0h9V2.52H44.18V4.46H49.3V6.9H44.18V9Z"/><path class="cls-1" d="M54.06,2.59H50.52V0H60.85V2.59H57.32v8.94H54.06Z"/><path class="cls-1" d="M66.7,8.47H64.92v3.06H61.66V0h5.27a6.54,6.54,0,0,1,2.72.52A4,4,0,0,1,71.42,2a4.05,4.05,0,0,1,.63,2.27,4.1,4.1,0,0,1-.58,2.18,4,4,0,0,1-1.68,1.46l2.49,3.62H68.79ZM68.25,3a2.32,2.32,0,0,0-1.52-.44H64.92V6h1.81a2.32,2.32,0,0,0,1.52-.44,1.58,1.58,0,0,0,.51-1.24A1.63,1.63,0,0,0,68.25,3Z"/><path class="cls-1" d="M73.43,0h3.26V11.53H73.43Z"/><path class="cls-2" d="M9.44,29.11a3.18,3.18,0,0,1-1.16.59,5.17,5.17,0,0,1-1.44.19,4.07,4.07,0,0,1-2.95-1,3.84,3.84,0,0,1-1-2.9V20.41H.94V18.24H2.85V15.6H5.56v2.64h3.1v2.17H5.56v5.51A1.83,1.83,0,0,0,6,27.21a1.56,1.56,0,0,0,1.2.45,2.35,2.35,0,0,0,1.51-.48Z"/><path class="cls-2" d="M17.84,18v2.59a3,3,0,0,0-.63-.07,3.27,3.27,0,0,0-2.47.92,3.66,3.66,0,0,0-.89,2.66v5.62H11.14V18.16h2.58v1.69C14.5,18.63,15.87,18,17.84,18Z"/><path class="cls-2" d="M27.87,19.25A4.72,4.72,0,0,1,29.23,23v6.79H26.67V28.33a3.15,3.15,0,0,1-1.42,1.16,5.56,5.56,0,0,1-2.23.4,5.54,5.54,0,0,1-2.27-.44,3.46,3.46,0,0,1-1.51-1.24,3.09,3.09,0,0,1-.53-1.79,3,3,0,0,1,1.16-2.5,5.74,5.74,0,0,1,3.65-1h3V22.8a2.41,2.41,0,0,0-.73-1.87,3.17,3.17,0,0,0-2.16-.65,6.31,6.31,0,0,0-1.92.3,4.82,4.82,0,0,0-1.59.85l-1.07-2a6.58,6.58,0,0,1,2.19-1.07A10,10,0,0,1,24,18,5.62,5.62,0,0,1,27.87,19.25Zm-2.47,8.2a2.53,2.53,0,0,0,1.12-1.33V24.77h-2.8c-1.56,0-2.34.52-2.34,1.54A1.38,1.38,0,0,0,22,27.48a2.68,2.68,0,0,0,1.63.44A3.51,3.51,0,0,0,25.4,27.45Z"/><path class="cls-2" d="M43.61,13.64v16.1H41v-1.5a4.15,4.15,0,0,1-1.66,1.24,5.72,5.72,0,0,1-2.18.41,6,6,0,0,1-3-.74,5.32,5.32,0,0,1-2.09-2.09A6.2,6.2,0,0,1,31.31,24a6.14,6.14,0,0,1,.76-3.1,5.32,5.32,0,0,1,2.09-2.09,6.13,6.13,0,0,1,3-.74,5.49,5.49,0,0,1,2.1.4,4.23,4.23,0,0,1,1.63,1.17V13.64ZM39.25,27.13a3.29,3.29,0,0,0,1.24-1.27,4.28,4.28,0,0,0,0-3.82,3.29,3.29,0,0,0-1.24-1.27,3.47,3.47,0,0,0-1.76-.45,3.43,3.43,0,0,0-1.75.45A3.22,3.22,0,0,0,34.5,22a4.2,4.2,0,0,0,0,3.82,3.22,3.22,0,0,0,1.24,1.27,3.53,3.53,0,0,0,1.75.44A3.56,3.56,0,0,0,39.25,27.13Z"/><path class="cls-2" d="M57.47,24.81H48.38a3.16,3.16,0,0,0,1.25,2,4.09,4.09,0,0,0,2.51.75,4.2,4.2,0,0,0,3.14-1.26L56.74,28a4.73,4.73,0,0,1-2,1.41,7.79,7.79,0,0,1-6-.28A5.46,5.46,0,0,1,46.46,27a6.39,6.39,0,0,1,0-6.12,5.59,5.59,0,0,1,2.14-2.12A6.3,6.3,0,0,1,51.66,18a6.08,6.08,0,0,1,3,.75,5.28,5.28,0,0,1,2.08,2.11A6.36,6.36,0,0,1,57.52,24C57.52,24.2,57.5,24.47,57.47,24.81Zm-8-3.85A3.27,3.27,0,0,0,48.36,23h6.58a3.2,3.2,0,0,0-3.28-2.82A3.28,3.28,0,0,0,49.46,21Z"/><path class="cls-2" d="M60.4,29.52a6.84,6.84,0,0,1-2.15-.93l1-2.06a6.57,6.57,0,0,0,1.87.83,7.8,7.8,0,0,0,2.16.32c1.62,0,2.43-.43,2.43-1.28a.86.86,0,0,0-.62-.85,10.24,10.24,0,0,0-2-.45,16.34,16.34,0,0,1-2.33-.5,3.57,3.57,0,0,1-1.57-1,2.75,2.75,0,0,1-.66-2A3.09,3.09,0,0,1,60,19a6.26,6.26,0,0,1,3.72-1,10.83,10.83,0,0,1,2.39.28A6.87,6.87,0,0,1,68,19l-1,2.06a6.52,6.52,0,0,0-3.32-.86,3.76,3.76,0,0,0-1.81.35,1.07,1.07,0,0,0-.62.95.94.94,0,0,0,.66.92A10.53,10.53,0,0,0,64,23a15.06,15.06,0,0,1,2.28.5,3.7,3.7,0,0,1,1.53.95,2.7,2.7,0,0,1,.64,1.91A3,3,0,0,1,67,28.92a6.66,6.66,0,0,1-3.84,1A10.26,10.26,0,0,1,60.4,29.52Z"/><path class="cls-2" d="M75.91,14.55h2.82V29.74H75.91Z"/><path class="cls-2" d="M92.12,19.3a5.07,5.07,0,0,1,1.32,3.8v6.64H90.73V23.45A3.24,3.24,0,0,0,90,21.16a2.64,2.64,0,0,0-2-.77,3.13,3.13,0,0,0-2.36.9,3.57,3.57,0,0,0-.87,2.59v5.86H82V18.16h2.58v1.49a4.23,4.23,0,0,1,1.69-1.21A6,6,0,0,1,88.6,18,4.87,4.87,0,0,1,92.12,19.3Z"/><path class="cls-2" d="M107.8,13.64v16.1h-2.6v-1.5a4.15,4.15,0,0,1-1.66,1.24,5.72,5.72,0,0,1-2.18.41,6,6,0,0,1-3-.74,5.38,5.38,0,0,1-2.09-2.09A6.2,6.2,0,0,1,95.5,24a6.14,6.14,0,0,1,.76-3.1,5.38,5.38,0,0,1,2.09-2.09,6.16,6.16,0,0,1,3-.74,5.46,5.46,0,0,1,2.1.4,4.23,4.23,0,0,1,1.63,1.17V13.64Zm-4.36,13.49a3.22,3.22,0,0,0,1.24-1.27,4.28,4.28,0,0,0,0-3.82,3.22,3.22,0,0,0-1.24-1.27,3.65,3.65,0,0,0-3.51,0A3.29,3.29,0,0,0,98.69,22a4.28,4.28,0,0,0,0,3.82,3.29,3.29,0,0,0,1.24,1.27,3.72,3.72,0,0,0,3.51,0Z"/><path class="cls-2" d="M111,15.78a1.6,1.6,0,0,1,0-2.32,1.73,1.73,0,0,1,1.23-.47,1.77,1.77,0,0,1,1.24.45,1.43,1.43,0,0,1,.5,1.11,1.64,1.64,0,0,1-.49,1.21,1.7,1.7,0,0,1-1.25.49A1.73,1.73,0,0,1,111,15.78Zm-.13,2.38h2.71V29.74h-2.71Z"/><path class="cls-2" d="M124.89,19.25a4.75,4.75,0,0,1,1.35,3.7v6.79h-2.56V28.33a3.1,3.1,0,0,1-1.42,1.16,5.47,5.47,0,0,1-2.22.4,5.55,5.55,0,0,1-2.28-.44,3.58,3.58,0,0,1-1.51-1.24,3.16,3.16,0,0,1-.53-1.79,3.06,3.06,0,0,1,1.16-2.5,5.77,5.77,0,0,1,3.66-1h3V22.8a2.38,2.38,0,0,0-.73-1.87,3.14,3.14,0,0,0-2.15-.65,6.26,6.26,0,0,0-1.92.3,4.87,4.87,0,0,0-1.6.85l-1.06-2a6.58,6.58,0,0,1,2.19-1.07A10,10,0,0,1,121,18,5.65,5.65,0,0,1,124.89,19.25Zm-2.48,8.2a2.53,2.53,0,0,0,1.12-1.33V24.77h-2.8c-1.56,0-2.34.52-2.34,1.54a1.36,1.36,0,0,0,.59,1.17,2.66,2.66,0,0,0,1.62.44A3.49,3.49,0,0,0,122.41,27.45Z"/><path class="cls-2" d="M105.86,31.78a1.52,1.52,0,0,1,.68.56,1.76,1.76,0,0,1,0,1.74,1.52,1.52,0,0,1-.68.56,2.52,2.52,0,0,1-1,.2h-1v1.32h-.85V31.58h1.89A2.52,2.52,0,0,1,105.86,31.78Zm-.23,2.11a.85.85,0,0,0,.29-.68.83.83,0,0,0-.29-.67,1.28,1.28,0,0,0-.84-.24h-1v1.82h1A1.33,1.33,0,0,0,105.63,33.89Z"/><path class="cls-2" d="M110.68,32.67l-1.49,3.49h-.85l-1.49-3.49h.85l1.08,2.59,1.12-2.59Z"/><path class="cls-2" d="M113.23,36a1.06,1.06,0,0,1-.35.18,1.61,1.61,0,0,1-.44.06,1.24,1.24,0,0,1-.89-.3,1.17,1.17,0,0,1-.31-.88V33.35h-.58V32.7h.58v-.8h.82v.8H113v.65h-.93V35a.57.57,0,0,0,.12.39.45.45,0,0,0,.36.13.76.76,0,0,0,.46-.14Z"/><path class="cls-2" d="M113.68,36.05a.58.58,0,0,1,0-.78.52.52,0,0,1,.38-.15.54.54,0,0,1,.39.15.53.53,0,0,1,.15.39.5.5,0,0,1-.16.39.53.53,0,0,1-.38.16A.57.57,0,0,1,113.68,36.05Z"/><path class="cls-2" d="M117,31.58h.85v3.86h2.39v.72H117Z"/><path class="cls-2" d="M122.69,36a1,1,0,0,1-.35.18,1.54,1.54,0,0,1-.43.06,1.23,1.23,0,0,1-.89-.3,1.17,1.17,0,0,1-.32-.88V33.35h-.57V32.7h.57v-.8h.82v.8h.94v.65h-.94V35a.57.57,0,0,0,.12.39.48.48,0,0,0,.36.13.74.74,0,0,0,.46-.14Z"/><path class="cls-2" d="M126.5,31.31v4.85h-.78v-.45a1.28,1.28,0,0,1-.5.37,1.76,1.76,0,0,1-.66.13,1.84,1.84,0,0,1-.91-.23,1.59,1.59,0,0,1-.63-.63,2,2,0,0,1,0-1.87,1.73,1.73,0,0,1,.63-.63,1.83,1.83,0,0,1,.91-.22,1.61,1.61,0,0,1,.63.12,1.16,1.16,0,0,1,.49.35V31.31Zm-1.31,4.06a1,1,0,0,0,.37-.38,1.25,1.25,0,0,0,0-1.15,1,1,0,0,0-.37-.38,1.08,1.08,0,0,0-.53-.14,1,1,0,0,0-.53.14.9.9,0,0,0-.37.38,1.11,1.11,0,0,0-.14.58,1.1,1.1,0,0,0,.14.57.9.9,0,0,0,.37.38,1,1,0,0,0,.53.14A1.08,1.08,0,0,0,125.19,35.37Z"/><path class="cls-2" d="M127.29,36.05a.56.56,0,0,1,0-.78.56.56,0,0,1,.76,0,.5.5,0,0,1,.16.39.53.53,0,0,1-.16.39.53.53,0,0,1-.38.16A.55.55,0,0,1,127.29,36.05Z"/></g></g></svg>