<svg xmlns="http://www.w3.org/2000/svg" viewBox="0 0 156.88 54.71"><defs><style>.cls-1{fill:#ecd0a8;}.cls-2{fill:#f6f7f7;}</style></defs><g id="Layer_2" data-name="Layer 2"><g id="Layer_1-2" data-name="Layer 1"><path class="cls-1" d="M134.54,50.28a1.45,1.45,0,0,1,.67.57,1.68,1.68,0,0,1,0,1.73,1.45,1.45,0,0,1-.67.57,2.57,2.57,0,0,1-1,.19h-1v1.32h-.85V50.09h1.88A2.57,2.57,0,0,1,134.54,50.28Zm-.24,2.11a.93.93,0,0,0,0-1.35,1.33,1.33,0,0,0-.84-.23h-1v1.81h1A1.28,1.28,0,0,0,134.3,52.39Z"/><path class="cls-1" d="M139.36,51.17l-1.5,3.49H137l-1.5-3.49h.85l1.08,2.59,1.12-2.59Z"/><path class="cls-1" d="M141.9,54.47a1,1,0,0,1-.35.18,1.54,1.54,0,0,1-.43.06,1.23,1.23,0,0,1-.89-.3,1.16,1.16,0,0,1-.32-.88V51.85h-.57V51.2h.57v-.8h.82v.8h.93v.65h-.93v1.66a.57.57,0,0,0,.12.39.49.49,0,0,0,.36.14.69.69,0,0,0,.46-.15Z"/><path class="cls-1" d="M142.36,54.56a.53.53,0,0,1-.16-.39.55.55,0,0,1,.15-.4.54.54,0,0,1,.39-.15.52.52,0,0,1,.38.15.55.55,0,0,1,.15.4.56.56,0,0,1-.15.39.55.55,0,0,1-.38.15A.52.52,0,0,1,142.36,54.56Z"/><path class="cls-1" d="M145.62,50.09h.85v3.85h2.4v.72h-3.25Z"/><path class="cls-1" d="M151.36,54.47a.89.89,0,0,1-.35.18,1.49,1.49,0,0,1-.43.06,1.24,1.24,0,0,1-.89-.3,1.15,1.15,0,0,1-.31-.88V51.85h-.58V51.2h.58v-.8h.81v.8h.94v.65h-.94v1.66a.53.53,0,0,0,.13.39.46.46,0,0,0,.36.14.68.68,0,0,0,.45-.15Z"/><path class="cls-1" d="M155.17,49.81v4.85h-.78v-.45a1.21,1.21,0,0,1-.5.37,1.59,1.59,0,0,1-.66.13,1.93,1.93,0,0,1-.9-.22,1.59,1.59,0,0,1-.63-.63,1.85,1.85,0,0,1-.23-.94,1.82,1.82,0,0,1,.23-.94,1.51,1.51,0,0,1,.63-.62,1.83,1.83,0,0,1,.9-.23,1.66,1.66,0,0,1,.64.12,1.42,1.42,0,0,1,.49.35V49.81Zm-1.31,4.07a.93.93,0,0,0,.37-.39,1.15,1.15,0,0,0,.14-.57,1.21,1.21,0,0,0-.14-.58,1,1,0,0,0-.37-.38,1.15,1.15,0,0,0-1.06,0,1,1,0,0,0-.37.38,1.21,1.21,0,0,0-.14.58,1.15,1.15,0,0,0,.14.57.93.93,0,0,0,.37.39,1.15,1.15,0,0,0,1.06,0Z"/><path class="cls-1" d="M156,54.56a.53.53,0,0,1-.16-.39.55.55,0,0,1,.15-.4.52.52,0,0,1,.38-.15.54.54,0,0,1,.39.15.55.55,0,0,1,.15.4.53.53,0,0,1-.16.39.52.52,0,0,1-.38.15A.51.51,0,0,1,156,54.56Z"/><path class="cls-2" d="M3.69,6.13c0,.45.42.76,2.61.76s2.34-.14,2.34-.48S8.34,6,6.16,5.89C2,5.76.38,5.07.38,2.91S2.38,0,6,0s5.66.87,5.66,3.24H8.24c0-.49-.79-.59-2.47-.59s-1.95.08-1.95.44.33.34,2.34.42c3.66.15,5.92.4,5.92,2.82S10,9.54,6.16,9.54.24,8.89.24,6.13Z"/><path class="cls-2" d="M20.25,7.73H16.31L15.67,9.4H11.88L15.73.13h5.11L24.68,9.4H20.89Zm-.9-2.38L18.28,2.52,17.21,5.35Z"/><path class="cls-2" d="M34.41,3.05h-4V9.4H27V3.05H23V.13H34.41Z"/><path class="cls-2" d="M47.8.13,44,9.4H38.85L35,.13h3.78L41.4,7,44,.13Z"/><path class="cls-2" d="M51.84,9.4H48.39V.13h3.45Z"/><path class="cls-2" d="M60,4.5l5.34,4.9h-4.8l-3-2.94-1.4,1.18V9.4H52.7V.13h3.44V3.76L60.41.13h4.9Z"/><path class="cls-2" d="M74.27,7.73h-4L69.69,9.4H65.9L69.74.13h5.11L78.69,9.4H74.91Zm-.9-2.38L72.3,2.52,71.22,5.35Z"/><path class="cls-1" d="M13,22.26a4,4,0,0,1,.81,2.58,3.7,3.7,0,0,1-1.57,3.21,7.83,7.83,0,0,1-4.58,1.13H0V13.11H7.21a7.19,7.19,0,0,1,4.26,1.1A3.58,3.58,0,0,1,13,17.26a4,4,0,0,1-.59,2.18,3.73,3.73,0,0,1-1.57,1.4A4.16,4.16,0,0,1,13,22.26ZM2.3,15v5.14H7a4.8,4.8,0,0,0,2.72-.65,2.19,2.19,0,0,0,.95-1.92,2.19,2.19,0,0,0-.95-1.92A4.8,4.8,0,0,0,7,15Zm8.21,11.7a2.22,2.22,0,0,0,1-2q0-2.7-3.94-2.7H2.3v5.35H7.57a5.41,5.41,0,0,0,2.94-.68Z"/><path class="cls-1" d="M15.37,14.26a1.42,1.42,0,0,1,0-2h0a1.41,1.41,0,0,1,1.06-.43,1.46,1.46,0,0,1,1.07.4,1.3,1.3,0,0,1,.43,1,1.44,1.44,0,0,1-.43,1,1.46,1.46,0,0,1-1.07.42A1.5,1.5,0,0,1,15.37,14.26Zm0,2.75h2.21V29.18H15.33Z"/><path class="cls-1" d="M30.2,18.24a5.29,5.29,0,0,1,1.36,3.94v7h-2.2V22.43a3.72,3.72,0,0,0-.85-2.66,3.19,3.19,0,0,0-2.43-.9,3.79,3.79,0,0,0-2.83,1,4.12,4.12,0,0,0-1,3v6.27H20V17h2.11v1.84a4.26,4.26,0,0,1,1.8-1.45,6.15,6.15,0,0,1,2.58-.5A5,5,0,0,1,30.2,18.24Z"/><path class="cls-1" d="M45.47,12.14v17H43.36V27.25a4.88,4.88,0,0,1-1.86,1.54,5.91,5.91,0,0,1-2.48.52,6.37,6.37,0,0,1-3.17-.78,5.62,5.62,0,0,1-2.19-2.19,6.49,6.49,0,0,1-.79-3.25,6.49,6.49,0,0,1,.79-3.23,5.6,5.6,0,0,1,2.19-2.18A6.42,6.42,0,0,1,39,16.9a5.87,5.87,0,0,1,2.41.49,4.61,4.61,0,0,1,1.84,1.46V12.14ZM41.29,26.85a3.77,3.77,0,0,0,1.47-1.52,5,5,0,0,0,0-4.47,3.63,3.63,0,0,0-1.47-1.51,4.39,4.39,0,0,0-4.19,0,3.72,3.72,0,0,0-1.46,1.51,4.9,4.9,0,0,0,0,4.47,3.81,3.81,0,0,0,1.46,1.52A4.33,4.33,0,0,0,41.29,26.85Z"/><path class="cls-1" d="M58.11,18.24a5.29,5.29,0,0,1,1.36,3.94v7h-2.2V22.43a3.72,3.72,0,0,0-.85-2.66,3.19,3.19,0,0,0-2.43-.9,3.79,3.79,0,0,0-2.83,1,4.12,4.12,0,0,0-1,3v6.27H48v-17h2.2v6.59A4.61,4.61,0,0,1,52,17.38a6.27,6.27,0,0,1,2.49-.48A5,5,0,0,1,58.11,18.24Z"/><path class="cls-1" d="M72.37,17l-5.9,13.38A6,6,0,0,1,64.65,33a4.22,4.22,0,0,1-2.51.76,5.43,5.43,0,0,1-1.74-.29,3.57,3.57,0,0,1-1.4-.83L60,31a3.09,3.09,0,0,0,2.19.9,2.17,2.17,0,0,0,1.34-.43,3.67,3.67,0,0,0,1-1.46l.39-.85L59.47,17h2.3L66,26.74,70.22,17Z"/><path class="cls-1" d="M80.62,18.14A4.74,4.74,0,0,1,82,21.83v7.35H79.88V27.57a3.5,3.5,0,0,1-1.57,1.3,6.12,6.12,0,0,1-2.43.44,5.06,5.06,0,0,1-3.27-1,3.4,3.4,0,0,1-.39-4.79,3.59,3.59,0,0,1,.39-.39,5.77,5.77,0,0,1,3.71-1h3.49v-.44A2.77,2.77,0,0,0,79,19.51a3.43,3.43,0,0,0-2.44-.76,6.32,6.32,0,0,0-2.11.36,5,5,0,0,0-1.74.95l-.92-1.65A6.62,6.62,0,0,1,74,17.3a9.35,9.35,0,0,1,2.78-.4A5.46,5.46,0,0,1,80.62,18.14Zm-2.19,8.91a3.19,3.19,0,0,0,1.33-1.59v-1.7H76.37c-1.87,0-2.8.63-2.8,1.88a1.69,1.69,0,0,0,.71,1.45,3.21,3.21,0,0,0,2,.53A4,4,0,0,0,78.43,27.05Z"/><path class="cls-1" d="M102.51,17,98,29.18H95.85L92.34,20l-3.56,9.23H86.67L82.15,17h2.09l3.53,9.69L91.45,17h1.86l3.6,9.73L100.54,17Z"/><path class="cls-1" d="M110.92,18.14a4.77,4.77,0,0,1,1.35,3.69v7.35h-2.09V27.57a3.5,3.5,0,0,1-1.57,1.3,6.12,6.12,0,0,1-2.43.44,5.06,5.06,0,0,1-3.27-1,3.39,3.39,0,0,1-.4-4.78,3,3,0,0,1,.4-.4,5.77,5.77,0,0,1,3.71-1h3.49v-.44a2.77,2.77,0,0,0-.82-2.18,3.48,3.48,0,0,0-2.44-.76,6.32,6.32,0,0,0-2.11.36,5,5,0,0,0-1.74.95l-1-1.6a6.6,6.6,0,0,1,2.25-1.16,9.35,9.35,0,0,1,2.78-.4A5.44,5.44,0,0,1,110.92,18.14Zm-2.19,8.91a3.19,3.19,0,0,0,1.33-1.59v-1.7h-3.39c-1.87,0-2.8.63-2.8,1.88a1.69,1.69,0,0,0,.71,1.45,3.21,3.21,0,0,0,2,.53A4,4,0,0,0,108.73,27.05Z"/><path class="cls-1" d="M115.25,28.91a6.18,6.18,0,0,1-2.16-1l.92-1.74a6.43,6.43,0,0,0,1.95.91,7.91,7.91,0,0,0,2.32.35c1.93,0,2.89-.55,2.89-1.65a1.1,1.1,0,0,0-.39-.88,2.49,2.49,0,0,0-1-.47c-.39-.1-1-.21-1.67-.33a15.12,15.12,0,0,1-2.4-.53,3.6,3.6,0,0,1-1.59-1,2.75,2.75,0,0,1-.67-2,3.14,3.14,0,0,1,1.38-2.66,6.28,6.28,0,0,1,3.7-1,10.49,10.49,0,0,1,2.43.29,6.57,6.57,0,0,1,2,.81l-1,1.73a6.34,6.34,0,0,0-3.51-1,3.94,3.94,0,0,0-2.13.46,1.38,1.38,0,0,0-.74,1.21,1.16,1.16,0,0,0,.42.95,2.85,2.85,0,0,0,1,.5c.4.11,1,.23,1.71.37a19.34,19.34,0,0,1,2.37.54,3.47,3.47,0,0,1,1.55,1,2.72,2.72,0,0,1,.65,1.93A3.07,3.07,0,0,1,122,28.34a6.67,6.67,0,0,1-3.84,1A10.2,10.2,0,0,1,115.25,28.91Z"/><path class="cls-1" d="M124.44,14.26a1.43,1.43,0,0,1,1.07-2.43,1.5,1.5,0,0,1,1.07.4,1.31,1.31,0,0,1,.42,1,1.43,1.43,0,0,1-1.41,1.47h-.08A1.52,1.52,0,0,1,124.44,14.26Zm0,2.75h2.2V29.18h-2.2Z"/><path class="cls-1" d="M139.27,18.24a5.28,5.28,0,0,1,1.37,3.94v7h-2.21V22.43a3.72,3.72,0,0,0-.85-2.66,3.17,3.17,0,0,0-2.43-.9,3.8,3.8,0,0,0-2.82,1,4.12,4.12,0,0,0-1,3v6.27h-2.2V17h2.11v1.84A4.4,4.4,0,0,1,133,17.4a6.23,6.23,0,0,1,2.59-.5A5,5,0,0,1,139.27,18.24Z"/><path class="cls-1" d="M143,14.26a1.42,1.42,0,0,1,0-2h0a1.41,1.41,0,0,1,1.06-.43,1.46,1.46,0,0,1,1.07.4,1.31,1.31,0,0,1,.42,1,1.51,1.51,0,0,1-2.55,1ZM143,17h2.2V29.18H143Z"/><path class="cls-1" d="M148.3,28.91a6.21,6.21,0,0,1-2.15-1l.91-1.74a6.43,6.43,0,0,0,1.95.91,7.91,7.91,0,0,0,2.32.35c1.93,0,2.9-.55,2.9-1.65a1.11,1.11,0,0,0-.4-.88,2.49,2.49,0,0,0-1-.47c-.39-.1-1-.21-1.66-.33a15.37,15.37,0,0,1-2.4-.53,3.68,3.68,0,0,1-1.6-1,2.81,2.81,0,0,1-.66-2,3.12,3.12,0,0,1,1.37-2.66,6.28,6.28,0,0,1,3.7-1,10.49,10.49,0,0,1,2.43.29,6.57,6.57,0,0,1,2,.81l-.94,1.74a6.34,6.34,0,0,0-3.51-1,4,4,0,0,0-2.14.46,1.37,1.37,0,0,0-.73,1.21,1.15,1.15,0,0,0,.41.95,2.94,2.94,0,0,0,1,.5c.41.11,1,.23,1.71.37a19.49,19.49,0,0,1,2.38.54,3.56,3.56,0,0,1,1.55,1,2.77,2.77,0,0,1,.64,1.93A3,3,0,0,1,155,28.34a6.68,6.68,0,0,1-3.85,1A10.14,10.14,0,0,1,148.3,28.91Z"/><path class="cls-1" d="M32.12,46.56a5.77,5.77,0,0,1-2.23-2.26,6.59,6.59,0,0,1,0-6.41,5.81,5.81,0,0,1,2.28-2.2,6.83,6.83,0,0,1,3.32-.79,6.36,6.36,0,0,1,3,.66,4.89,4.89,0,0,1,2,1.93l-1.77,1.07a3.81,3.81,0,0,0-1.42-1.31,4.08,4.08,0,0,0-1.88-.43,4.46,4.46,0,0,0-2.15.52,3.8,3.8,0,0,0-1.49,1.51,4.5,4.5,0,0,0-.54,2.24,4.55,4.55,0,0,0,.54,2.26,3.71,3.71,0,0,0,1.49,1.5,4.36,4.36,0,0,0,2.15.53,4.09,4.09,0,0,0,1.88-.44,3.65,3.65,0,0,0,1.42-1.31l1.68,1.06a4.85,4.85,0,0,1-2,1.94,6.37,6.37,0,0,1-3,.68A6.78,6.78,0,0,1,32.12,46.56Z"/><path class="cls-1" d="M43.29,46.56A5.78,5.78,0,0,1,41,44.35a6.69,6.69,0,0,1,0-6.41,5.76,5.76,0,0,1,2.26-2.2,7.12,7.12,0,0,1,6.51,0,5.94,5.94,0,0,1,2.25,2.2,6.75,6.75,0,0,1,0,6.41,5.9,5.9,0,0,1-2.25,2.21A7,7,0,0,1,43.29,46.56Zm5.36-1.66a3.88,3.88,0,0,0,1.46-1.52,5.09,5.09,0,0,0,0-4.47,3.85,3.85,0,0,0-1.46-1.51,4.52,4.52,0,0,0-4.2,0A3.88,3.88,0,0,0,43,38.91a4.9,4.9,0,0,0,0,4.47,3.9,3.9,0,0,0,1.47,1.52A4.35,4.35,0,0,0,48.65,44.9Z"/><path class="cls-1" d="M64.37,36.24a5.29,5.29,0,0,1,1.37,3.94v7H63.53V40.43a3.72,3.72,0,0,0-.85-2.66,3.17,3.17,0,0,0-2.43-.9,3.76,3.76,0,0,0-2.82,1,4,4,0,0,0-1,3v6.27H54.19V35H56.3v1.84a4.35,4.35,0,0,1,1.81-1.45,6.52,6.52,0,0,1,2.58-.5A5,5,0,0,1,64.37,36.24Z"/><path class="cls-1" d="M68.72,46.91a6.18,6.18,0,0,1-2.16-1l.92-1.74a7,7,0,0,0,2,.92,7.9,7.9,0,0,0,2.32.34c1.93,0,2.89-.55,2.89-1.65a1.05,1.05,0,0,0-.39-.87,2.2,2.2,0,0,0-1-.47c-.39-.1-1-.22-1.67-.34a16.47,16.47,0,0,1-2.41-.54,3.54,3.54,0,0,1-1.6-1,2.84,2.84,0,0,1-.67-2,3.12,3.12,0,0,1,1.38-2.65,6.14,6.14,0,0,1,3.7-1,9.92,9.92,0,0,1,2.43.3,6.31,6.31,0,0,1,2,.8l-.94,1.74a6.35,6.35,0,0,0-3.52-1,3.94,3.94,0,0,0-2.13.46,1.38,1.38,0,0,0-.73,1.22,1.13,1.13,0,0,0,.41.94,2.48,2.48,0,0,0,1,.5c.4.11,1,.23,1.71.37a19.49,19.49,0,0,1,2.38.54,3.44,3.44,0,0,1,1.54,1,2.75,2.75,0,0,1,.71,1.93,3,3,0,0,1-1.41,2.63,6.7,6.7,0,0,1-3.85,1A10.2,10.2,0,0,1,68.72,46.91Z"/><path class="cls-1" d="M84.72,46.47a3.41,3.41,0,0,1-1.19.63,5.23,5.23,0,0,1-1.47.22,3.92,3.92,0,0,1-2.85-1,3.76,3.76,0,0,1-1-2.82V36.83H76.14V35H78.2V32.35h2.21V35h3.48v1.82H80.41v6.58a2.15,2.15,0,0,0,.48,1.52,1.85,1.85,0,0,0,1.41.53A2.63,2.63,0,0,0,84,44.88Z"/><path class="cls-1" d="M89.47,35.45a6.13,6.13,0,0,1,2.73-.55V37h-.5a3.72,3.72,0,0,0-2.81,1,4.21,4.21,0,0,0-1,3v6.06h-2.2V35H87.8v2.05A3.77,3.77,0,0,1,89.47,35.45Z"/><path class="cls-1" d="M104.69,35V47.18H102.6V45.34a4.32,4.32,0,0,1-1.71,1.46,5.39,5.39,0,0,1-2.37.52A5.28,5.28,0,0,1,94.69,46a5.22,5.22,0,0,1-1.4-4V35h2.2v6.79a3.77,3.77,0,0,0,.85,2.68,3.19,3.19,0,0,0,2.43.9,3.67,3.67,0,0,0,2.76-1.05,4.21,4.21,0,0,0,1-3V35Z"/><path class="cls-1" d="M109.15,46.56a5.84,5.84,0,0,1-2.26-2.26,6.59,6.59,0,0,1,0-6.41,5.81,5.81,0,0,1,2.28-2.2,6.83,6.83,0,0,1,3.32-.79,6.36,6.36,0,0,1,3,.66,4.89,4.89,0,0,1,2,1.93l-1.74,1.07a3.73,3.73,0,0,0-1.42-1.31,4.08,4.08,0,0,0-1.88-.43,4.46,4.46,0,0,0-2.15.52,3.86,3.86,0,0,0-1.49,1.51,4.5,4.5,0,0,0-.54,2.24,4.55,4.55,0,0,0,.54,2.26,3.77,3.77,0,0,0,1.49,1.5,4.36,4.36,0,0,0,2.15.53,4,4,0,0,0,1.88-.44,3.65,3.65,0,0,0,1.42-1.31l1.68,1.06a4.85,4.85,0,0,1-2,1.94,6.26,6.26,0,0,1-3,.68A6.78,6.78,0,0,1,109.15,46.56Z"/><path class="cls-1" d="M125.55,46.47a3.41,3.41,0,0,1-1.19.63,5.23,5.23,0,0,1-1.47.22,3.9,3.9,0,0,1-2.84-1,3.76,3.76,0,0,1-1-2.82V36.83H117V35h2.07V32.35h2.2V35h3.49v1.82h-3.49v6.58a2.15,2.15,0,0,0,.49,1.52,1.85,1.85,0,0,0,1.41.53,2.64,2.64,0,0,0,1.73-.58Z"/><path class="cls-1" d="M126.53,32.26a1.38,1.38,0,0,1,0-2,1.43,1.43,0,0,1,1.07-.43,1.5,1.5,0,0,1,1.06.4,1.3,1.3,0,0,1,.43,1,1.41,1.41,0,0,1-.43,1.05,1.44,1.44,0,0,1-1.06.42A1.48,1.48,0,0,1,126.53,32.26Zm0,2.75h2.2V47.18h-2.2Z"/><path class="cls-1" d="M133.13,46.56a5.73,5.73,0,0,1-2.24-2.26,6.69,6.69,0,0,1,0-6.41,5.69,5.69,0,0,1,2.26-2.2,7.12,7.12,0,0,1,6.51,0,5.94,5.94,0,0,1,2.25,2.2,6.75,6.75,0,0,1,0,6.41,5.87,5.87,0,0,1-2.27,2.26A7,7,0,0,1,133.13,46.56Zm5.36-1.66A3.88,3.88,0,0,0,140,43.38a5.09,5.09,0,0,0,0-4.47,3.85,3.85,0,0,0-1.46-1.51,4.52,4.52,0,0,0-4.2,0,3.88,3.88,0,0,0-1.47,1.51,4.9,4.9,0,0,0,0,4.47,3.9,3.9,0,0,0,1.47,1.52A4.35,4.35,0,0,0,138.49,44.9Z"/><path class="cls-1" d="M154.21,36.24a5.29,5.29,0,0,1,1.37,3.94v7h-2.21V40.43a3.72,3.72,0,0,0-.85-2.66,3.17,3.17,0,0,0-2.43-.9,3.76,3.76,0,0,0-2.82,1,4,4,0,0,0-1,3v6.27h-2.2V35h2.11v1.84A4.35,4.35,0,0,1,148,35.4a6.52,6.52,0,0,1,2.58-.5A5,5,0,0,1,154.21,36.24Z"/></g></g></svg>