<svg xmlns="http://www.w3.org/2000/svg" viewBox="0 0 109.93 36.5"><defs><style>.cls-1{fill:#ecd0a8;}.cls-2{fill:#f6f7f7;}</style></defs><g id="Layer_2" data-name="Layer 2"><g id="Layer_1-2" data-name="Layer 1"><path class="cls-1" d="M2.14,15.15a1.6,1.6,0,0,1,0-2.32,1.73,1.73,0,0,1,1.24-.46,1.75,1.75,0,0,1,1.23.44,1.45,1.45,0,0,1,.5,1.12,1.6,1.6,0,0,1-.49,1.2,1.66,1.66,0,0,1-1.24.49A1.7,1.7,0,0,1,2.14,15.15ZM2,17.53H4.72V29.11H2Z"/><path class="cls-1" d="M17.82,18.68a5,5,0,0,1,1.33,3.8v6.63H16.44V22.82a3.26,3.26,0,0,0-.72-2.29,2.67,2.67,0,0,0-2-.77,3.1,3.1,0,0,0-2.36.9,3.6,3.6,0,0,0-.87,2.6v5.85H7.74V17.53h2.58V19A4.26,4.26,0,0,1,12,17.81a6.2,6.2,0,0,1,2.3-.41A4.84,4.84,0,0,1,17.82,18.68Z"/><path class="cls-1" d="M25.05,16.92v.7h3.19v2.17H25.13v9.32H22.42V19.79H20.51V17.62h1.91v-.74a3.94,3.94,0,0,1,1.09-2.94,4.13,4.13,0,0,1,3.06-1.07,4.27,4.27,0,0,1,2.45.62l-.76,2a2.64,2.64,0,0,0-1.5-.47Q25.05,15.06,25.05,16.92Z"/><path class="cls-1" d="M38,17.4V20a3.9,3.9,0,0,0-.63-.06,3.27,3.27,0,0,0-2.48.92A3.68,3.68,0,0,0,34,23.5v5.61H31.25V17.53h2.58v1.69C34.61,18,36,17.4,38,17.4Z"/><path class="cls-1" d="M48,18.63a4.73,4.73,0,0,1,1.35,3.69v6.79H46.79V27.7a3.12,3.12,0,0,1-1.43,1.16,5.47,5.47,0,0,1-2.22.41,5.39,5.39,0,0,1-2.28-.45,3.64,3.64,0,0,1-1.51-1.23,3.2,3.2,0,0,1-.53-1.8A3.07,3.07,0,0,1,40,23.29a5.79,5.79,0,0,1,3.66-.94h3v-.18a2.37,2.37,0,0,0-.72-1.86,3.13,3.13,0,0,0-2.16-.65,6.31,6.31,0,0,0-1.92.3,4.61,4.61,0,0,0-1.6.85l-1.06-2a6.57,6.57,0,0,1,2.19-1.06,9.59,9.59,0,0,1,2.71-.37A5.65,5.65,0,0,1,48,18.63Zm-2.47,8.2a2.57,2.57,0,0,0,1.11-1.34V24.15h-2.8c-1.56,0-2.34.51-2.34,1.54a1.39,1.39,0,0,0,.59,1.17,2.66,2.66,0,0,0,1.62.43A3.54,3.54,0,0,0,45.52,26.83Z"/><path class="cls-1" d="M58,13.93H60.8V29.11H58Z"/><path class="cls-1" d="M74.18,18.68a5,5,0,0,1,1.33,3.8v6.63H72.8V22.82a3.26,3.26,0,0,0-.72-2.29,2.67,2.67,0,0,0-2-.77,3.1,3.1,0,0,0-2.36.9,3.6,3.6,0,0,0-.87,2.6v5.85H64.1V17.53h2.58V19a4.26,4.26,0,0,1,1.69-1.22,6.2,6.2,0,0,1,2.3-.41A4.84,4.84,0,0,1,74.18,18.68Z"/><path class="cls-1" d="M89.87,13V29.11H87.26V27.62a4.1,4.1,0,0,1-1.65,1.23,5.55,5.55,0,0,1-2.19.42,6.12,6.12,0,0,1-3-.74,5.25,5.25,0,0,1-2.09-2.09,6.27,6.27,0,0,1-.76-3.12,6.17,6.17,0,0,1,.76-3.1,5.23,5.23,0,0,1,2.09-2.08,6.12,6.12,0,0,1,3-.74,5.54,5.54,0,0,1,2.11.39A4.23,4.23,0,0,1,87.16,19V13ZM85.51,26.5a3.2,3.2,0,0,0,1.23-1.27,4.2,4.2,0,0,0,0-3.82,3.2,3.2,0,0,0-1.23-1.27,3.74,3.74,0,0,0-3.52,0,3.2,3.2,0,0,0-1.23,1.27,4.2,4.2,0,0,0,0,3.82A3.2,3.2,0,0,0,82,26.5a3.74,3.74,0,0,0,3.52,0Z"/><path class="cls-1" d="M93,15.15a1.6,1.6,0,0,1,0-2.32,1.76,1.76,0,0,1,1.24-.46,1.8,1.8,0,0,1,1.24.44,1.45,1.45,0,0,1,.5,1.12,1.64,1.64,0,0,1-.49,1.2,1.68,1.68,0,0,1-1.25.49A1.73,1.73,0,0,1,93,15.15Zm-.13,2.38H95.6V29.11H92.88Z"/><path class="cls-1" d="M107,18.63a4.7,4.7,0,0,1,1.36,3.69v6.79h-2.56V27.7a3.14,3.14,0,0,1-1.42,1.16,5.55,5.55,0,0,1-2.23.41,5.38,5.38,0,0,1-2.27-.45,3.51,3.51,0,0,1-1.51-1.23,3.12,3.12,0,0,1-.53-1.8A3,3,0,0,1,99,23.29a5.74,5.74,0,0,1,3.65-.94h3v-.18a2.37,2.37,0,0,0-.73-1.86,3.13,3.13,0,0,0-2.16-.65,6.31,6.31,0,0,0-1.92.3,4.48,4.48,0,0,0-1.59.85l-1.07-2a6.57,6.57,0,0,1,2.19-1.06A9.66,9.66,0,0,1,103,17.4,5.62,5.62,0,0,1,107,18.63Zm-2.47,8.2a2.59,2.59,0,0,0,1.12-1.34V24.15h-2.8c-1.56,0-2.35.51-2.35,1.54a1.39,1.39,0,0,0,.59,1.17,2.68,2.68,0,0,0,1.63.43A3.51,3.51,0,0,0,104.48,26.83Z"/><path class="cls-1" d="M87.59,32.08a1.57,1.57,0,0,1,.68.56,1.76,1.76,0,0,1,0,1.74,1.57,1.57,0,0,1-.68.56,2.54,2.54,0,0,1-1,.2h-1v1.32h-.85V31.88h1.88A2.54,2.54,0,0,1,87.59,32.08Zm-.23,2.1a.94.94,0,0,0,0-1.34,1.31,1.31,0,0,0-.85-.24h-1v1.82h1A1.31,1.31,0,0,0,87.36,34.18Z"/><path class="cls-1" d="M92.41,33l-1.5,3.49h-.84L88.57,33h.85l1.09,2.59L91.62,33Z"/><path class="cls-1" d="M95,36.27a.89.89,0,0,1-.35.18,2,2,0,0,1-.43,0,1.23,1.23,0,0,1-.89-.3,1.14,1.14,0,0,1-.31-.87V33.65h-.58V33H93V32.2h.81V33h.94v.66h-.94v1.66a.53.53,0,0,0,.13.39.45.45,0,0,0,.36.13.73.73,0,0,0,.45-.14Z"/><path class="cls-1" d="M95.41,36.35a.53.53,0,0,1-.16-.39.5.5,0,0,1,.16-.39.56.56,0,0,1,.76,0,.54.54,0,0,1-.38.93A.52.52,0,0,1,95.41,36.35Z"/><path class="cls-1" d="M98.68,31.88h.85v3.86h2.39v.72H98.68Z"/><path class="cls-1" d="M104.42,36.27a1.06,1.06,0,0,1-.35.18,2.12,2.12,0,0,1-.44,0,1.24,1.24,0,0,1-.89-.3,1.14,1.14,0,0,1-.31-.87V33.65h-.58V33h.58V32.2h.82V33h.93v.66h-.93v1.66a.57.57,0,0,0,.12.39.45.45,0,0,0,.36.13.76.76,0,0,0,.46-.14Z"/><path class="cls-1" d="M108.23,31.61v4.85h-.79V36a1.24,1.24,0,0,1-.5.37,1.71,1.71,0,0,1-.65.12,1.83,1.83,0,0,1-.91-.22,1.59,1.59,0,0,1-.63-.63,2,2,0,0,1,0-1.87,1.59,1.59,0,0,1,.63-.63,1.83,1.83,0,0,1,.91-.22,1.61,1.61,0,0,1,.63.12,1.3,1.3,0,0,1,.49.35V31.61Zm-1.32,4.06a1.06,1.06,0,0,0,.38-.38,1.21,1.21,0,0,0,.13-.58,1.17,1.17,0,0,0-.13-.57,1,1,0,0,0-.38-.38,1,1,0,0,0-.53-.14,1.08,1.08,0,0,0-.53.14,1,1,0,0,0-.37.38,1.17,1.17,0,0,0-.14.57,1.21,1.21,0,0,0,.14.58,1,1,0,0,0,.37.38,1.07,1.07,0,0,0,.53.13A1,1,0,0,0,106.91,35.67Z"/><path class="cls-1" d="M109,36.35a.5.5,0,0,1-.16-.39.53.53,0,0,1,.15-.39.54.54,0,0,1,.39-.15.52.52,0,0,1,.38.15.58.58,0,0,1,0,.78.55.55,0,0,1-.38.15A.52.52,0,0,1,109,36.35Z"/><path class="cls-2" d="M3.44,6.13c0,.45.43.76,2.61.76S8.4,6.75,8.4,6.41,8.09,6,5.92,5.89C1.74,5.76.13,5.07.13,2.91S2.13,0,5.79,0s5.65.87,5.65,3.24H8c0-.49-.8-.59-2.48-.59s-1.94.08-1.94.44.33.34,2.34.42c3.66.15,5.92.4,5.92,2.82S9.72,9.54,5.92,9.54,0,8.89,0,6.13Z"/><path class="cls-2" d="M20,7.73H16L15.43,9.4H11.64L15.48.13h5.11L24.43,9.4H20.65Zm-.9-2.38L18,2.52,17,5.35Z"/><path class="cls-2" d="M34.17,3.05h-4V9.4H26.75V3.05h-4V.13H34.17Z"/><path class="cls-2" d="M47.55.13,43.71,9.4H38.6L34.76.13h3.79L41.16,7,43.77.13Z"/><path class="cls-2" d="M51.59,9.4H48.15V.13h3.44Z"/><path class="cls-2" d="M59.72,4.5l5.34,4.9H60.29l-3-2.94L55.9,7.64V9.4H52.45V.13H55.9V3.76L60.16.13h4.9Z"/><path class="cls-2" d="M74,7.73H70.08L69.44,9.4H65.65L69.5.13h5.11L78.45,9.4H74.66Zm-.9-2.38-1-2.83L71,5.35Z"/></g></g></svg>