<svg xmlns="http://www.w3.org/2000/svg" viewBox="0 0 144.5 28.98"><defs><style>.cls-1{fill:#f6f7f7;}.cls-2{fill:#ecd0a8;}</style></defs><g id="Layer_2" data-name="Layer 2"><g id="Layer_1-2" data-name="Layer 1"><path class="cls-1" d="M2.44,12.42a6.5,6.5,0,0,1-2.21-1l1-2.16a6.74,6.74,0,0,0,1.9.94,7.13,7.13,0,0,0,2.2.35,3.51,3.51,0,0,0,1.8-.36,1.1,1.1,0,0,0,.59-1,1,1,0,0,0-.35-.73A2.61,2.61,0,0,0,6.46,8C6.1,7.88,5.61,7.74,5,7.6a20.57,20.57,0,0,1-2.32-.68A3.76,3.76,0,0,1,1.12,5.84a2.84,2.84,0,0,1-.64-2,3.46,3.46,0,0,1,.58-2A4,4,0,0,1,2.82.51,7.42,7.42,0,0,1,5.7,0,9.92,9.92,0,0,1,8,.28a6.86,6.86,0,0,1,2,.82L9.12,3.28a6.94,6.94,0,0,0-3.43-1,3.23,3.23,0,0,0-1.78.39,1.18,1.18,0,0,0-.58,1,1,1,0,0,0,.67,1,10.74,10.74,0,0,0,2,.61A19.16,19.16,0,0,1,8.34,6,4,4,0,0,1,9.89,7a2.91,2.91,0,0,1,.65,2,3.42,3.42,0,0,1-.6,1.94,3.88,3.88,0,0,1-1.78,1.39,7.13,7.13,0,0,1-2.88.51A9.77,9.77,0,0,1,2.44,12.42Z"/><path class="cls-1" d="M11.17.21H14v12.4H11.17Z"/><path class="cls-1" d="M18.22,2.55h-4V.21H25V2.55H21V12.61h-2.8Z"/><path class="cls-1" d="M32.82,10H27.06L26,12.61H23L28.55.21h2.83l5.55,12.4h-3Zm-.91-2.18L30,3,28,7.77Z"/><path class="cls-2" d="M3.29,28A6,6,0,0,1,.88,25.75a6.66,6.66,0,0,1,0-6.61,6.15,6.15,0,0,1,2.41-2.28A7.14,7.14,0,0,1,6.73,16a7.26,7.26,0,0,1,2.91.57,5.88,5.88,0,0,1,2.19,1.63L10,19.93a4,4,0,0,0-3.12-1.45,4.21,4.21,0,0,0-2,.5,3.67,3.67,0,0,0-1.41,1.41,4.4,4.4,0,0,0,0,4.11,3.61,3.61,0,0,0,1.41,1.41,4.17,4.17,0,0,0,2.05.5A4,4,0,0,0,10,24.94l1.84,1.7a5.69,5.69,0,0,1-2.2,1.65,7.14,7.14,0,0,1-2.92.57A7.07,7.07,0,0,1,3.29,28Z"/><path class="cls-2" d="M14.69,28a6.29,6.29,0,0,1-2.43-2.29,6.64,6.64,0,0,1,0-6.57,6.16,6.16,0,0,1,2.43-2.29A7.28,7.28,0,0,1,18.17,16a7.12,7.12,0,0,1,3.47.84,6.43,6.43,0,0,1,2.51,8.73l-.08.13A6.24,6.24,0,0,1,21.64,28a7.12,7.12,0,0,1-3.47.84A7.16,7.16,0,0,1,14.69,28Zm5.46-2.11a3.62,3.62,0,0,0,1.39-1.41,4.4,4.4,0,0,0,0-4.11A3.66,3.66,0,0,0,20.15,19a4.18,4.18,0,0,0-4,0,3.56,3.56,0,0,0-1.39,1.41,4.4,4.4,0,0,0,0,4.11,3.56,3.56,0,0,0,1.39,1.41,4.18,4.18,0,0,0,4,0Z"/><path class="cls-2" d="M37.16,16.25V28.64H34.8l-6.18-7.52v7.52H25.79V16.25h2.37l6.16,7.52V16.25Z"/><path class="cls-2" d="M40,28.46a6.5,6.5,0,0,1-2.21-1l1-2.16a6.68,6.68,0,0,0,1.89.94,6.84,6.84,0,0,0,2.2.35,3.51,3.51,0,0,0,1.8-.36,1.1,1.1,0,0,0,.59-1,1,1,0,0,0-.35-.73A2.5,2.5,0,0,0,44,24c-.36-.12-.85-.25-1.46-.39a18.11,18.11,0,0,1-2.3-.61,3.73,3.73,0,0,1-1.55-1.08,2.89,2.89,0,0,1-.65-2,3.41,3.41,0,0,1,.59-2,3.82,3.82,0,0,1,1.76-1.39A7.13,7.13,0,0,1,43.27,16a9.58,9.58,0,0,1,2.32.29,7.25,7.25,0,0,1,2,.81l-.89,2.18a6.94,6.94,0,0,0-3.43-1,3.23,3.23,0,0,0-1.78.39,1.16,1.16,0,0,0-.58,1,1,1,0,0,0,.67.95,9.25,9.25,0,0,0,2,.61A23.34,23.34,0,0,1,45.9,22a3.8,3.8,0,0,1,1.55,1.07,2.86,2.86,0,0,1,.65,2A3.4,3.4,0,0,1,47.51,27a4,4,0,0,1-1.78,1.39,7.15,7.15,0,0,1-2.89.52A10.15,10.15,0,0,1,40,28.46Z"/><path class="cls-2" d="M51.13,18.58h-4V16.25H58v2.33H54V28.64H51.13Z"/><path class="cls-2" d="M66.08,28.64l-2.39-3.45H61.05v3.45H58.18V16.25h5.36a7,7,0,0,1,2.86.54,4.13,4.13,0,0,1,2.53,3.95,4.2,4.2,0,0,1-.67,2.39,4.32,4.32,0,0,1-1.88,1.53l2.78,4Zm-.73-9.5a3,3,0,0,0-2-.56h-2.3V22.9h2.33a3,3,0,0,0,2-.56,2.21,2.21,0,0,0,0-3.2Z"/><path class="cls-2" d="M71.24,27.39a5.64,5.64,0,0,1-1.48-4.2V16.25h2.87v6.83q0,3.33,2.76,3.33a2.62,2.62,0,0,0,2.06-.8,3.8,3.8,0,0,0,.7-2.53V16.25H81v6.94a5.68,5.68,0,0,1-1.48,4.2,6.55,6.55,0,0,1-8.27,0Z"/><path class="cls-2" d="M85,28a6.08,6.08,0,0,1-2.41-2.28,6.66,6.66,0,0,1,0-6.61A6.21,6.21,0,0,1,85,16.86a7.64,7.64,0,0,1,6.36-.26,6,6,0,0,1,2.18,1.63l-1.84,1.7a4,4,0,0,0-3.12-1.45,4.21,4.21,0,0,0-2,.5,3.67,3.67,0,0,0-1.41,1.41,4.45,4.45,0,0,0,0,4.11,3.67,3.67,0,0,0,1.41,1.41,4.21,4.21,0,0,0,2,.5,4,4,0,0,0,3.12-1.47l1.84,1.7a5.73,5.73,0,0,1-2.19,1.65,7.14,7.14,0,0,1-2.92.57A7.07,7.07,0,0,1,85,28Z"/><path class="cls-2" d="M96.59,18.58h-4V16.25H103.4v2.33h-4V28.64H96.59Z"/><path class="cls-2" d="M103.64,16.25h2.87V28.64h-2.87Z"/><path class="cls-2" d="M110.64,28a6.13,6.13,0,0,1-2.42-2.29,6.59,6.59,0,0,1,0-6.57,6.13,6.13,0,0,1,2.42-2.29,7.27,7.27,0,0,1,3.48-.84,7.12,7.12,0,0,1,3.47.84,6.41,6.41,0,0,1,2.53,8.68l-.12.2A6.19,6.19,0,0,1,117.59,28a7.61,7.61,0,0,1-7,0Zm5.47-2.11a3.69,3.69,0,0,0,1.39-1.41,4.45,4.45,0,0,0,0-4.11A3.73,3.73,0,0,0,116.11,19a4.23,4.23,0,0,0-4,0,3.76,3.76,0,0,0-1.39,1.41,4.4,4.4,0,0,0,0,4.11,3.69,3.69,0,0,0,1.39,1.41,4.18,4.18,0,0,0,4,0Z"/><path class="cls-2" d="M133.11,16.25V28.64h-2.36l-6.18-7.52v7.52h-2.83V16.25h2.37l6.16,7.52V16.25Z"/><path class="cls-2" d="M136.4,28.56a6.9,6.9,0,0,1-2.21-1l1-2.16a7,7,0,0,0,1.9.94,7.44,7.44,0,0,0,2.2.35,3.62,3.62,0,0,0,1.8-.36,1.12,1.12,0,0,0,.59-1,.92.92,0,0,0-.35-.73,2.45,2.45,0,0,0-.91-.46,13.35,13.35,0,0,0-1.46-.4,20.57,20.57,0,0,1-2.32-.68A3.7,3.7,0,0,1,135.08,22a2.87,2.87,0,0,1-.64-2,3.39,3.39,0,0,1,.58-2,4,4,0,0,1,1.76-1.33,7.07,7.07,0,0,1,2.88-.51,9.46,9.46,0,0,1,2.3.28,6.7,6.7,0,0,1,2,.82l-.88,2.18a6.84,6.84,0,0,0-3.43-1,3.15,3.15,0,0,0-1.78.39,1.16,1.16,0,0,0-.58,1,1,1,0,0,0,.67,1,11.29,11.29,0,0,0,2,.61,19.71,19.71,0,0,1,2.34.72,3.77,3.77,0,0,1,1.55,1,2.89,2.89,0,0,1,.65,2,3.45,3.45,0,0,1-.6,1.94,4,4,0,0,1-1.78,1.39,7.49,7.49,0,0,1-2.88.51A10.06,10.06,0,0,1,136.4,28.56Z"/></g></g></svg>