<svg xmlns="http://www.w3.org/2000/svg" viewBox="0 0 177.62 27.52"><defs><style>.cls-1{fill:#ecd0a8;}.cls-2{fill:#f6f7f7;}</style></defs><g id="Layer_2" data-name="Layer 2"><g id="Layer_1-2" data-name="Layer 1"><path class="cls-1" d="M10.41,20.26h2.42v5.5a7.62,7.62,0,0,1-2.48,1.3,9.33,9.33,0,0,1-2.92.46,7.85,7.85,0,0,1-3.8-.92A6.75,6.75,0,0,1,1,24.07a6.92,6.92,0,0,1-1-3.65,6.94,6.94,0,0,1,1-3.65,6.78,6.78,0,0,1,2.67-2.53,7.94,7.94,0,0,1,3.83-.91,8.34,8.34,0,0,1,3.15.57A6.19,6.19,0,0,1,13,15.57l-1.62,1.58a5.19,5.19,0,0,0-3.8-1.58A5.44,5.44,0,0,0,5,16.18,4.46,4.46,0,0,0,3.22,17.9a5.22,5.22,0,0,0,0,5A4.63,4.63,0,0,0,5,24.64a5.18,5.18,0,0,0,2.57.63,5.59,5.59,0,0,0,2.84-.71Z"/><path class="cls-1" d="M15.47,12.69h2.47V27.32H15.47Z"/><path class="cls-1" d="M22.53,26.77a5.06,5.06,0,0,1-2-1.92,5.42,5.42,0,0,1-.72-2.79,5.36,5.36,0,0,1,.72-2.78,5,5,0,0,1,2-1.91,6,6,0,0,1,2.88-.69,6,6,0,0,1,2.9.69,5,5,0,0,1,2,1.91A5.36,5.36,0,0,1,31,22.06a5.42,5.42,0,0,1-.72,2.79,5.06,5.06,0,0,1-2,1.92,6,6,0,0,1-2.9.69A6,6,0,0,1,22.53,26.77Zm5.13-2.33a3.26,3.26,0,0,0,.88-2.38,3.28,3.28,0,0,0-.88-2.39,3.05,3.05,0,0,0-2.25-.9,3,3,0,0,0-2.24.9,3.32,3.32,0,0,0-.88,2.39,3.3,3.3,0,0,0,.88,2.38,3,3,0,0,0,2.24.91A3,3,0,0,0,27.66,24.44Z"/><path class="cls-1" d="M41.48,17.35a4.73,4.73,0,0,1,1.9,1.89,5.61,5.61,0,0,1,.69,2.82,5.7,5.7,0,0,1-.69,2.83,4.82,4.82,0,0,1-1.9,1.9,5.55,5.55,0,0,1-2.75.67,5.1,5.1,0,0,1-2-.38A3.81,3.81,0,0,1,35.24,26v1.36H32.9V12.69h2.46v5.39a4.21,4.21,0,0,1,1.49-1,4.81,4.81,0,0,1,1.88-.35A5.55,5.55,0,0,1,41.48,17.35Zm-.79,7.09a3.26,3.26,0,0,0,.88-2.38,3.28,3.28,0,0,0-.88-2.39,3,3,0,0,0-2.23-.9,3.17,3.17,0,0,0-1.6.4,2.88,2.88,0,0,0-1.12,1.15,3.79,3.79,0,0,0,0,3.47A2.91,2.91,0,0,0,36.86,25a3.27,3.27,0,0,0,1.6.4A3,3,0,0,0,40.69,24.44Z"/><path class="cls-1" d="M53.37,17.79a4.3,4.3,0,0,1,1.23,3.36v6.17H52.27V26A2.82,2.82,0,0,1,51,27.09a5.56,5.56,0,0,1-4.09,0,3.18,3.18,0,0,1-1.37-1.12A2.86,2.86,0,0,1,45,24.3,2.77,2.77,0,0,1,46.1,22a5.24,5.24,0,0,1,3.32-.86h2.72V21a2.15,2.15,0,0,0-.66-1.69,2.84,2.84,0,0,0-2-.59,5.76,5.76,0,0,0-1.75.27,4.45,4.45,0,0,0-1.45.77l-1-1.79a6.06,6.06,0,0,1,2-1,8.92,8.92,0,0,1,2.46-.33A5.15,5.15,0,0,1,53.37,17.79Zm-2.25,7.45a2.33,2.33,0,0,0,1-1.21V22.81H49.59c-1.42,0-2.12.46-2.12,1.4A1.24,1.24,0,0,0,48,25.27a2.44,2.44,0,0,0,1.48.39A3.2,3.2,0,0,0,51.12,25.24Z"/><path class="cls-1" d="M57.26,12.69h2.47V27.32H57.26Z"/><path class="cls-1" d="M70.21,15.67v4.2h6.66V22H70.21v5.28H67.65V13.52H77.72v2.15Z"/><path class="cls-1" d="M81,26.77a5.06,5.06,0,0,1-2-1.92,5.42,5.42,0,0,1-.72-2.79A5.36,5.36,0,0,1,79,19.28a5,5,0,0,1,2-1.91,6.4,6.4,0,0,1,5.78,0,5,5,0,0,1,2,1.91,5.36,5.36,0,0,1,.72,2.78,5.42,5.42,0,0,1-.72,2.79,5.06,5.06,0,0,1-2,1.92,6.4,6.4,0,0,1-5.78,0Zm5.13-2.33A3.26,3.26,0,0,0,87,22.06a3.28,3.28,0,0,0-.88-2.39,3.25,3.25,0,0,0-4.49,0,3.31,3.31,0,0,0-.87,2.39,3.29,3.29,0,0,0,.87,2.38,3.22,3.22,0,0,0,4.49,0Z"/><path class="cls-1" d="M101.59,16.79V27.32H99.25V26a3.94,3.94,0,0,1-1.48,1.09,4.69,4.69,0,0,1-1.91.39,4.6,4.6,0,0,1-3.33-1.17,4.69,4.69,0,0,1-1.21-3.48v-6h2.47v5.68a3,3,0,0,0,.64,2.12,2.32,2.32,0,0,0,1.82.7,2.75,2.75,0,0,0,2.1-.82,3.27,3.27,0,0,0,.78-2.35V16.79Z"/><path class="cls-1" d="M113.5,17.84a4.58,4.58,0,0,1,1.2,3.45v6h-2.46V21.6a3,3,0,0,0-.65-2.08,2.46,2.46,0,0,0-1.86-.7,2.89,2.89,0,0,0-2.15.82A3.29,3.29,0,0,0,106.8,22v5.32h-2.47V16.79h2.35v1.36a3.88,3.88,0,0,1,1.53-1.1,5.56,5.56,0,0,1,2.09-.37A4.39,4.39,0,0,1,113.5,17.84Z"/><path class="cls-1" d="M127.75,12.69V27.32h-2.37V26a3.78,3.78,0,0,1-1.5,1.12,5.11,5.11,0,0,1-2,.38,5.52,5.52,0,0,1-2.73-.67,4.89,4.89,0,0,1-1.9-1.9,5.7,5.7,0,0,1-.69-2.83,5.61,5.61,0,0,1,.69-2.82,4.8,4.8,0,0,1,1.9-1.89,5.52,5.52,0,0,1,2.73-.67,5,5,0,0,1,1.92.35,3.8,3.8,0,0,1,1.47,1.07V12.69Zm-4,12.26a3,3,0,0,0,1.12-1.16,3.88,3.88,0,0,0,0-3.47,3,3,0,0,0-1.12-1.15,3.4,3.4,0,0,0-3.2,0,3,3,0,0,0-1.12,1.15,3.88,3.88,0,0,0,0,3.47A3,3,0,0,0,120.59,25a3.4,3.4,0,0,0,3.2,0Z"/><path class="cls-1" d="M138.07,17.79a4.3,4.3,0,0,1,1.23,3.36v6.17H137V26a2.82,2.82,0,0,1-1.29,1.05,5.56,5.56,0,0,1-4.09,0,3.12,3.12,0,0,1-1.37-1.12,2.86,2.86,0,0,1-.48-1.63,2.79,2.79,0,0,1,1-2.27,5.27,5.27,0,0,1,3.33-.86h2.72V21a2.15,2.15,0,0,0-.66-1.69,2.86,2.86,0,0,0-2-.59,5.75,5.75,0,0,0-1.74.27,4.45,4.45,0,0,0-1.45.77l-1-1.79a6.21,6.21,0,0,1,2-1,8.92,8.92,0,0,1,2.46-.33A5.15,5.15,0,0,1,138.07,17.79Zm-2.25,7.45a2.33,2.33,0,0,0,1-1.21V22.81h-2.55c-1.42,0-2.13.46-2.13,1.4a1.25,1.25,0,0,0,.54,1.06,2.42,2.42,0,0,0,1.47.39A3.21,3.21,0,0,0,135.82,25.24Z"/><path class="cls-1" d="M148.29,26.75a2.86,2.86,0,0,1-1.06.53,4.66,4.66,0,0,1-1.31.18,3.7,3.7,0,0,1-2.68-.91,3.47,3.47,0,0,1-.94-2.64V18.84h-1.74v-2h1.74v-2.4h2.46v2.4h2.82v2h-2.82v5a1.64,1.64,0,0,0,.37,1.17,1.42,1.42,0,0,0,1.09.41A2.17,2.17,0,0,0,147.6,25Z"/><path class="cls-1" d="M149.94,14.64a1.41,1.41,0,0,1-.45-1.06,1.38,1.38,0,0,1,.45-1.05,1.58,1.58,0,0,1,1.13-.43,1.63,1.63,0,0,1,1.12.41,1.31,1.31,0,0,1,.45,1,1.48,1.48,0,0,1-.44,1.1,1.55,1.55,0,0,1-1.13.44A1.61,1.61,0,0,1,149.94,14.64Zm-.11,2.15h2.46V27.32h-2.46Z"/><path class="cls-1" d="M156.88,26.77a5.06,5.06,0,0,1-2-1.92,5.42,5.42,0,0,1-.72-2.79,5.36,5.36,0,0,1,.72-2.78,5,5,0,0,1,2-1.91,6.4,6.4,0,0,1,5.78,0,5,5,0,0,1,2,1.91,5.36,5.36,0,0,1,.72,2.78,5.42,5.42,0,0,1-.72,2.79,5.06,5.06,0,0,1-2,1.92,6.4,6.4,0,0,1-5.78,0ZM162,24.44a3.26,3.26,0,0,0,.88-2.38,3.28,3.28,0,0,0-.88-2.39,3.25,3.25,0,0,0-4.49,0,3.31,3.31,0,0,0-.87,2.39,3.29,3.29,0,0,0,.87,2.38,3.22,3.22,0,0,0,4.49,0Z"/><path class="cls-1" d="M176.42,17.84a4.58,4.58,0,0,1,1.2,3.45v6h-2.47V21.6a2.93,2.93,0,0,0-.65-2.08,2.42,2.42,0,0,0-1.85-.7,2.87,2.87,0,0,0-2.15.82,3.3,3.3,0,0,0-.79,2.36v5.32h-2.46V16.79h2.35v1.36a3.88,3.88,0,0,1,1.53-1.1,5.56,5.56,0,0,1,2.09-.37A4.4,4.4,0,0,1,176.42,17.84Z"/><path class="cls-2" d="M4.41,6.13c0,.45.43.76,2.61.76s2.35-.14,2.35-.48S9.06,6,6.89,5.89c-4.18-.13-5.79-.82-5.79-3S3.1,0,6.76,0s5.65.87,5.65,3.24H9c0-.49-.8-.59-2.48-.59s-1.94.08-1.94.44.33.34,2.34.42c3.66.15,5.92.4,5.92,2.82S10.69,9.54,6.89,9.54,1,8.89,1,6.13Z"/><path class="cls-2" d="M21,7.73H17L16.4,9.4H12.61L16.45.13h5.11L25.4,9.4H21.62Zm-.9-2.38L19,2.52,18,5.35Z"/><path class="cls-2" d="M35.14,3.05h-4V9.4H27.72V3.05h-4V.13H35.14Z"/><path class="cls-2" d="M48.52.13,44.68,9.4H39.57L35.73.13h3.79L42.13,7,44.74.13Z"/><path class="cls-2" d="M52.56,9.4H49.12V.13h3.44Z"/><path class="cls-2" d="M60.69,4.5,66,9.4H61.26l-3-2.94L56.87,7.64V9.4H53.42V.13h3.45V3.76L61.13.13H66Z"/><path class="cls-2" d="M75,7.73H71.05L70.41,9.4H66.62L70.47.13h5.11L79.42,9.4H75.63Zm-.9-2.38L73,2.52,72,5.35Z"/></g></g></svg>