<svg xmlns="http://www.w3.org/2000/svg" viewBox="0 0 158.33 33.12"><defs><style>.cls-1{fill:#f6f7f7;}.cls-2{fill:#ecd0a8;}</style></defs><g id="Layer_2" data-name="Layer 2"><g id="Layer_1-2" data-name="Layer 1"><path class="cls-1" d="M3.44,6.13c0,.45.43.76,2.61.76S8.4,6.75,8.4,6.41,8.09,6,5.92,5.89C1.74,5.76.13,5.07.13,2.91S2.13,0,5.79,0s5.65.87,5.65,3.24H8c0-.49-.8-.59-2.48-.59s-1.94.08-1.94.44.33.34,2.34.42c3.66.15,5.92.4,5.92,2.82S9.72,9.54,5.92,9.54,0,8.89,0,6.13Z"/><path class="cls-1" d="M20,7.73H16L15.43,9.4H11.64L15.48.13h5.11L24.43,9.4H20.65Zm-.9-2.38L18,2.52,17,5.35Z"/><path class="cls-1" d="M34.17,3.05h-4V9.4H26.75V3.05h-4V.13H34.17Z"/><path class="cls-1" d="M47.55.13,43.71,9.4H38.6L34.76.13h3.79L41.16,7,43.77.13Z"/><path class="cls-1" d="M51.59,9.4H48.15V.13h3.44Z"/><path class="cls-1" d="M59.72,4.5l5.34,4.9H60.29l-3-2.94L55.9,7.64V9.4H52.45V.13H55.9V3.76L60.16.13h4.9Z"/><path class="cls-1" d="M74,7.73H70.08L69.44,9.4H65.65L69.5.13h5.11L78.45,9.4H74.66Zm-.9-2.38-1-2.83L71,5.35Z"/><path class="cls-2" d="M96.9,26.66v2H85.21V12.55H96.57v2H87.51V19.5h8.08v1.95H87.51v5.21Z"/><path class="cls-2" d="M117.48,17.68a5.34,5.34,0,0,1,1.35,4v7h-2.21V21.89a3.85,3.85,0,0,0-.82-2.67,3,3,0,0,0-2.33-.9,3.48,3.48,0,0,0-2.67,1.05,4.21,4.21,0,0,0-1,3v6.28h-2.2V21.89a3.85,3.85,0,0,0-.82-2.67,3,3,0,0,0-2.33-.9,3.48,3.48,0,0,0-2.67,1.05,4.21,4.21,0,0,0-1,3v6.28h-2.2V16.46h2.11v1.82a4.31,4.31,0,0,1,1.75-1.44,5.83,5.83,0,0,1,2.47-.49,5.42,5.42,0,0,1,2.53.57,4,4,0,0,1,1.7,1.68,4.68,4.68,0,0,1,1.92-1.66,6.49,6.49,0,0,1,2.78-.59A5,5,0,0,1,117.48,17.68Z"/><path class="cls-2" d="M130.82,17.13a5.62,5.62,0,0,1,2.2,2.18,6.49,6.49,0,0,1,.79,3.25,6.61,6.61,0,0,1-.79,3.26,5.58,5.58,0,0,1-2.2,2.19,6.31,6.31,0,0,1-3.18.79,5.51,5.51,0,0,1-2.4-.51,5,5,0,0,1-1.85-1.47v6.3h-2.21V16.46h2.11v1.93a4.8,4.8,0,0,1,1.87-1.53,6.05,6.05,0,0,1,2.48-.51A6.4,6.4,0,0,1,130.82,17.13Zm-1.25,9.19A3.81,3.81,0,0,0,131,24.8a4.92,4.92,0,0,0,0-4.48,3.81,3.81,0,0,0-1.47-1.51,4.21,4.21,0,0,0-2.11-.53,4.09,4.09,0,0,0-2.08.54,4,4,0,0,0-1.48,1.51,4.43,4.43,0,0,0-.54,2.23,4.71,4.71,0,0,0,.53,2.24,3.8,3.8,0,0,0,1.48,1.52,4.43,4.43,0,0,0,4.24,0Z"/><path class="cls-2" d="M135.18,13.7a1.38,1.38,0,0,1-.42-1,1.4,1.4,0,0,1,.42-1,1.59,1.59,0,0,1,2.14,0,1.3,1.3,0,0,1,.43,1,1.43,1.43,0,0,1-.43,1A1.59,1.59,0,0,1,135.18,13.7Zm0,2.76h2.21v12.2h-2.21Z"/><path class="cls-2" d="M143.66,16.9a6.17,6.17,0,0,1,2.74-.55v2.14h-.5a3.71,3.71,0,0,0-2.82,1.07,4.21,4.21,0,0,0-1,3v6.08h-2.21V16.46H142v2.05A3.74,3.74,0,0,1,143.66,16.9Z"/><path class="cls-2" d="M158.25,23.3h-9.89a3.87,3.87,0,0,0,1.41,2.59,4.64,4.64,0,0,0,3,1,4.55,4.55,0,0,0,3.52-1.47l1.22,1.43a5.38,5.38,0,0,1-2.06,1.47,7.72,7.72,0,0,1-6.18-.29A5.59,5.59,0,0,1,147,25.78a6.26,6.26,0,0,1-.82-3.22,6.38,6.38,0,0,1,.79-3.2,5.7,5.7,0,0,1,2.19-2.22,6.16,6.16,0,0,1,3.14-.79,6.09,6.09,0,0,1,3.12.79,5.51,5.51,0,0,1,2.14,2.22,6.76,6.76,0,0,1,.77,3.27C158.3,22.8,158.28,23,158.25,23.3Zm-8.64-4.12a3.87,3.87,0,0,0-1.25,2.53h7.82a3.94,3.94,0,0,0-1.25-2.52,4.12,4.12,0,0,0-5.32,0Z"/><path class="cls-2" d="M14.8,12.55V28.66H12.91l-9.66-12v12H.94V12.55H2.83l9.67,12v-12Z"/><path class="cls-2" d="M28.56,23.3H18.67a3.79,3.79,0,0,0,1.41,2.58,4.59,4.59,0,0,0,3,1,4.53,4.53,0,0,0,3.53-1.47l1.22,1.43a5.49,5.49,0,0,1-2.06,1.47A7.74,7.74,0,0,1,19.59,28a5.7,5.7,0,0,1-2.32-2.22,6.35,6.35,0,0,1-.81-3.22,6.38,6.38,0,0,1,.79-3.2,5.7,5.7,0,0,1,2.19-2.22,6.61,6.61,0,0,1,6.26,0,5.64,5.64,0,0,1,2.14,2.22,6.76,6.76,0,0,1,.77,3.27C28.61,22.8,28.59,23,28.56,23.3Zm-8.64-4.12a3.87,3.87,0,0,0-1.25,2.53h7.82a3.94,3.94,0,0,0-1.25-2.52,3.85,3.85,0,0,0-2.66-1A3.78,3.78,0,0,0,19.92,19.18Z"/><path class="cls-2" d="M37.38,28.66,33.86,24l-3.57,4.67H27.83l4.81-6.24-4.58-6h2.46l3.36,4.4,3.34-4.4h2.41l-4.6,6,4.86,6.24Z"/><path class="cls-2" d="M51.88,20.51h2.21v6.28a8.52,8.52,0,0,1-2.79,1.52,10.06,10.06,0,0,1-3.31.53,9,9,0,0,1-4.4-1.07,8,8,0,0,1-3.07-2.94A8.05,8.05,0,0,1,39.4,20.6a8.15,8.15,0,0,1,1.12-4.23,7.79,7.79,0,0,1,3.08-3A9.85,9.85,0,0,1,51.54,13a7.1,7.1,0,0,1,2.68,1.85L52.8,16.28a6.48,6.48,0,0,0-4.68-1.87,6.79,6.79,0,0,0-3.3.8,5.73,5.73,0,0,0-2.29,2.21,6.47,6.47,0,0,0,0,6.35A6,6,0,0,0,44.82,26a6.72,6.72,0,0,0,3.28.8,6.9,6.9,0,0,0,3.78-1Z"/><path class="cls-2" d="M67.41,23.3h-9.9a3.8,3.8,0,0,0,1.42,2.58,4.59,4.59,0,0,0,3,1,4.52,4.52,0,0,0,3.52-1.47l1.22,1.43a5.38,5.38,0,0,1-2.06,1.47A7.69,7.69,0,0,1,58.44,28a5.7,5.7,0,0,1-2.32-2.22,6.35,6.35,0,0,1-.81-3.22,6.38,6.38,0,0,1,.79-3.2,5.7,5.7,0,0,1,2.19-2.22,6.61,6.61,0,0,1,6.26,0,5.64,5.64,0,0,1,2.14,2.22,6.76,6.76,0,0,1,.77,3.27C67.46,22.8,67.44,23,67.41,23.3Zm-8.64-4.12a3.92,3.92,0,0,0-1.26,2.53h7.83a3.94,3.94,0,0,0-1.25-2.52,4.12,4.12,0,0,0-5.32,0Z"/><path class="cls-2" d="M79,17.69a5.3,5.3,0,0,1,1.37,3.95v7H78.16V21.89a3.8,3.8,0,0,0-.85-2.67,3.21,3.21,0,0,0-2.44-.9A3.78,3.78,0,0,0,72,19.37a4.12,4.12,0,0,0-1,3v6.29H68.79V16.46h2.12V18.3a4.29,4.29,0,0,1,1.81-1.45,6.15,6.15,0,0,1,2.58-.5A5,5,0,0,1,79,17.69Z"/></g></g></svg>