<svg xmlns="http://www.w3.org/2000/svg" viewBox="0 0 164.8 43.76"><defs><style>.a{fill:#f6f7f7;}.b{fill:#0d97ff;}</style></defs><title>ch1100%</title><path class="a" d="M3.69,6.13c0,.45.42.76,2.61.76s2.34-.14,2.34-.48S8.34,6,6.16,5.89C2,5.76.38,5.07.38,2.91S2.38,0,6,0s5.66.87,5.66,3.24H8.24c0-.49-.79-.59-2.47-.59s-1.95.08-1.95.44.33.34,2.34.42c3.66.15,5.92.4,5.92,2.82S10,9.54,6.16,9.54.24,8.89.24,6.13Z"/><path class="a" d="M20.25,7.73H16.31L15.67,9.4H11.88L15.73.13h5.11L24.68,9.4H20.89Zm-.9-2.38L18.28,2.52,17.21,5.35Z"/><path class="a" d="M34.41,3.05h-4V9.4H27V3.05H23V.13H34.41Z"/><path class="a" d="M47.8.13,44,9.4H38.85L35,.13h3.78L41.4,7,44,.13Z"/><path class="a" d="M51.84,9.4H48.39V.13h3.45Z"/><path class="a" d="M60,4.5l5.34,4.9H60.54l-3-2.94L56.14,7.64V9.4H52.7V.13h3.44V3.76L60.41.13h4.9Z"/><path class="a" d="M74.27,7.73h-4L69.69,9.4H65.9L69.74.13h5.11L78.69,9.4H74.91Zm-.9-2.38L72.3,2.52,71.22,5.35Z"/><path class="b" d="M13,22.26a4,4,0,0,1,.81,2.58,3.73,3.73,0,0,1-1.57,3.21,7.84,7.84,0,0,1-4.58,1.13H0V13.11H7.21a7.17,7.17,0,0,1,4.26,1.1A3.58,3.58,0,0,1,13,17.26a4,4,0,0,1-.59,2.18,3.73,3.73,0,0,1-1.57,1.4A4.11,4.11,0,0,1,13,22.26ZM2.3,15v5.14H7a4.81,4.81,0,0,0,2.72-.65,2.18,2.18,0,0,0,.95-1.92,2.18,2.18,0,0,0-.95-1.92A4.81,4.81,0,0,0,7,15Zm8.21,11.7a2.22,2.22,0,0,0,1-2Q11.5,22,7.57,22H2.3v5.35H7.57A5.41,5.41,0,0,0,10.51,26.67Z"/><path class="b" d="M15.37,14.26a1.41,1.41,0,0,1,0-2,1.42,1.42,0,0,1,1.06-.43,1.48,1.48,0,0,1,1.07.4,1.3,1.3,0,0,1,.43,1,1.43,1.43,0,0,1-.43,1.05,1.45,1.45,0,0,1-1.07.42A1.48,1.48,0,0,1,15.37,14.26Zm0,2.75h2.21V29.18H15.33Z"/><path class="b" d="M30.2,18.24a5.28,5.28,0,0,1,1.36,3.94v7h-2.2V22.43a3.74,3.74,0,0,0-.85-2.66,3.19,3.19,0,0,0-2.43-.9,3.82,3.82,0,0,0-2.83,1,4.09,4.09,0,0,0-1,3v6.27H20V17h2.11v1.84a4.25,4.25,0,0,1,1.8-1.45,6.25,6.25,0,0,1,2.58-.5A5,5,0,0,1,30.2,18.24Z"/><path class="b" d="M45.47,12.14v17H43.36V27.25a4.88,4.88,0,0,1-1.86,1.54,5.8,5.8,0,0,1-2.48.52,6.42,6.42,0,0,1-3.17-.78,5.62,5.62,0,0,1-2.19-2.19,6.49,6.49,0,0,1-.79-3.25,6.42,6.42,0,0,1,.79-3.23,5.6,5.6,0,0,1,2.19-2.18A6.42,6.42,0,0,1,39,16.9a5.8,5.8,0,0,1,2.41.49,4.61,4.61,0,0,1,1.84,1.46V12.14ZM41.29,26.85a3.77,3.77,0,0,0,1.47-1.52,5,5,0,0,0,0-4.47,3.69,3.69,0,0,0-1.47-1.51,4.41,4.41,0,0,0-4.19,0,3.73,3.73,0,0,0-1.46,1.51,4.9,4.9,0,0,0,0,4.47,3.82,3.82,0,0,0,1.46,1.52,4.33,4.33,0,0,0,4.19,0Z"/><path class="b" d="M58.11,18.24a5.28,5.28,0,0,1,1.36,3.94v7h-2.2V22.43a3.7,3.7,0,0,0-.85-2.66,3.19,3.19,0,0,0-2.43-.9,3.82,3.82,0,0,0-2.83,1,4.09,4.09,0,0,0-1,3v6.27h-2.2v-17h2.2v6.59a4.56,4.56,0,0,1,1.8-1.35,6.21,6.21,0,0,1,2.49-.48A5,5,0,0,1,58.11,18.24Z"/><path class="b" d="M72.37,17l-5.9,13.38A6,6,0,0,1,64.65,33a4.22,4.22,0,0,1-2.51.76,5.38,5.38,0,0,1-1.74-.29A3.53,3.53,0,0,1,59,32.64L60,31a3.08,3.08,0,0,0,2.19.9,2.13,2.13,0,0,0,1.34-.43,3.59,3.59,0,0,0,1-1.46l.39-.85L59.47,17h2.3L66,26.74,70.22,17Z"/><path class="b" d="M80.62,18.14A4.75,4.75,0,0,1,82,21.83v7.35H79.88V27.57a3.49,3.49,0,0,1-1.57,1.3,6,6,0,0,1-2.43.44,5.06,5.06,0,0,1-3.27-1,3.4,3.4,0,0,1,0-5.18,5.76,5.76,0,0,1,3.71-1h3.49v-.44a2.8,2.8,0,0,0-.82-2.18,3.46,3.46,0,0,0-2.44-.76,6.37,6.37,0,0,0-2.11.36,5.18,5.18,0,0,0-1.74.95l-.92-1.65A6.66,6.66,0,0,1,74,17.3a9.34,9.34,0,0,1,2.78-.4A5.46,5.46,0,0,1,80.62,18.14Zm-2.19,8.91a3.16,3.16,0,0,0,1.33-1.59v-1.7H76.37c-1.87,0-2.8.63-2.8,1.88a1.7,1.7,0,0,0,.71,1.45,3.25,3.25,0,0,0,2,.53A4,4,0,0,0,78.43,27.05Z"/><path class="b" d="M102.51,17,98,29.18H95.85L92.34,20l-3.56,9.23H86.67L82.15,17h2.09l3.53,9.69L91.45,17h1.86l3.6,9.73L100.54,17Z"/><path class="b" d="M110.92,18.14a4.75,4.75,0,0,1,1.35,3.69v7.35h-2.09V27.57a3.49,3.49,0,0,1-1.57,1.3,6,6,0,0,1-2.43.44,5.06,5.06,0,0,1-3.27-1,3.39,3.39,0,0,1,0-5.18,5.76,5.76,0,0,1,3.71-1h3.49v-.44a2.8,2.8,0,0,0-.82-2.18,3.48,3.48,0,0,0-2.44-.76,6.37,6.37,0,0,0-2.11.36,5.18,5.18,0,0,0-1.74.95L102,18.46a6.66,6.66,0,0,1,2.25-1.16,9.34,9.34,0,0,1,2.78-.4A5.46,5.46,0,0,1,110.92,18.14Zm-2.19,8.91a3.16,3.16,0,0,0,1.33-1.59v-1.7h-3.39c-1.87,0-2.8.63-2.8,1.88a1.7,1.7,0,0,0,.71,1.45,3.25,3.25,0,0,0,2,.53A4,4,0,0,0,108.73,27.05Z"/><path class="b" d="M115.25,28.91a6.21,6.21,0,0,1-2.16-1l.92-1.74a6.52,6.52,0,0,0,1.95.91,8.06,8.06,0,0,0,2.32.35c1.93,0,2.89-.55,2.89-1.65a1.09,1.09,0,0,0-.39-.88,2.51,2.51,0,0,0-1-.47c-.39-.1-1-.21-1.67-.33a15.78,15.78,0,0,1-2.4-.53,3.62,3.62,0,0,1-1.59-1,2.77,2.77,0,0,1-.67-2,3.13,3.13,0,0,1,1.38-2.66,6.22,6.22,0,0,1,3.7-1,10.62,10.62,0,0,1,2.43.29,6.51,6.51,0,0,1,2,.81L122,19.74a6.32,6.32,0,0,0-3.51-1,4,4,0,0,0-2.13.46,1.38,1.38,0,0,0-.74,1.21,1.17,1.17,0,0,0,.42.95,2.7,2.7,0,0,0,1,.5c.4.11,1,.23,1.71.37a18.73,18.73,0,0,1,2.37.54,3.5,3.5,0,0,1,1.55,1,2.71,2.71,0,0,1,.65,1.93A3.06,3.06,0,0,1,122,28.34a6.66,6.66,0,0,1-3.84,1A10.1,10.1,0,0,1,115.25,28.91Z"/><path class="b" d="M124.44,14.26a1.44,1.44,0,0,1,0-2,1.44,1.44,0,0,1,1.07-.43,1.5,1.5,0,0,1,1.07.4,1.33,1.33,0,0,1,.42,1,1.44,1.44,0,0,1-1.49,1.47A1.5,1.5,0,0,1,124.44,14.26Zm0,2.75h2.2V29.18h-2.2Z"/><path class="b" d="M139.27,18.24a5.28,5.28,0,0,1,1.37,3.94v7h-2.21V22.43a3.7,3.7,0,0,0-.85-2.66,3.16,3.16,0,0,0-2.43-.9,3.81,3.81,0,0,0-2.82,1,4.1,4.1,0,0,0-1,3v6.27h-2.2V17h2.11v1.84A4.38,4.38,0,0,1,133,17.4a6.27,6.27,0,0,1,2.59-.5A5,5,0,0,1,139.27,18.24Z"/><path class="b" d="M143,14.26a1.41,1.41,0,0,1,0-2,1.4,1.4,0,0,1,1.06-.43,1.48,1.48,0,0,1,1.07.4,1.33,1.33,0,0,1,.42,1A1.51,1.51,0,0,1,143,14.26ZM143,17h2.2V29.18H143Z"/><path class="b" d="M148.3,28.91a6.15,6.15,0,0,1-2.15-1l.91-1.74a6.52,6.52,0,0,0,1.95.91,8.06,8.06,0,0,0,2.32.35c1.93,0,2.9-.55,2.9-1.65a1.1,1.1,0,0,0-.4-.88,2.51,2.51,0,0,0-1-.47c-.39-.1-1-.21-1.66-.33a15.78,15.78,0,0,1-2.4-.53,3.65,3.65,0,0,1-1.6-1,2.81,2.81,0,0,1-.66-2,3.12,3.12,0,0,1,1.37-2.66,6.22,6.22,0,0,1,3.7-1,10.62,10.62,0,0,1,2.43.29,6.51,6.51,0,0,1,2,.81l-.94,1.74a6.37,6.37,0,0,0-3.51-1,4,4,0,0,0-2.14.46,1.37,1.37,0,0,0-.73,1.21,1.16,1.16,0,0,0,.41.95,2.78,2.78,0,0,0,1,.5c.41.11,1,.23,1.71.37a19.37,19.37,0,0,1,2.38.54,3.55,3.55,0,0,1,1.55,1,2.76,2.76,0,0,1,.64,1.93A3,3,0,0,1,155,28.34a6.69,6.69,0,0,1-3.85,1A10.15,10.15,0,0,1,148.3,28.91Z"/><path class="b" d="M30.23,43A5.84,5.84,0,0,1,28,40.74a6.6,6.6,0,0,1,0-6.41,5.81,5.81,0,0,1,2.28-2.2,6.82,6.82,0,0,1,3.32-.79,6.43,6.43,0,0,1,3,.66,4.86,4.86,0,0,1,2,1.93L36.83,35a3.77,3.77,0,0,0-1.42-1.31,4.09,4.09,0,0,0-1.88-.43,4.36,4.36,0,0,0-2.15.52,3.8,3.8,0,0,0-1.49,1.51,4.53,4.53,0,0,0-.54,2.24,4.61,4.61,0,0,0,.54,2.26,3.71,3.71,0,0,0,1.49,1.5,4.36,4.36,0,0,0,2.15.53,4.1,4.1,0,0,0,1.88-.44,3.69,3.69,0,0,0,1.42-1.31l1.68,1.06a4.88,4.88,0,0,1-2,1.94,6.32,6.32,0,0,1-3,.68A6.72,6.72,0,0,1,30.23,43Z"/><path class="b" d="M41.4,43a5.79,5.79,0,0,1-2.26-2.21,6.67,6.67,0,0,1,0-6.41,5.76,5.76,0,0,1,2.26-2.2,7.1,7.1,0,0,1,6.51,0,5.87,5.87,0,0,1,2.25,2.2,6.75,6.75,0,0,1,0,6.41A5.9,5.9,0,0,1,47.91,43a6.95,6.95,0,0,1-6.51,0Zm5.36-1.66a3.88,3.88,0,0,0,1.46-1.52,5.06,5.06,0,0,0,0-4.47,3.86,3.86,0,0,0-1.46-1.51,4.5,4.5,0,0,0-4.2,0,3.88,3.88,0,0,0-1.47,1.51,4.9,4.9,0,0,0,0,4.47,3.91,3.91,0,0,0,1.47,1.52,4.35,4.35,0,0,0,4.2,0Z"/><path class="b" d="M62.48,32.68a5.3,5.3,0,0,1,1.37,3.94v7H61.64V36.87a3.7,3.7,0,0,0-.85-2.66,3.16,3.16,0,0,0-2.43-.9,3.78,3.78,0,0,0-2.82,1,4.05,4.05,0,0,0-1,3v6.27H52.3V31.45h2.11v1.84a4.34,4.34,0,0,1,1.81-1.45,6.35,6.35,0,0,1,2.58-.5A5,5,0,0,1,62.48,32.68Z"/><path class="b" d="M66.83,43.35a6,6,0,0,1-2.16-1l.92-1.74a6.78,6.78,0,0,0,2,.92,8,8,0,0,0,2.32.34c1.93,0,2.89-.55,2.89-1.65a1.06,1.06,0,0,0-.39-.87,2.26,2.26,0,0,0-1-.47c-.39-.1-1-.22-1.67-.34A15.61,15.61,0,0,1,67.33,38a3.56,3.56,0,0,1-1.6-1,2.82,2.82,0,0,1-.67-2,3.11,3.11,0,0,1,1.38-2.65,6.15,6.15,0,0,1,3.7-1,10.1,10.1,0,0,1,2.43.3,6.51,6.51,0,0,1,2,.8l-.94,1.74a6.38,6.38,0,0,0-3.52-1,4,4,0,0,0-2.13.46,1.38,1.38,0,0,0-.73,1.22,1.15,1.15,0,0,0,.41.94,2.57,2.57,0,0,0,1,.5c.4.11,1,.23,1.71.37a19.37,19.37,0,0,1,2.38.54,3.46,3.46,0,0,1,1.54,1A2.73,2.73,0,0,1,75,40.15a3,3,0,0,1-1.41,2.63,6.71,6.71,0,0,1-3.85,1A10.16,10.16,0,0,1,66.83,43.35Z"/><path class="b" d="M82.83,42.91a3.46,3.46,0,0,1-1.19.63,5.23,5.23,0,0,1-1.47.22,3.89,3.89,0,0,1-2.85-1,3.78,3.78,0,0,1-1-2.82V33.27H74.25V31.45h2.06V28.79h2.21v2.66H82v1.82H78.52v6.58A2.14,2.14,0,0,0,79,41.37a1.85,1.85,0,0,0,1.41.53,2.61,2.61,0,0,0,1.72-.58Z"/><path class="b" d="M87.58,31.89a6.12,6.12,0,0,1,2.73-.55v2.13l-.5,0A3.7,3.7,0,0,0,87,34.52a4.22,4.22,0,0,0-1,3v6.06h-2.2V31.45h2.11V33.5A3.79,3.79,0,0,1,87.58,31.89Z"/><path class="b" d="M102.8,31.45V43.62h-2.09V41.78A4.34,4.34,0,0,1,99,43.24a5.49,5.49,0,0,1-2.37.52,5.28,5.28,0,0,1-3.83-1.35,5.2,5.2,0,0,1-1.4-4v-7h2.2V38.2a3.78,3.78,0,0,0,.85,2.68,3.18,3.18,0,0,0,2.43.9,3.67,3.67,0,0,0,2.76-1.05,4.18,4.18,0,0,0,1-3V31.45Z"/><path class="b" d="M107.26,43A5.84,5.84,0,0,1,105,40.74a6.6,6.6,0,0,1,0-6.41,5.81,5.81,0,0,1,2.28-2.2,6.84,6.84,0,0,1,3.32-.79,6.41,6.41,0,0,1,3,.66,4.86,4.86,0,0,1,2,1.93L113.86,35a3.7,3.7,0,0,0-1.42-1.31,4.06,4.06,0,0,0-1.88-.43,4.39,4.39,0,0,0-2.15.52,3.86,3.86,0,0,0-1.49,1.51,4.53,4.53,0,0,0-.54,2.24,4.61,4.61,0,0,0,.54,2.26,3.77,3.77,0,0,0,1.49,1.5,4.39,4.39,0,0,0,2.15.53,4.07,4.07,0,0,0,1.88-.44,3.62,3.62,0,0,0,1.42-1.31l1.68,1.06a4.88,4.88,0,0,1-2,1.94,6.29,6.29,0,0,1-3,.68A6.75,6.75,0,0,1,107.26,43Z"/><path class="b" d="M123.66,42.91a3.46,3.46,0,0,1-1.19.63,5.13,5.13,0,0,1-1.47.22,3.88,3.88,0,0,1-2.84-1,3.74,3.74,0,0,1-1-2.82V33.27h-2.07V31.45h2.07V28.79h2.2v2.66h3.49v1.82h-3.49v6.58a2.14,2.14,0,0,0,.49,1.52,1.85,1.85,0,0,0,1.41.53,2.64,2.64,0,0,0,1.73-.58Z"/><path class="b" d="M124.64,28.7a1.38,1.38,0,0,1-.43-1,1.4,1.4,0,0,1,.43-1,1.42,1.42,0,0,1,1.07-.43,1.5,1.5,0,0,1,1.06.4,1.3,1.3,0,0,1,.43,1,1.41,1.41,0,0,1-.43,1.05,1.43,1.43,0,0,1-1.06.42A1.49,1.49,0,0,1,124.64,28.7Zm0,2.75h2.2V43.62h-2.2Z"/><path class="b" d="M131.24,43A5.72,5.72,0,0,1,129,40.74a6.67,6.67,0,0,1,0-6.41,5.7,5.7,0,0,1,2.26-2.2,7.1,7.1,0,0,1,6.51,0,5.87,5.87,0,0,1,2.25,2.2,6.75,6.75,0,0,1,0,6.41A5.9,5.9,0,0,1,137.75,43a6.95,6.95,0,0,1-6.51,0Zm5.36-1.66a3.88,3.88,0,0,0,1.46-1.52,5.06,5.06,0,0,0,0-4.47,3.86,3.86,0,0,0-1.46-1.51,4.5,4.5,0,0,0-4.2,0,3.88,3.88,0,0,0-1.47,1.51,4.9,4.9,0,0,0,0,4.47,3.91,3.91,0,0,0,1.47,1.52,4.35,4.35,0,0,0,4.2,0Z"/><path class="b" d="M152.32,32.68a5.3,5.3,0,0,1,1.37,3.94v7h-2.21V36.87a3.7,3.7,0,0,0-.85-2.66,3.16,3.16,0,0,0-2.43-.9,3.78,3.78,0,0,0-2.82,1,4.06,4.06,0,0,0-1,3v6.27h-2.2V31.45h2.11v1.84a4.34,4.34,0,0,1,1.81-1.45,6.35,6.35,0,0,1,2.58-.5A5,5,0,0,1,152.32,32.68Z"/><path class="b" d="M156.67,43.35a6,6,0,0,1-2.16-1l.92-1.74a6.78,6.78,0,0,0,1.95.92,8,8,0,0,0,2.32.34c1.93,0,2.89-.55,2.89-1.65a1.06,1.06,0,0,0-.39-.87,2.26,2.26,0,0,0-1-.47c-.39-.1-.95-.22-1.67-.34a15.78,15.78,0,0,1-2.4-.53,3.58,3.58,0,0,1-1.59-1,2.82,2.82,0,0,1-.67-2,3.11,3.11,0,0,1,1.38-2.65,6.15,6.15,0,0,1,3.7-1,10.1,10.1,0,0,1,2.43.3,6.51,6.51,0,0,1,2,.8l-.94,1.74a6.38,6.38,0,0,0-3.52-1,4,4,0,0,0-2.13.46,1.39,1.39,0,0,0-.74,1.22,1.16,1.16,0,0,0,.42.94,2.57,2.57,0,0,0,1,.5c.4.11,1,.23,1.71.37a18.73,18.73,0,0,1,2.37.54,3.44,3.44,0,0,1,1.55,1,2.73,2.73,0,0,1,.65,1.93,3,3,0,0,1-1.41,2.63,6.71,6.71,0,0,1-3.85,1A10.16,10.16,0,0,1,156.67,43.35Z"/></svg>