<svg xmlns="http://www.w3.org/2000/svg" viewBox="0 0 128.4 31.71"><defs><style>.a{fill:#0d97ff;}.b{fill:#f6f7f7;}</style></defs><title>ch3100%</title><path class="a" d="M68.88,15.46h2.3V31.57h-2.3Z"/><path class="a" d="M88.14,15.46V31.57H86.26l-9.67-12v12h-2.3V15.46h1.88l9.67,12v-12Z"/><path class="a" d="M91.25,15.46H98a9.87,9.87,0,0,1,4.53,1,7.51,7.51,0,0,1,3.08,2.85,8.11,8.11,0,0,1,1.09,4.2,8.11,8.11,0,0,1-1.09,4.2,7.49,7.49,0,0,1-3.08,2.84,9.87,9.87,0,0,1-4.53,1H91.25ZM97.9,29.57a7.39,7.39,0,0,0,3.44-.76,5.55,5.55,0,0,0,2.29-2.13,6.09,6.09,0,0,0,.81-3.16,6.1,6.1,0,0,0-.81-3.17,5.55,5.55,0,0,0-2.29-2.13,7.51,7.51,0,0,0-3.44-.76H93.55V29.57Z"/><path class="a" d="M108.53,15.46h2.31V31.57h-2.31Z"/><path class="a" d="M124.21,27.54h-8.56l-1.78,4H111.5l7.3-16.11h2.28l7.32,16.11H126Zm-.81-1.84-3.47-7.89-3.48,7.89Z"/><path class="b" d="M4,2.34H0V0H10.8V2.34h-4V12.4H4Z"/><path class="b" d="M18.91,12.4,16.52,8.94H13.88V12.4H11V0h5.36a6.82,6.82,0,0,1,2.86.55,4.25,4.25,0,0,1,1.87,1.56,4.26,4.26,0,0,1,.66,2.39,4.23,4.23,0,0,1-.67,2.38,4.15,4.15,0,0,1-1.88,1.53l2.78,4Zm-.72-9.5a3,3,0,0,0-2-.56H13.88V6.66h2.34a3,3,0,0,0,2-.57,2,2,0,0,0,.67-1.59A2,2,0,0,0,18.19,2.9Z"/><path class="b" d="M22.7,0h2.87V12.4H22.7Z"/><path class="b" d="M38.55,0V12.4H36.2L30,4.87V12.4H27.18V0h2.38l6.16,7.53V0Z"/><path class="b" d="M40.17,0H43V12.4H40.17Z"/><path class="b" d="M47.21,2.34h-4V0h10.8V2.34h-4V12.4H47.21Z"/><path class="b" d="M60,8v4.4H57.11V8l-4.8-8h3l3.31,5.51L62,0H64.8Z"/><path class="a" d="M8.88,30.86a3.46,3.46,0,0,1-1.19.63,4.91,4.91,0,0,1-1.48.22,3.89,3.89,0,0,1-2.85-1,3.75,3.75,0,0,1-1-2.83v-6.7H.27V19.37H2.35V16.7H4.56v2.67H8.05v1.82H4.56V27.8a2.15,2.15,0,0,0,.49,1.52,1.85,1.85,0,0,0,1.42.52,2.66,2.66,0,0,0,1.72-.57Z"/><path class="a" d="M13.65,19.81a6.12,6.12,0,0,1,2.73-.55V21.4a3.48,3.48,0,0,0-.5,0,3.69,3.69,0,0,0-2.82,1.07,4.22,4.22,0,0,0-1,3v6.08H9.83V19.37h2.11v2.05A3.81,3.81,0,0,1,13.65,19.81Z"/><path class="a" d="M25.67,20.5A4.79,4.79,0,0,1,27,24.21v7.36h-2.1V30a3.49,3.49,0,0,1-1.57,1.3,6.06,6.06,0,0,1-2.43.45,5.07,5.07,0,0,1-3.28-1,3.41,3.41,0,0,1-.06-5.19,5.8,5.8,0,0,1,3.73-1h3.5v-.44A2.8,2.8,0,0,0,24,21.93a3.48,3.48,0,0,0-2.44-.76,6.68,6.68,0,0,0-2.12.35,5.54,5.54,0,0,0-1.75,1l-.92-1.66A6.8,6.8,0,0,1,19,19.66a9.34,9.34,0,0,1,2.78-.4A5.51,5.51,0,0,1,25.67,20.5Zm-2.2,8.94a3.2,3.2,0,0,0,1.34-1.6v-1.7H21.4c-1.87,0-2.81.63-2.81,1.89a1.72,1.72,0,0,0,.72,1.45,3.26,3.26,0,0,0,2,.53A4,4,0,0,0,23.47,29.44Z"/><path class="a" d="M41,14.49V31.57H38.85V29.64A4.82,4.82,0,0,1,37,31.18a5.81,5.81,0,0,1-2.48.53,6.46,6.46,0,0,1-3.18-.78,5.67,5.67,0,0,1-2.2-2.2,6.56,6.56,0,0,1-.79-3.26,6.43,6.43,0,0,1,.79-3.24A5.58,5.58,0,0,1,31.32,20a6.46,6.46,0,0,1,3.18-.78,5.8,5.8,0,0,1,2.41.49,4.69,4.69,0,0,1,1.84,1.46V14.49ZM36.78,29.23a3.81,3.81,0,0,0,1.47-1.51,5,5,0,0,0,0-4.49,3.75,3.75,0,0,0-1.47-1.51,4.25,4.25,0,0,0-2.1-.53,4.2,4.2,0,0,0-2.1.53,3.77,3.77,0,0,0-1.48,1.51,4.94,4.94,0,0,0,0,4.49,3.84,3.84,0,0,0,1.48,1.51,4,4,0,0,0,2.1.55A4.07,4.07,0,0,0,36.78,29.23Z"/><path class="a" d="M54.4,26.21H44.51a3.86,3.86,0,0,0,1.41,2.59,4.65,4.65,0,0,0,3,1,4.55,4.55,0,0,0,3.52-1.48l1.22,1.43a5.29,5.29,0,0,1-2.06,1.47,7.13,7.13,0,0,1-2.75.51,7.32,7.32,0,0,1-3.43-.79,5.58,5.58,0,0,1-2.31-2.23,6.3,6.3,0,0,1-.82-3.22,6.46,6.46,0,0,1,.79-3.2,5.7,5.7,0,0,1,2.19-2.22,6.21,6.21,0,0,1,3.14-.79,6.08,6.08,0,0,1,3.12.79,5.58,5.58,0,0,1,2.14,2.22,6.81,6.81,0,0,1,.77,3.27A4.68,4.68,0,0,1,54.4,26.21Zm-8.64-4.12a3.89,3.89,0,0,0-1.25,2.53h7.82a3.91,3.91,0,0,0-1.25-2.52,4.12,4.12,0,0,0-5.32,0Z"/><path class="a" d="M56.41,31.31a6.36,6.36,0,0,1-2.17-1l.92-1.75a6.47,6.47,0,0,0,2,.92,8.07,8.07,0,0,0,2.33.35c1.93,0,2.9-.55,2.9-1.66a1.06,1.06,0,0,0-.4-.87,2.39,2.39,0,0,0-1-.48c-.4-.09-.95-.21-1.67-.33a15.94,15.94,0,0,1-2.41-.53,3.8,3.8,0,0,1-1.6-1,2.84,2.84,0,0,1-.66-2A3.13,3.13,0,0,1,56,20.26a6.15,6.15,0,0,1,3.7-1,10.19,10.19,0,0,1,2.44.3,6.51,6.51,0,0,1,2,.8l-.94,1.75a6.38,6.38,0,0,0-3.52-1,4,4,0,0,0-2.14.47,1.38,1.38,0,0,0-.74,1.22,1.16,1.16,0,0,0,.42.94,2.44,2.44,0,0,0,1,.5c.41.11,1,.23,1.71.37a19.16,19.16,0,0,1,2.39.54,3.67,3.67,0,0,1,1.55,1,2.74,2.74,0,0,1,.64,1.94,3,3,0,0,1-1.41,2.63,6.7,6.7,0,0,1-3.86,1A10.53,10.53,0,0,1,56.41,31.31Z"/></svg>