<svg xmlns="http://www.w3.org/2000/svg" viewBox="0 0 158.3 33.12"><defs><style>.a{fill:black;}.b{fill:#0d97ff;}</style></defs><title>ch4100%</title><path class="a" d="M3.44,6.13c0,.45.43.76,2.61.76S8.4,6.75,8.4,6.41,8.09,6,5.92,5.89C1.74,5.76.13,5.07.13,2.91S2.13,0,5.79,0s5.65.87,5.65,3.24H8c0-.49-.8-.59-2.48-.59s-1.94.08-1.94.44.33.34,2.34.42c3.66.15,5.92.4,5.92,2.82S9.72,9.54,5.92,9.54,0,8.89,0,6.13Z"/><path class="a" d="M20,7.73h-4L15.43,9.4H11.64L15.48.13h5.11L24.43,9.4H20.65Zm-.9-2.38L18,2.52,17,5.35Z"/><path class="a" d="M34.17,3.05h-4V9.4H26.75V3.05h-4V.13H34.17Z"/><path class="a" d="M47.55.13,43.71,9.4H38.6L34.76.13h3.79L41.16,7,43.77.13Z"/><path class="a" d="M51.59,9.4H48.15V.13h3.44Z"/><path class="a" d="M59.72,4.5l5.34,4.9H60.29l-3-2.94L55.9,7.64V9.4H52.45V.13H55.9V3.76L60.16.13h4.9Z"/><path class="a" d="M74,7.73H70.08L69.44,9.4H65.65L69.5.13h5.11L78.45,9.4H74.66Zm-.9-2.38L72.05,2.52,71,5.35Z"/><path class="b" d="M96.9,26.66v2H85.21V12.55H96.57v2H87.51V19.5h8.08v1.95H87.51v5.21Z"/><path class="b" d="M117.48,17.68a5.34,5.34,0,0,1,1.35,4v7h-2.21V21.89a3.83,3.83,0,0,0-.82-2.67,3,3,0,0,0-2.33-.9,3.49,3.49,0,0,0-2.67,1.05,4.22,4.22,0,0,0-1,3v6.28H107.6V21.89a3.83,3.83,0,0,0-.82-2.67,3,3,0,0,0-2.33-.9,3.49,3.49,0,0,0-2.67,1.05,4.22,4.22,0,0,0-1,3v6.28H98.58V16.46h2.11v1.82a4.32,4.32,0,0,1,1.75-1.44,5.89,5.89,0,0,1,2.47-.49,5.45,5.45,0,0,1,2.53.57,4,4,0,0,1,1.7,1.68,4.66,4.66,0,0,1,1.92-1.66,6.41,6.41,0,0,1,2.78-.59A4.93,4.93,0,0,1,117.48,17.68Z"/><path class="b" d="M130.82,17.13a5.62,5.62,0,0,1,2.2,2.18,6.49,6.49,0,0,1,.79,3.25,6.56,6.56,0,0,1-.79,3.26,5.58,5.58,0,0,1-2.2,2.19,6.33,6.33,0,0,1-3.18.79,5.61,5.61,0,0,1-2.4-.51,5,5,0,0,1-1.85-1.47v6.3h-2.21V16.46h2.11v1.93a4.87,4.87,0,0,1,1.87-1.53,6,6,0,0,1,2.48-.51A6.43,6.43,0,0,1,130.82,17.13Zm-1.25,9.19A3.84,3.84,0,0,0,131,24.8a4.92,4.92,0,0,0,0-4.48,3.75,3.75,0,0,0-1.47-1.51,4.26,4.26,0,0,0-2.11-.53,4.06,4.06,0,0,0-2.08.54,4,4,0,0,0-1.48,1.51,4.49,4.49,0,0,0-.54,2.23,4.66,4.66,0,0,0,.53,2.24,3.8,3.8,0,0,0,1.48,1.52,4.12,4.12,0,0,0,2.09.54A4.17,4.17,0,0,0,129.57,26.32Z"/><path class="b" d="M135.18,13.7a1.37,1.37,0,0,1-.42-1,1.43,1.43,0,0,1,.42-1,1.6,1.6,0,0,1,2.14,0,1.3,1.3,0,0,1,.43,1,1.43,1.43,0,0,1-.43,1,1.59,1.59,0,0,1-2.14,0Zm0,2.76h2.21v12.2h-2.21Z"/><path class="b" d="M143.66,16.9a6.17,6.17,0,0,1,2.74-.55v2.14a3.25,3.25,0,0,0-.5,0,3.72,3.72,0,0,0-2.82,1.07,4.22,4.22,0,0,0-1,3v6.08h-2.21V16.46H142v2.05A3.74,3.74,0,0,1,143.66,16.9Z"/><path class="b" d="M158.25,23.3h-9.89a3.88,3.88,0,0,0,1.41,2.59,4.65,4.65,0,0,0,3,1,4.54,4.54,0,0,0,3.52-1.47l1.22,1.43a5.4,5.4,0,0,1-2.06,1.47,7.13,7.13,0,0,1-2.75.51,7.21,7.21,0,0,1-3.43-.8A5.62,5.62,0,0,1,147,25.78a6.3,6.3,0,0,1-.82-3.22,6.46,6.46,0,0,1,.79-3.2,5.7,5.7,0,0,1,2.19-2.22,6.21,6.21,0,0,1,3.14-.79,6.08,6.08,0,0,1,3.12.79,5.58,5.58,0,0,1,2.14,2.22,6.81,6.81,0,0,1,.77,3.27C158.3,22.8,158.28,23,158.25,23.3Zm-8.64-4.12a3.87,3.87,0,0,0-1.25,2.53h7.82a3.91,3.91,0,0,0-1.25-2.52,4.12,4.12,0,0,0-5.32,0Z"/><path class="b" d="M14.8,12.55V28.66H12.91l-9.66-12v12H.94V12.55H2.83l9.67,12v-12Z"/><path class="b" d="M28.56,23.3H18.67a3.8,3.8,0,0,0,1.41,2.58,4.59,4.59,0,0,0,3,1,4.54,4.54,0,0,0,3.53-1.47l1.22,1.43a5.48,5.48,0,0,1-2.06,1.47A7.72,7.72,0,0,1,19.59,28a5.71,5.71,0,0,1-2.32-2.22,6.39,6.39,0,0,1-.81-3.22,6.46,6.46,0,0,1,.79-3.2,5.7,5.7,0,0,1,2.19-2.22,6.6,6.6,0,0,1,6.26,0,5.65,5.65,0,0,1,2.14,2.22,6.81,6.81,0,0,1,.77,3.27C28.61,22.8,28.59,23,28.56,23.3Zm-8.64-4.12a3.87,3.87,0,0,0-1.25,2.53h7.82a3.91,3.91,0,0,0-1.25-2.52,3.82,3.82,0,0,0-2.66-1A3.79,3.79,0,0,0,19.92,19.18Z"/><path class="b" d="M37.38,28.66,33.86,24l-3.57,4.67H27.83l4.81-6.24-4.58-6h2.46l3.36,4.4,3.34-4.4h2.41l-4.6,6,4.86,6.24Z"/><path class="b" d="M51.88,20.51h2.21v6.28a8.56,8.56,0,0,1-2.79,1.52,10.2,10.2,0,0,1-3.31.53,9,9,0,0,1-4.4-1.07,7.89,7.89,0,0,1-3.07-2.94A8.06,8.06,0,0,1,39.4,20.6a8.11,8.11,0,0,1,1.12-4.23,7.81,7.81,0,0,1,3.08-3A9.86,9.86,0,0,1,51.54,13a7.12,7.12,0,0,1,2.68,1.85L52.8,16.28a6.48,6.48,0,0,0-4.68-1.87,6.83,6.83,0,0,0-3.3.8,5.73,5.73,0,0,0-2.29,2.21,6.49,6.49,0,0,0,0,6.35A6,6,0,0,0,44.82,26a6.67,6.67,0,0,0,3.28.8,6.86,6.86,0,0,0,3.78-1Z"/><path class="b" d="M67.41,23.3h-9.9a3.81,3.81,0,0,0,1.42,2.58,4.59,4.59,0,0,0,3,1,4.52,4.52,0,0,0,3.52-1.47l1.22,1.43a5.32,5.32,0,0,1-2.06,1.47,7.09,7.09,0,0,1-2.75.51,7.17,7.17,0,0,1-3.42-.8,5.71,5.71,0,0,1-2.32-2.22,6.39,6.39,0,0,1-.81-3.22,6.46,6.46,0,0,1,.79-3.2,5.7,5.7,0,0,1,2.19-2.22,6.6,6.6,0,0,1,6.26,0,5.65,5.65,0,0,1,2.14,2.22,6.81,6.81,0,0,1,.77,3.27C67.46,22.8,67.44,23,67.41,23.3Zm-8.64-4.12a3.92,3.92,0,0,0-1.26,2.53h7.83a3.91,3.91,0,0,0-1.25-2.52,4.12,4.12,0,0,0-5.32,0Z"/><path class="b" d="M79,17.69a5.31,5.31,0,0,1,1.37,3.95v7H78.16V21.89a3.79,3.79,0,0,0-.85-2.67,3.2,3.2,0,0,0-2.44-.9A3.79,3.79,0,0,0,72,19.37a4.1,4.1,0,0,0-1,3v6.29H68.79V16.46h2.12V18.3a4.28,4.28,0,0,1,1.81-1.45,6.25,6.25,0,0,1,2.58-.5A5,5,0,0,1,79,17.69Z"/></svg>