<svg xmlns="http://www.w3.org/2000/svg" viewBox="0 0 133.11 28.86"><defs><style>.a{fill:#f6f7f7;}.b{fill:#ebcfa7;}</style></defs><title>ch5100%</title><path class="a" d="M2.44,12.42a6.68,6.68,0,0,1-2.21-1l1-2.16a6.88,6.88,0,0,0,1.9.94,7.27,7.27,0,0,0,2.2.35,3.52,3.52,0,0,0,1.8-.36,1.11,1.11,0,0,0,.59-1,.92.92,0,0,0-.35-.73A2.53,2.53,0,0,0,6.46,8Q5.92,7.81,5,7.6a20.81,20.81,0,0,1-2.32-.68A3.76,3.76,0,0,1,1.12,5.84a2.89,2.89,0,0,1-.64-2,3.47,3.47,0,0,1,.58-2A4,4,0,0,1,2.82.51,7.27,7.27,0,0,1,5.7,0,9.45,9.45,0,0,1,8,.28a6.76,6.76,0,0,1,2,.82L9.12,3.28a6.89,6.89,0,0,0-3.43-1,3.19,3.19,0,0,0-1.78.39,1.18,1.18,0,0,0-.58,1A1,1,0,0,0,4,4.67a11.06,11.06,0,0,0,2,.61A19.82,19.82,0,0,1,8.34,6,3.84,3.84,0,0,1,9.89,7a2.87,2.87,0,0,1,.65,2,3.37,3.37,0,0,1-.6,1.94,3.92,3.92,0,0,1-1.78,1.39,7.27,7.27,0,0,1-2.88.51A10,10,0,0,1,2.44,12.42Z"/><path class="a" d="M11.17.21H14v12.4H11.17Z"/><path class="a" d="M18.22,2.55h-4V.21h10.8V2.55h-4V12.61H18.22Z"/><path class="a" d="M32.82,10H27.06L26,12.61H23L28.55.21h2.83l5.55,12.4h-3Zm-.91-2.18L30,3,28,7.77Z"/><path class="b" d="M3.29,28A6.09,6.09,0,0,1,.88,25.75a6.65,6.65,0,0,1,0-6.61,6.09,6.09,0,0,1,2.41-2.28A7.11,7.11,0,0,1,6.73,16a7.2,7.2,0,0,1,2.91.57,5.83,5.83,0,0,1,2.19,1.63L10,19.93a4,4,0,0,0-3.12-1.45,4.18,4.18,0,0,0-2,.5,3.61,3.61,0,0,0-1.41,1.41,4.4,4.4,0,0,0,0,4.11,3.61,3.61,0,0,0,1.41,1.41,4.18,4.18,0,0,0,2.05.5A4,4,0,0,0,10,24.94l1.84,1.7a5.74,5.74,0,0,1-2.2,1.65,7.21,7.21,0,0,1-2.92.57A7.09,7.09,0,0,1,3.29,28Z"/><path class="b" d="M14.69,28a6.23,6.23,0,0,1-2.43-2.29,6.64,6.64,0,0,1,0-6.57,6.16,6.16,0,0,1,2.43-2.29A7.17,7.17,0,0,1,18.17,16a7.13,7.13,0,0,1,3.47.84,6.42,6.42,0,0,1,2.43,8.86A6.23,6.23,0,0,1,21.64,28a7.13,7.13,0,0,1-3.47.84A7.17,7.17,0,0,1,14.69,28Zm5.46-2.11a3.62,3.62,0,0,0,1.39-1.41,4.4,4.4,0,0,0,0-4.11A3.62,3.62,0,0,0,20.15,19a4.17,4.17,0,0,0-4,0,3.62,3.62,0,0,0-1.39,1.41,4.4,4.4,0,0,0,0,4.11,3.62,3.62,0,0,0,1.39,1.41,4.17,4.17,0,0,0,4,0Z"/><path class="b" d="M37.16,16.25V28.64H34.8l-6.18-7.52v7.52H25.79V16.25h2.37l6.16,7.52V16.25Z"/><path class="b" d="M40,28.46a6.69,6.69,0,0,1-2.21-1l1-2.16a6.68,6.68,0,0,0,1.89.94,7,7,0,0,0,2.2.35,3.52,3.52,0,0,0,1.8-.36,1.1,1.1,0,0,0,.59-1,.92.92,0,0,0-.35-.73A2.53,2.53,0,0,0,44,24c-.36-.12-.85-.25-1.46-.39A19.82,19.82,0,0,1,40.24,23a3.82,3.82,0,0,1-1.55-1.08,2.94,2.94,0,0,1-.65-2,3.42,3.42,0,0,1,.59-1.95,3.8,3.8,0,0,1,1.76-1.39A7,7,0,0,1,43.27,16a9.51,9.51,0,0,1,2.32.29,7.09,7.09,0,0,1,2,.81l-.89,2.18a6.88,6.88,0,0,0-3.43-1,3.19,3.19,0,0,0-1.78.39,1.17,1.17,0,0,0-.58,1,1,1,0,0,0,.67.95,10,10,0,0,0,2,.61A22,22,0,0,1,45.9,22a3.8,3.8,0,0,1,1.55,1.07,2.84,2.84,0,0,1,.65,2A3.41,3.41,0,0,1,47.51,27a4,4,0,0,1-1.78,1.39,7.32,7.32,0,0,1-2.89.52A10.31,10.31,0,0,1,40,28.46Z"/><path class="b" d="M51.13,18.58h-4V16.25H58v2.33H54V28.64H51.13Z"/><path class="b" d="M66.08,28.64l-2.39-3.45H61.05v3.45H58.18V16.25h5.36a7,7,0,0,1,2.86.54,4.12,4.12,0,0,1,2.53,3.95,4.17,4.17,0,0,1-.67,2.39,4.28,4.28,0,0,1-1.88,1.53l2.78,4Zm-.73-9.5a3,3,0,0,0-2-.56H61.05V22.9h2.33a3,3,0,0,0,2-.56,2,2,0,0,0,.67-1.6A2,2,0,0,0,65.35,19.14Z"/><path class="b" d="M71.24,27.39a5.65,5.65,0,0,1-1.48-4.2V16.25h2.87v6.83q0,3.33,2.76,3.33a2.63,2.63,0,0,0,2.06-.8,3.79,3.79,0,0,0,.7-2.53V16.25H81v6.94a5.69,5.69,0,0,1-1.48,4.2,6.55,6.55,0,0,1-8.27,0Z"/><path class="b" d="M85,28a6.15,6.15,0,0,1-2.41-2.28,6.65,6.65,0,0,1,0-6.61A6.15,6.15,0,0,1,85,16.86a7.64,7.64,0,0,1,6.36-.26,5.88,5.88,0,0,1,2.18,1.63l-1.84,1.7a4,4,0,0,0-3.12-1.45,4.2,4.2,0,0,0-2,.5,3.67,3.67,0,0,0-1.41,1.41,4.47,4.47,0,0,0,0,4.11,3.67,3.67,0,0,0,1.41,1.41,4.2,4.2,0,0,0,2,.5,4,4,0,0,0,3.12-1.47l1.84,1.7a5.78,5.78,0,0,1-2.19,1.65,7.28,7.28,0,0,1-2.92.57A7.1,7.1,0,0,1,85,28Z"/><path class="b" d="M96.59,18.58h-4V16.25h10.81v2.33h-4V28.64H96.59Z"/><path class="b" d="M103.64,16.25h2.87V28.64h-2.87Z"/><path class="b" d="M110.64,28a6.14,6.14,0,0,1-2.42-2.29,6.57,6.57,0,0,1,0-6.57,6.07,6.07,0,0,1,2.42-2.29,7.22,7.22,0,0,1,3.48-.84,7.1,7.1,0,0,1,3.47.84A6.39,6.39,0,0,1,120,25.73,6.23,6.23,0,0,1,117.59,28a7.1,7.1,0,0,1-3.47.84A7.22,7.22,0,0,1,110.64,28Zm5.47-2.11a3.69,3.69,0,0,0,1.39-1.41,4.47,4.47,0,0,0,0-4.11A3.69,3.69,0,0,0,116.11,19a4.19,4.19,0,0,0-4,0,3.69,3.69,0,0,0-1.39,1.41,4.4,4.4,0,0,0,0,4.11,3.69,3.69,0,0,0,1.39,1.41,4.19,4.19,0,0,0,4,0Z"/><path class="b" d="M133.11,16.25V28.64h-2.36l-6.18-7.52v7.52h-2.83V16.25h2.37l6.16,7.52V16.25Z"/></svg>