<svg xmlns="http://www.w3.org/2000/svg" viewBox="0 0 420 433"><defs><style>.a{fill:#313193;}.b{opacity:0.66;}.c{fill:#fff;}.d{opacity:0.8;}.e{opacity:0.6;}.f{opacity:0.4;}.g{opacity:0.2;}.h{opacity:0.08;}</style></defs><title>flexsection</title><rect class="a" width="420" height="433"/><g class="b"><path class="c" d="M90.54,68.78l-1.83-.07c-8-.31-9-.4-9-1.69s1.24-1.83,9-1.83c7.46,0,11.5.41,11.5,2.58V68H117v-.25c0-10.67-8.61-15.65-27.09-15.65-18.22,0-27.08,4.61-27.08,14.08,0,10.1,7,13.74,27.71,14.39,10.11.31,11.51.58,11.51,2.2,0,1.42-1.51,2-10.88,2C81.09,84.81,79,83.47,79,81.47v-.25H62.19v.25c0,13.66,10.84,16.41,28.34,16.41,17,0,28.35-2.63,28.35-15.46C118.88,70.75,108.17,69.48,90.54,68.78Zm0,28.6c-17.08,0-27.71-2.63-27.84-15.66H78.54c.15,2.22,2.48,3.59,12.62,3.59,9.73,0,11.38-.63,11.38-2.52,0-2.17-1.66-2.38-12-2.7-20.35-.64-27.22-4.15-27.22-13.89,0-9.14,8.69-13.58,26.58-13.58s26.45,4.74,26.59,14.9H100.64c-.26-2.38-4.29-2.83-12-2.83-7.47,0-9.49.29-9.49,2.33,0,1.82,1.45,1.88,9.53,2.19l1.83.07c17.33.69,27.86,1.92,27.86,13.14C118.38,94.83,107.25,97.38,90.53,97.38Z"/><path class="c" d="M148.05,63.61,142.59,78H153.5Zm0,1.41,4.73,12.5h-9.46Zm0-1.41L142.59,78H153.5Zm0,1.41,4.73,12.5h-9.46Zm12.29-12.27H135.75l-18.43,44.5h18.52l3-7.92h18.39l3,7.92h18.52Zm-2.76,36.08H138.51l-3,7.92H118.06l18-43.5H160l18,43.5H160.6ZM142.59,78H153.5l-5.45-14.41Zm.73-.5L148.05,65l4.73,12.5Z"/><path class="c" d="M170.3,52.75V67.08h18.86V97.25H206V67.08h18.85V52.75Zm54,13.83H205.5V96.75H189.66V66.58H170.8V53.25h53.55Z"/><path class="c" d="M270,52.75,257.79,85l-12.2-32.23H227.06l18.44,44.5h24.59l18.44-44.5Zm-.24,44H245.83l-18-43.5h17.43l12.55,33.14,12.56-33.14h17.43Z"/><path class="c" d="M290.74,52.75v44.5h16.84V52.75Zm16.34,44H291.24V53.25h15.84Z"/><path class="c" d="M372,52.75H347.9L328,69.68V52.75H311.16v44.5H328V88.76l6.53-5.38,14,13.87h23.37L346.3,73.75Zm-1.34,44H348.72l-14.16-14-7.06,5.81v8.23H311.66V53.25H327.5V70.76l20.58-17.51h22.47l-25,20.48Z"/><path class="c" d="M404.44,63.61,399,78h10.9Zm0,1.41,4.73,12.5h-9.46Zm0-1.41L399,78h10.9Zm0,1.41,4.73,12.5h-9.46ZM420,61.94V60.62l-3.26-7.87h-24.6l-18.43,44.5h18.52l3-7.92h18.38l3,7.92H420v-.5h-3l-3-7.92H394.9l-3,7.92H374.46l18-43.5H416.4ZM409.89,78l-5.45-14.41L399,78Zm-.72-.5h-9.46L404.44,65Z"/><g class="d"><path class="c" d="M90.54,125.78l-1.83-.07c-8-.31-9-.4-9-1.69s1.24-1.83,9-1.83c7.46,0,11.5.41,11.5,2.58V125H117v-.25c0-10.67-8.61-15.65-27.09-15.65-18.22,0-27.08,4.61-27.08,14.08,0,10.1,7,13.74,27.71,14.39,10.11.31,11.51.58,11.51,2.2,0,1.42-1.51,2-10.88,2-10.07,0-12.13-1.34-12.13-3.34v-.25H62.19v.25c0,13.66,10.84,16.41,28.34,16.41,17,0,28.35-2.63,28.35-15.46C118.88,127.75,108.17,126.48,90.54,125.78Zm0,28.6c-17.08,0-27.71-2.63-27.84-15.66H78.54c.15,2.22,2.48,3.59,12.62,3.59,9.73,0,11.38-.63,11.38-2.52,0-2.17-1.66-2.38-12-2.7-20.35-.64-27.22-4.15-27.22-13.89,0-9.14,8.69-13.58,26.58-13.58s26.45,4.74,26.59,14.9H100.64c-.26-2.38-4.29-2.83-12-2.83-7.47,0-9.49.29-9.49,2.33,0,1.82,1.45,1.88,9.53,2.19l1.83.07c17.33.69,27.86,1.92,27.86,13.14C118.38,151.83,107.25,154.38,90.53,154.38Z"/><path class="c" d="M148.05,120.61,142.59,135H153.5Zm0,1.41,4.73,12.5h-9.46Zm0-1.41L142.59,135H153.5Zm0,1.41,4.73,12.5h-9.46Zm12.29-12.27H135.75l-18.43,44.5h18.52l3-7.92h18.39l3,7.92h18.52Zm-2.76,36.08H138.51l-3,7.92H118.06l18-43.5H160l18,43.5H160.6Zm-15-10.81H153.5l-5.45-14.41Zm.73-.5,4.73-12.5,4.73,12.5Z"/><path class="c" d="M170.3,109.75v14.33h18.86v30.17H206V124.08h18.85V109.75Zm54,13.83H205.5v30.17H189.66V123.58H170.8V110.25h53.55Z"/><path class="c" d="M270,109.75,257.79,142l-12.2-32.23H227.06l18.44,44.5h24.59l18.44-44.5Zm-.24,44H245.83l-18-43.5h17.43l12.55,33.14,12.56-33.14h17.43Z"/><path class="c" d="M290.74,109.75v44.5h16.84v-44.5Zm16.34,44H291.24v-43.5h15.84Z"/><path class="c" d="M372,109.75H347.9L328,126.68V109.75H311.16v44.5H328v-8.49l6.53-5.38,14,13.87h23.37l-25.59-23.5Zm-1.34,44H348.72l-14.16-14-7.06,5.81v8.23H311.66v-43.5H327.5v17.51l20.58-17.51h22.47l-25,20.48Z"/><path class="c" d="M404.44,120.61,399,135h10.9Zm0,1.41,4.73,12.5h-9.46Zm0-1.41L399,135h10.9Zm0,1.41,4.73,12.5h-9.46ZM420,118.94v-1.32l-3.26-7.87h-24.6l-18.43,44.5h18.52l3-7.92h18.38l3,7.92H420v-.5h-3l-3-7.92H394.9l-3,7.92H374.46l18-43.5H416.4ZM409.89,135l-5.45-14.41L399,135Zm-.72-.5h-9.46l4.73-12.5Z"/></g><g class="e"><path class="c" d="M90.54,181.78l-1.83-.07c-8-.31-9-.4-9-1.69s1.24-1.83,9-1.83c7.46,0,11.5.41,11.5,2.58V181H117v-.25c0-10.67-8.61-15.65-27.09-15.65-18.22,0-27.08,4.61-27.08,14.08,0,10.1,7,13.74,27.71,14.39,10.11.31,11.51.58,11.51,2.2,0,1.42-1.51,2-10.88,2-10.07,0-12.13-1.34-12.13-3.34v-.25H62.19v.25c0,13.66,10.84,16.41,28.34,16.41,17,0,28.35-2.63,28.35-15.46C118.88,183.75,108.17,182.48,90.54,181.78Zm0,28.6c-17.08,0-27.71-2.63-27.84-15.66H78.54c.15,2.22,2.48,3.59,12.62,3.59,9.73,0,11.38-.63,11.38-2.52,0-2.17-1.66-2.38-12-2.7-20.35-.64-27.22-4.15-27.22-13.89,0-9.14,8.69-13.58,26.58-13.58s26.45,4.74,26.59,14.9H100.64c-.26-2.38-4.29-2.83-12-2.83-7.47,0-9.49.29-9.49,2.33,0,1.82,1.45,1.88,9.53,2.19l1.83.07c17.33.69,27.86,1.92,27.86,13.14C118.38,207.83,107.25,210.38,90.53,210.38Z"/><path class="c" d="M148.05,176.61,142.59,191H153.5Zm0,1.41,4.73,12.5h-9.46Zm0-1.41L142.59,191H153.5Zm0,1.41,4.73,12.5h-9.46Zm12.29-12.27H135.75l-18.43,44.5h18.52l3-7.92h18.39l3,7.92h18.52Zm-2.76,36.08H138.51l-3,7.92H118.06l18-43.5H160l18,43.5H160.6Zm-15-10.81H153.5l-5.45-14.41Zm.73-.5,4.73-12.5,4.73,12.5Z"/><path class="c" d="M170.3,165.75v14.33h18.86v30.17H206V180.08h18.85V165.75Zm54,13.83H205.5v30.17H189.66V179.58H170.8V166.25h53.55Z"/><path class="c" d="M270,165.75,257.79,198l-12.2-32.23H227.06l18.44,44.5h24.59l18.44-44.5Zm-.24,44H245.83l-18-43.5h17.43l12.55,33.14,12.56-33.14h17.43Z"/><path class="c" d="M290.74,165.75v44.5h16.84v-44.5Zm16.34,44H291.24v-43.5h15.84Z"/><path class="c" d="M372,165.75H347.9L328,182.68V165.75H311.16v44.5H328v-8.49l6.53-5.38,14,13.87h23.37l-25.59-23.5Zm-1.34,44H348.72l-14.16-14-7.06,5.81v8.23H311.66v-43.5H327.5v17.51l20.58-17.51h22.47l-25,20.48Z"/><path class="c" d="M404.44,176.61,399,191h10.9Zm0,1.41,4.73,12.5h-9.46Zm0-1.41L399,191h10.9Zm0,1.41,4.73,12.5h-9.46ZM420,174.94v-1.32l-3.26-7.87h-24.6l-18.43,44.5h18.52l3-7.92h18.38l3,7.92H420v-.5h-3l-3-7.92H394.9l-3,7.92H374.46l18-43.5H416.4ZM409.89,191l-5.45-14.41L399,191Zm-.72-.5h-9.46l4.73-12.5Z"/></g><g class="f"><path class="c" d="M90.54,237.78l-1.83-.07c-8-.31-9-.4-9-1.69s1.24-1.83,9-1.83c7.46,0,11.5.41,11.5,2.58V237H117v-.25c0-10.67-8.61-15.65-27.09-15.65-18.22,0-27.08,4.61-27.08,14.08,0,10.1,7,13.74,27.71,14.39,10.11.31,11.51.58,11.51,2.2,0,1.42-1.51,2-10.88,2-10.07,0-12.13-1.34-12.13-3.34v-.25H62.19v.25c0,13.66,10.84,16.41,28.34,16.41,17,0,28.35-2.63,28.35-15.46C118.88,239.75,108.17,238.48,90.54,237.78Zm0,28.6c-17.08,0-27.71-2.63-27.84-15.66H78.54c.15,2.22,2.48,3.59,12.62,3.59,9.73,0,11.38-.63,11.38-2.52,0-2.17-1.66-2.38-12-2.7-20.35-.64-27.22-4.15-27.22-13.89,0-9.14,8.69-13.58,26.58-13.58s26.45,4.74,26.59,14.9H100.64c-.26-2.38-4.29-2.83-12-2.83-7.47,0-9.49.29-9.49,2.33,0,1.82,1.45,1.88,9.53,2.19l1.83.07c17.33.69,27.86,1.92,27.86,13.14C118.38,263.83,107.25,266.38,90.53,266.38Z"/><path class="c" d="M148.05,232.61,142.59,247H153.5Zm0,1.41,4.73,12.5h-9.46Zm0-1.41L142.59,247H153.5Zm0,1.41,4.73,12.5h-9.46Zm12.29-12.27H135.75l-18.43,44.5h18.52l3-7.92h18.39l3,7.92h18.52Zm-2.76,36.08H138.51l-3,7.92H118.06l18-43.5H160l18,43.5H160.6Zm-15-10.81H153.5l-5.45-14.41Zm.73-.5,4.73-12.5,4.73,12.5Z"/><path class="c" d="M170.3,221.75v14.33h18.86v30.17H206V236.08h18.85V221.75Zm54,13.83H205.5v30.17H189.66V235.58H170.8V222.25h53.55Z"/><path class="c" d="M270,221.75,257.79,254l-12.2-32.23H227.06l18.44,44.5h24.59l18.44-44.5Zm-.24,44H245.83l-18-43.5h17.43l12.55,33.14,12.56-33.14h17.43Z"/><path class="c" d="M290.74,221.75v44.5h16.84v-44.5Zm16.34,44H291.24v-43.5h15.84Z"/><path class="c" d="M372,221.75H347.9L328,238.68V221.75H311.16v44.5H328v-8.49l6.53-5.38,14,13.87h23.37l-25.59-23.5Zm-1.34,44H348.72l-14.16-14-7.06,5.81v8.23H311.66v-43.5H327.5v17.51l20.58-17.51h22.47l-25,20.48Z"/><path class="c" d="M404.44,232.61,399,247h10.9Zm0,1.41,4.73,12.5h-9.46Zm0-1.41L399,247h10.9Zm0,1.41,4.73,12.5h-9.46ZM420,230.94v-1.32l-3.26-7.87h-24.6l-18.43,44.5h18.52l3-7.92h18.38l3,7.92H420v-.5h-3l-3-7.92H394.9l-3,7.92H374.46l18-43.5H416.4ZM409.89,247l-5.45-14.41L399,247Zm-.72-.5h-9.46l4.73-12.5Z"/></g><g class="g"><path class="c" d="M90.54,294.78l-1.83-.07c-8-.31-9-.4-9-1.69s1.24-1.83,9-1.83c7.46,0,11.5.41,11.5,2.58V294H117v-.25c0-10.67-8.61-15.65-27.09-15.65-18.22,0-27.08,4.61-27.08,14.08,0,10.1,7,13.74,27.71,14.39,10.11.31,11.51.58,11.51,2.2,0,1.42-1.51,2-10.88,2-10.07,0-12.13-1.34-12.13-3.34v-.25H62.19v.25c0,13.66,10.84,16.41,28.34,16.41,17,0,28.35-2.63,28.35-15.46C118.88,296.75,108.17,295.48,90.54,294.78Zm0,28.6c-17.08,0-27.71-2.63-27.84-15.66H78.54c.15,2.22,2.48,3.59,12.62,3.59,9.73,0,11.38-.63,11.38-2.52,0-2.17-1.66-2.38-12-2.7-20.35-.64-27.22-4.15-27.22-13.89,0-9.14,8.69-13.58,26.58-13.58s26.45,4.74,26.59,14.9H100.64c-.26-2.38-4.29-2.83-12-2.83-7.47,0-9.49.29-9.49,2.33,0,1.82,1.45,1.88,9.53,2.19l1.83.07c17.33.69,27.86,1.92,27.86,13.14C118.38,320.83,107.25,323.38,90.53,323.38Z"/><path class="c" d="M148.05,289.61,142.59,304H153.5Zm0,1.41,4.73,12.5h-9.46Zm0-1.41L142.59,304H153.5Zm0,1.41,4.73,12.5h-9.46Zm12.29-12.27H135.75l-18.43,44.5h18.52l3-7.92h18.39l3,7.92h18.52Zm-2.76,36.08H138.51l-3,7.92H118.06l18-43.5H160l18,43.5H160.6Zm-15-10.81H153.5l-5.45-14.41Zm.73-.5,4.73-12.5,4.73,12.5Z"/><path class="c" d="M170.3,278.75v14.33h18.86v30.17H206V293.08h18.85V278.75Zm54,13.83H205.5v30.17H189.66V292.58H170.8V279.25h53.55Z"/><path class="c" d="M270,278.75,257.79,311l-12.2-32.23H227.06l18.44,44.5h24.59l18.44-44.5Zm-.24,44H245.83l-18-43.5h17.43l12.55,33.14,12.56-33.14h17.43Z"/><path class="c" d="M290.74,278.75v44.5h16.84v-44.5Zm16.34,44H291.24v-43.5h15.84Z"/><path class="c" d="M372,278.75H347.9L328,295.68V278.75H311.16v44.5H328v-8.49l6.53-5.38,14,13.87h23.37l-25.59-23.5Zm-1.34,44H348.72l-14.16-14-7.06,5.81v8.23H311.66v-43.5H327.5v17.51l20.58-17.51h22.47l-25,20.48Z"/><path class="c" d="M404.44,289.61,399,304h10.9Zm0,1.41,4.73,12.5h-9.46Zm0-1.41L399,304h10.9Zm0,1.41,4.73,12.5h-9.46ZM420,287.94v-1.32l-3.26-7.87h-24.6l-18.43,44.5h18.52l3-7.92h18.38l3,7.92H420v-.5h-3l-3-7.92H394.9l-3,7.92H374.46l18-43.5H416.4ZM409.89,304l-5.45-14.41L399,304Zm-.72-.5h-9.46l4.73-12.5Z"/></g><g class="h"><path class="c" d="M90.54,351.78l-1.83-.07c-8-.31-9-.4-9-1.69s1.24-1.83,9-1.83c7.46,0,11.5.41,11.5,2.58V351H117v-.25c0-10.67-8.61-15.65-27.09-15.65-18.22,0-27.08,4.61-27.08,14.08,0,10.1,7,13.74,27.71,14.39,10.11.31,11.51.58,11.51,2.2,0,1.42-1.51,2-10.88,2-10.07,0-12.13-1.34-12.13-3.34v-.25H62.19v.25c0,13.66,10.84,16.41,28.34,16.41,17,0,28.35-2.63,28.35-15.46C118.88,353.75,108.17,352.48,90.54,351.78Zm0,28.6c-17.08,0-27.71-2.63-27.84-15.66H78.54c.15,2.22,2.48,3.59,12.62,3.59,9.73,0,11.38-.63,11.38-2.52,0-2.17-1.66-2.38-12-2.7-20.35-.64-27.22-4.15-27.22-13.89,0-9.14,8.69-13.58,26.58-13.58s26.45,4.74,26.59,14.9H100.64c-.26-2.38-4.29-2.83-12-2.83-7.47,0-9.49.29-9.49,2.33,0,1.82,1.45,1.88,9.53,2.19l1.83.07c17.33.69,27.86,1.92,27.86,13.14C118.38,377.83,107.25,380.38,90.53,380.38Z"/><path class="c" d="M148.05,346.61,142.59,361H153.5Zm0,1.41,4.73,12.5h-9.46Zm0-1.41L142.59,361H153.5Zm0,1.41,4.73,12.5h-9.46Zm12.29-12.27H135.75l-18.43,44.5h18.52l3-7.92h18.39l3,7.92h18.52Zm-2.76,36.08H138.51l-3,7.92H118.06l18-43.5H160l18,43.5H160.6Zm-15-10.81H153.5l-5.45-14.41Zm.73-.5,4.73-12.5,4.73,12.5Z"/><path class="c" d="M170.3,335.75v14.33h18.86v30.17H206V350.08h18.85V335.75Zm54,13.83H205.5v30.17H189.66V349.58H170.8V336.25h53.55Z"/><path class="c" d="M270,335.75,257.79,368l-12.2-32.23H227.06l18.44,44.5h24.59l18.44-44.5Zm-.24,44H245.83l-18-43.5h17.43l12.55,33.14,12.56-33.14h17.43Z"/><path class="c" d="M290.74,335.75v44.5h16.84v-44.5Zm16.34,44H291.24v-43.5h15.84Z"/><path class="c" d="M372,335.75H347.9L328,352.68V335.75H311.16v44.5H328v-8.49l6.53-5.38,14,13.87h23.37l-25.59-23.5Zm-1.34,44H348.72l-14.16-14-7.06,5.81v8.23H311.66v-43.5H327.5v17.51l20.58-17.51h22.47l-25,20.48Z"/><path class="c" d="M404.44,346.61,399,361h10.9Zm0,1.41,4.73,12.5h-9.46Zm0-1.41L399,361h10.9Zm0,1.41,4.73,12.5h-9.46ZM420,344.94v-1.32l-3.26-7.87h-24.6l-18.43,44.5h18.52l3-7.92h18.38l3,7.92H420v-.5h-3l-3-7.92H394.9l-3,7.92H374.46l18-43.5H416.4ZM409.89,361l-5.45-14.41L399,361Zm-.72-.5h-9.46l4.73-12.5Z"/></g></g></svg>