<svg xmlns="http://www.w3.org/2000/svg" viewBox="0 0 109.49 28.8"><defs><style>.a{fill:#f6f7f7;}.b{fill:#ebcfa7;}</style></defs><title>ch2100%</title><path class="a" d="M3.44,6.13c0,.45.43.76,2.61.76S8.4,6.75,8.4,6.41,8.09,6,5.92,5.89C1.74,5.76.13,5.07.13,2.91S2.13,0,5.79,0s5.65.87,5.65,3.24H8c0-.49-.8-.59-2.48-.59s-1.94.08-1.94.44.33.34,2.34.42c3.66.15,5.92.4,5.92,2.82S9.72,9.54,5.92,9.54,0,8.89,0,6.13Z"/><path class="a" d="M20,7.73h-4L15.43,9.4H11.64L15.48.13h5.11L24.43,9.4H20.65Zm-.9-2.38L18,2.52,17,5.35Z"/><path class="a" d="M34.17,3.05h-4V9.4H26.75V3.05h-4V.13H34.17Z"/><path class="a" d="M47.55.13,43.71,9.4H38.6L34.76.13h3.79L41.16,7,43.77.13Z"/><path class="a" d="M51.59,9.4H48.15V.13h3.44Z"/><path class="a" d="M59.72,4.5l5.34,4.9H60.29l-3-2.94L55.9,7.64V9.4H52.45V.13H55.9V3.76L60.16.13h4.9Z"/><path class="a" d="M74,7.73H70.08L69.44,9.4H65.65L69.5.13h5.11L78.45,9.4H74.66Zm-.9-2.38L72.05,2.52,71,5.35Z"/><path class="b" d="M50,12.55h2.3V28.66H50Z"/><path class="b" d="M69.23,12.55V28.66H67.35l-9.67-12v12h-2.3V12.55h1.89l9.66,12v-12Z"/><path class="b" d="M72.34,12.55h6.79a9.92,9.92,0,0,1,4.54,1,7.52,7.52,0,0,1,3.07,2.84,8,8,0,0,1,1.09,4.2,8,8,0,0,1-1.09,4.2,7.55,7.55,0,0,1-3.07,2.85,9.92,9.92,0,0,1-4.54,1H72.34ZM79,26.66a7.51,7.51,0,0,0,3.44-.76,5.49,5.49,0,0,0,2.29-2.13,6.13,6.13,0,0,0,.81-3.17,6.09,6.09,0,0,0-.81-3.16,5.49,5.49,0,0,0-2.29-2.13A7.39,7.39,0,0,0,79,14.55H74.64V26.66Z"/><path class="b" d="M89.63,12.55h2.3V28.66h-2.3Z"/><path class="b" d="M105.3,24.63H96.74l-1.78,4H92.59l7.3-16.11h2.28l7.32,16.11h-2.42Zm-.81-1.84L101,14.9l-3.48,7.89Z"/><path class="b" d="M.66,13.7a1.35,1.35,0,0,1-.43-1,1.4,1.4,0,0,1,.43-1,1.45,1.45,0,0,1,1.07-.42,1.5,1.5,0,0,1,1.07.4,1.33,1.33,0,0,1,.42,1,1.44,1.44,0,0,1-1.49,1.47A1.49,1.49,0,0,1,.66,13.7Zm0,2.76H2.83v12.2H.62Z"/><path class="b" d="M15.52,17.69a5.27,5.27,0,0,1,1.37,3.95v7H14.68V21.89a3.74,3.74,0,0,0-.85-2.67,3.2,3.2,0,0,0-2.44-.9,3.8,3.8,0,0,0-2.83,1.05,4.1,4.1,0,0,0-1,3v6.28H5.32V16.46H7.43V18.3a4.34,4.34,0,0,1,1.81-1.45,6.27,6.27,0,0,1,2.59-.5A5,5,0,0,1,15.52,17.69Z"/><path class="b" d="M21.75,15.4v1.06h3.54v1.82H21.8V28.66H19.59V18.28H17.51V16.46h2.08V15.38a3.92,3.92,0,0,1,1.05-2.88,4.05,4.05,0,0,1,3-1.06,4.7,4.7,0,0,1,1.38.19,3.36,3.36,0,0,1,1.11.53l-.67,1.68a2.69,2.69,0,0,0-1.7-.58C22.41,13.26,21.75,14,21.75,15.4Z"/><path class="b" d="M31.32,16.9a6.17,6.17,0,0,1,2.74-.55v2.14a3.25,3.25,0,0,0-.5,0,3.72,3.72,0,0,0-2.82,1.07,4.22,4.22,0,0,0-1,3v6.08H27.5V16.46h2.12v2.05A3.74,3.74,0,0,1,31.32,16.9Z"/><path class="b" d="M43.35,17.59a4.78,4.78,0,0,1,1.34,3.7v7.37H42.6V27.05A3.53,3.53,0,0,1,41,28.35a6,6,0,0,1-2.42.45,5.07,5.07,0,0,1-3.28-1,3.41,3.41,0,0,1-.06-5.19,5.72,5.72,0,0,1,3.73-1h3.5V21.2A2.84,2.84,0,0,0,41.66,19a3.55,3.55,0,0,0-2.44-.75,6.41,6.41,0,0,0-2.12.35,5.54,5.54,0,0,0-1.75,1l-.92-1.66a6.62,6.62,0,0,1,2.26-1.16,9.34,9.34,0,0,1,2.78-.4A5.51,5.51,0,0,1,43.35,17.59Zm-2.2,8.94a3.3,3.3,0,0,0,1.34-1.6v-1.7H39.08c-1.87,0-2.81.63-2.81,1.88A1.71,1.71,0,0,0,37,26.56a3.23,3.23,0,0,0,2,.53A4.06,4.06,0,0,0,41.15,26.53Z"/></svg>