<svg xmlns="http://www.w3.org/2000/svg" viewBox="0 0 1920 190"><defs><style>.cls-1{isolation:isolate;}.cls-2{fill:#2e67dd;}.cls-3{mix-blend-mode:overlay;opacity:0.6;}.cls-4{fill:none;stroke:#7ecdc5;stroke-linecap:round;stroke-linejoin:round;stroke-width:0.5px;}</style></defs><g class="cls-1"><g id="Layer_1" data-name="Layer 1"><rect class="cls-2" width="1920" height="190"/><g class="cls-3"><path class="cls-4" d="M275.17,191.64C189,188,103,191,17.09,187.9"/><path class="cls-4" d="M1538.89,191.65a807.67,807.67,0,0,1-87.17-27.48c-28.65-10.68-56.79-22.66-85.06-34.29-28.1-11.55-56.4-22.71-85.36-31.93S1222.58,82,1193.07,74.56s-58.51-17-88-24.43-59.47-11.93-89.93-10.59c-29.82,1.32-58.88,8.27-86.72,18.85s-53.94,24.38-79.82,38.74c-26.51,14.71-53,29.09-80.31,42.36-26.92,13.11-53.19,27.16-79.4,41.63-6.4,3.53-12.81,7-19.27,10.45"/><path class="cls-4" d="M1919.18,189.57q-13.5.83-27,2.06"/><path class="cls-4" d="M297,191.63C286,189,274,190,263,190c-31-1-63-2-94,0-51,2-101-2-151.95-2.14"/><path class="cls-4" d="M1531.85,191.57C1522,187,1511,187,1500,184c-28-9-55-18-82-29-27-10-55-20-82-31-15-6-30-11-46-16-22-7-43-11-66-17-38-8-72-18-109-29-5-1-9-2-14-3-1,0-3-2-4-2-68-19-139-20-202,13-2,1-5,0-7,1-56,28-109,55-165,84-21,12-41,25-62.86,36.46"/><path class="cls-4" d="M1919.07,188.86c-9.58.53-19.12,1.61-28.64,2.74"/><path class="cls-4" d="M308.94,191.63C289,186,268,187,248,187c-29-1-57,0-86,2-48,2-97-1-144.91-1"/><path class="cls-4" d="M1523.75,191.62C1506,185,1486,185,1468,176h-5c-58-18-111-39-169-57-2,0-5,1-7,0-34-14-71-15-107-25-23-6-45-13-67-21a321.13,321.13,0,0,0-97-24c-14-2-29-1-43-1-12,1-24,3-37,5-23,4-43,13-64,22-68,29-131,62-196,102-9,5-19,8-27.23,14.56"/><path class="cls-4" d="M1919.07,189.33c-11.77.47-23.52,1.33-35.26,2.3"/><path class="cls-4" d="M316.52,191.56C303,189,288,188,273,188c-85-3-171,1-255.91-.1"/><path class="cls-4" d="M1509.09,191.57C1497,186,1484,187,1472,183c-1,0-2-2-3-2-11-3-21-6-31-9-6-2-12-3-18-5-30-9-59-19-90-28-3-1-5-3-8-4-5-1-11-1-16-3-1-1-2-2-3-2-36-10-69-13-106-20-13-3-25-7-37-10-64-21-125-54-194-51a275.57,275.57,0,0,0-63,10c-14,4-27,9-41,14-50,21-96,44-143,73-3,2-6,2-9,4-23,14-45,28-68.39,41.38"/><path class="cls-4" d="M1919.47,188.49a263.84,263.84,0,0,0-31.48,3.15"/><path class="cls-4" d="M326,191.57C288,183,249,183,211,184c-65,3-129,4-193.9,3.9"/><path class="cls-4" d="M1497.54,191.57C1470,184,1443,178,1415,169c-3-1-7-1-10-2a7.58,7.58,0,0,0-4-2c-3-1-7-1-10-2-63-22-126-31-192-41a116.27,116.27,0,0,1-18-4c-9-3-17-5-26-8-11-4-21-9-32-12-5-2-10-6-15-8-15-6-30-10-45-16a299.39,299.39,0,0,0-58-18c-30-7-58-8-88-3-35,6-66,18-97,33-4,2-9,3-14,5-32,14-60,31-90,49a127.35,127.35,0,0,0-19,13c-14,10-28,16-43,26-8,4-15,8-22.83,12.4"/><path class="cls-4" d="M1919,189a275.49,275.49,0,0,0-34.08,2.63"/><path class="cls-4" d="M335.39,191.64C315,187,295,185,275,184c-46-3-91,1-137,3-40,2-81,1-120.91.95"/><path class="cls-4" d="M1482.44,191.57C1464,185,1446,184,1427,179l-9-3c-1,0-3-2-4-2-9-2-19-3-28-5-8-3-15-4-23-7-12-3-24-7-37-8-3,0-5-2-7-3-23-6-46-9-69-12-37-4-74-9-109-24-2-1-3,0-5-1l-12-6c-2-1-3,0-5-1-5-3-10-5-15-9-7-4-15-5-22-8-36-16-72-32-112-37A285.79,285.79,0,0,0,813,83c-5,2-10,3-15,5-21,10-40,20-60,32-32,20-59,39-91,58-9,5-18,9-26.3,13.56"/><path class="cls-4" d="M1919.49,189.51c-16.43.38-33-.59-49.29,2.12"/><path class="cls-4" d="M344,191.51A459.84,459.84,0,0,0,266,182c-39-2-79,2-118,4-44,1-87,3-130.92,2"/><path class="cls-4" d="M1465.29,191.6C1376,171,1287,150,1196,144c-15-5-31-8-46-15-2-1-3,0-5-1-38-17-74-35-112-53-2-1-3,0-5-1-11-6-23-9-35-13-20-6-40-8-61-10-65-4-124,24-181,55l-15,9c-9,7-18,11-28,18-8,7-16,12-25,18-3,1-6,3-9,4-20,13-38,26-59.47,36.49"/><path class="cls-4" d="M1919,188.8c-13.58.58-27.15,1.56-40.69,2.81"/><path class="cls-4" d="M353.85,191.57C303,181,252,180,200,181c-61,2-122,8-182.92,6.93"/><path class="cls-4" d="M1444.77,191.59C1391,182,1338,168,1283,162c-20-3-40-3-60-4-20-2-39-4-58-11-5-3-11-5-16-7-10-4-20-7-29-12-17-10-33-17-50-28-14-8-28-16-43-22-4-1-9-3-13-4-5-3-10-4-15-6-3-1-6-4-9-5-17-5-33-10-50-12-28-3-56-2-84,5-1,0-3,2-4,2-53,12-95,39-140,69-5,2-9,5-13,7-26,17-49,34-76,48-4,2-6,5-10,7-2,1-5,1-7.17,2.54"/><path class="cls-4" d="M1919.07,188.6c-12.58.64-25.1,1.94-37.64,3.05"/><path class="cls-4" d="M364,191.64C341,186,317,184,293,181a450.36,450.36,0,0,0-82-1c-65,4-129,9-193.93,8"/><path class="cls-4" d="M1423,191.65C1371,183,1319,175,1266,170h-10a66,66,0,0,0-14-1c-31-3-62-5-92-16-21-9-40-20-61-32-5-3-10-7-15-10-19-11-37-21-56-32-9-5-18-7-26-12-2-1-6,0-8-1a265.59,265.59,0,0,0-50-16c-59-11-113,5-164,33l-3,3c-27,13-49,30-75,48-3,2-5,2-8,4a586.78,586.78,0,0,1-85.15,53.55"/><path class="cls-4" d="M1919.2,188.4c-16.39.48-32.76,1.66-49.08,3.24"/><path class="cls-4" d="M362.39,191.55C313,177,260,178,209,178c-64,6-128,9-191.92,9.86"/><path class="cls-4" d="M1382.67,191.58C1321,182,1258,180,1195,177c-71-13-123-64-186-98a278,278,0,0,0-56-24c-14-4-27-8-41-9-15-2-29-3-45,0h-9a301,301,0,0,0-41,9c-39,13-69,35-104,59-32,22-59,43-92,62-10,5-19,11-30.31,15.47"/><path class="cls-4" d="M1919.2,188.29c-19,.57-38,2-56.92,3.33"/><path class="cls-4" d="M370.92,191.59c-21.35-4.69-42.76-9.12-64.5-11.55-22.88-2.55-45.64-4.67-68.69-4.4-23.58.28-46.94,2.5-70.39,4.69s-47.07,4-70.65,5.33-47.3,2.1-71,2.23c-2.9,0-5.8,0-8.7,0"/><path class="cls-4" d="M1323.29,191.65C1279,188,1236,193,1191,187a188.73,188.73,0,0,1-34-9,304.73,304.73,0,0,1-40-21c-33-21-61-42-94-63-4-2-8-5-13-7-3-1-5-4-8-6-2-1-3-1-5-2-79-54-176-47-251,8-4,3-9,6-14,7l-3,3c-2,1-5,2-7,4-44,36-85,69-136,90.54"/><path class="cls-4" d="M1919.27,189.33c-14.41.68-28.81,1.36-43.2,2.3"/><path class="cls-4" d="M376.2,191.59C317,176,257,172,196,176c-27,2-54,5-81,8-33,3-65,4-97.92,3.91"/><path class="cls-4" d="M1166.27,191.64A246,246,0,0,1,1115,166c-35-23-64-46-99-71-2-1-5-2-7-3-44-34-96-54-150-52-13,1-26,2-38,6-25,9-48,18-70,34-3,2-5,2-8,4-44,29-79,62-124,87l-3,3c-12,8-24,12-36.45,17.6"/><path class="cls-4" d="M1919,187.4c-22.38,0-44.71,1.85-67,4.19"/><path class="cls-4" d="M385.62,191.55C341,182,295,173,249,174c-47,0-92,6-139,10-31,3-62,5-93,3.9"/><path class="cls-4" d="M1142,191.65C1104,172.08,1071,145,1037.8,118.6c-32.6-25.95-66.49-52.36-105.7-67.43-20.79-8-41.94-13.12-64.31-13.56A181.26,181.26,0,0,0,803.13,48.4a295.3,295.3,0,0,0-29.19,12.15c-9.92,4.81-19.33,11.22-28.49,17.34-17.6,11.78-34.56,24.48-51.25,37.51s-33.12,26.84-50.7,38.9a347.08,347.08,0,0,1-55.64,31.52q-6.79,3-13.74,5.7"/><path class="cls-4" d="M1919.14,189.31c-16.42.58-32.88.59-49.23,2.31"/><path class="cls-4" d="M387.57,191.58C361,186,335,180,308,176c-68-9-132,2-199,7-31,3-61,5-91.92,4.9"/><path class="cls-4" d="M1122.43,191.62C1114,185,1105,180,1096,173,1024,117,964,45,871,35c-49-5-93,15-134,44-37,26-65,52-102,78-2,1-5,2-7,3-7,6-14,10-22,15-12,6-24,12-37.12,16.62"/><path class="cls-4" d="M1919,186.89c-23.24.74-46.85.75-69.81,4.73"/><path class="cls-4" d="M392.28,191.54C352,180,311,175,270,172c-31-2-63,1-94,4-53,3-106,11-158.91,11.9"/><path class="cls-4" d="M1108.41,191.38c-17.47-12.58-33.89-26.53-50-40.81-15.85-14.06-31.44-28.37-47.57-42.1C995.69,95.56,980.19,83,963.7,71.8c-16.26-11-33.52-20.66-51.87-27.75-19.16-7.41-39.5-12.3-60.11-12.55a157.36,157.36,0,0,0-58,10.81c-18.91,7.22-36.54,17.49-53.06,29.12-18.21,12.82-35.32,27.23-52.61,41.24s-34.59,27.8-52.83,40.44a323.77,323.77,0,0,1-58.57,32.52q-7.42,3.13-15,5.84"/><path class="cls-4" d="M1919.5,186.68c-24.5,1.32-49.5,2.32-73.28,5"/><path class="cls-4" d="M1848.36,191.59a704.74,704.74,0,0,1,70.57-4"/><path class="cls-4" d="M559.28,191.56c39.21-13.34,73.83-36.59,106.12-62.07C697.92,103.84,728.7,75.43,765,55c17.94-10.11,37-18.41,57.44-21.79a154.25,154.25,0,0,1,60.82,2.39C922.49,45,956.68,68.72,987.35,94.06c33.83,28,64.76,59.2,98.34,87.44q6,5,12.08,9.9"/><path class="cls-4" d="M17.65,187.88C75,187,131,180,188,174c35-3,70-4,105-1,36,4,71,11,106.36,18.59"/><path class="cls-4" d="M557.79,191.48C575,186,590,178,606,170l3-3c49-28,85-65,131-99,32-23,66-40,105-39a177.53,177.53,0,0,1,51,10c42,17,76,45,109,76,2,2,5,3,7,5,3,3,6,7,9,10,22,21,44,42,66.14,61.52"/><path class="cls-4" d="M17.55,187.88C40,187,63,187,85,184H95c27-3,54-6,81-10,6-1,12,1,18,0,71-11,139,2,207.22,17.6"/><path class="cls-4" d="M1846.3,191.66c24.08-3.51,48.44-4.61,72.76-4.74"/><path class="cls-4" d="M556.05,191.52C621,168,670,123,724,79c37-30,79-56,128-51,15,2,30,5,44,11,10,5,20,10,30,16,12,7,22,15,33,23,40,32,72,67,107,103,4,3,7,7,11.79,10.37"/><path class="cls-4" d="M17.2,187.87C53,187,89,185,125,181c3,0,6-2,9-2,5,0,9-1,14-2,34-4,68-7,102-7,16-1,32,1,48,2,2,0,5,2,7,2,9,1,19,1,28,2,8,1,14,4,22,5,18,4,34,8,50.58,10.66"/><path class="cls-4" d="M1844.71,191.66c24.67-3.48,49.6-4.61,74.5-4.74"/><path class="cls-4" d="M552.91,191.61c38.56-12.44,72.4-35.11,103.82-60.17,32.82-26.18,63.35-56.25,99.12-78.48,33.5-20.81,71.64-32,110.84-22.84,38.54,9.06,71.09,33.45,100.21,59.2,32.27,28.53,61.29,60.41,91.45,91.08q5.49,5.58,11.05,11.1"/><path class="cls-4" d="M17.06,187.82c12.78-.49,25.63-.48,38.38-1.52,6.3-.52,12.57-1.37,18.87-1.88,6.09-.49,12.31,0,18.37-.8s12.06-1.93,18.26-2.49c6.37-.57,12.73-1.33,19.08-2.12,12.8-1.57,25.57-3.45,38.37-5s25.7-1.61,38.45-3.33a183.44,183.44,0,0,1,18.75-1.2c6.42-.22,12.79-1,19.22-1.12,25.55-.31,51.74,2.47,77,6.1,25.46,3.66,50.53,9.81,75.68,15.13,3.13.67,6.27,1.32,9.42,2"/><path class="cls-4" d="M1843.4,191.65c25-3.57,50.31-4.64,75.55-4.74"/><path class="cls-4" d="M550.35,191.52c38.54-12,72.38-34.18,103.8-59,32.51-25.7,62.11-55.48,96.78-78.36,16.44-10.85,34.22-19.73,53.28-24.92,19.79-5.39,40.4-4.87,60.22.17,38.17,9.71,70.91,34.46,99.45,60.68,30.73,28.23,58.25,59.68,86.8,90.05q5.38,5.72,10.82,11.38"/><path class="cls-4" d="M17.2,187.87C78,187,138,176,200,170c13-1,26-1,39-2,24-1,48,1,72,4,34,5,66,13,99.17,19.55"/><path class="cls-4" d="M1842.44,191.61c25.36-4.06,51.09-4.82,76.73-4.65"/><path class="cls-4" d="M553.37,191.5A273.3,273.3,0,0,0,602,170l15-9c33-22,59-46,88-72,10-8,19-15,29-23,20-14,38-26,60-34a154.69,154.69,0,0,1,31-6c29-2,56,8,82,23,18,11,33,24,49,37,8,7,15,15,23,22,11,12,21,23,32,34,2,3,4,5,6,8a262.19,262.19,0,0,1,22,25,96,96,0,0,1,15.8,16.35"/><path class="cls-4" d="M17.2,187.87C44,188,71,185,99,183c3,0,6-2,9-2,5,0,10-1,15-1,35-5,70-10,105-12,60-2,120,8,177.84,23.56"/><path class="cls-4" d="M1841.94,191.63c25.51-4,51.39-4.84,77.18-4.67"/><path class="cls-4" d="M555,191.5c37.68-12.88,71-35.41,101.89-60.08,29.86-23.85,57.31-51,88.4-73.28,32.09-23,69.56-36.85,109.25-28.23,18.88,4.1,36.41,12.53,52.86,22.48,8.48,5.13,16.87,10.59,24.21,17.3s15.54,12.11,22.52,19.13c29.33,29.5,57,60.23,84.52,91.44q5,5.7,10.08,11.37"/><path class="cls-4" d="M17.08,187.85C64,187,109,179,156,174h10c5-1,9-2,14-3,29-2,58-4,87-3,21,1,41,4,62,7,18,3,34,7,52,10,10,2,19,5,27.77,6.59"/><path class="cls-4" d="M1841.51,191.65c25.49-5.65,51.49-4.65,77.7-5.07"/><path class="cls-4" d="M555.7,191.52c38.08-12.64,71.25-35.65,102.19-60.68,30.32-24.51,58.3-52.33,90.69-74.18,15.7-10.59,32.68-19.69,50.9-25.12,17.68-5.27,36.43-4.78,54.24-.4,37.2,9.15,68.91,33,96.46,58.74,29.76,27.76,56,59.15,82.61,89.84q5.09,5.85,10.2,11.7"/><path class="cls-4" d="M17.26,187.86a754.09,754.09,0,0,0,76.86-5.6c25.51-3,50.89-7,76.41-9.86s51.36-4.92,77.14-4.61A521.18,521.18,0,0,1,323,174.62c24.87,3.95,49.42,9.42,74,15,3.08.7,6.15,1.39,9.23,2.07"/><path class="cls-4" d="M1841.33,191.63c25.76-4.12,51.92-4.85,78-4.66"/><path class="cls-4" d="M558.74,191.5C593,180,622,160,650,137c1-1,3-1,4-2,10-9,20-17,29-26,3-3,8-4,11-7,42-39,90-82,152-72,17,3,32,10,47,18a200.24,200.24,0,0,1,24,16c49,37,82,82,119.7,127.24"/><path class="cls-4" d="M17.26,187.86A359.92,359.92,0,0,0,65,185H75c63-8,124-21,187-17a713.34,713.34,0,0,1,143.53,23.64"/><path class="cls-4" d="M1841,191.63c25.85-4.11,52.09-4.85,78.23-4.66"/><path class="cls-4" d="M559.86,191.6C595.75,179,627.59,156.47,657,132.76c28.3-22.83,54.29-48.68,83.62-70.21C770.76,40.4,806.16,24.36,844.33,31.6c37.58,7.14,69.91,32.22,96.81,58.12,29.27,28.18,55.59,59.13,81.62,90.27l9.59,11.47"/><path class="cls-4" d="M17.26,187.86a756.09,756.09,0,0,0,76.05-6c25.36-3.12,50.61-7.13,76-10,25.26-2.82,50.66-4.67,76.09-4.33a529.4,529.4,0,0,1,74.78,6.68c24.71,3.88,49.07,9.35,73.4,15.08l9.21,2.16"/><path class="cls-4" d="M1840.88,191.63c12.58-2.73,25.67-2.86,38.47-3.65,13.22-.82,26.49-1.06,39.73-1.13"/><path class="cls-4" d="M564.78,191.46c35.06-13.25,66-35.11,95-58.55,28.52-23.09,54.68-49.43,84.75-70.56C775,40.89,810.79,27,848.34,36.11c35.59,8.65,66.42,33,92.44,57.76,27.85,26.55,52.45,56.44,77.11,85.91l9.65,11.54"/><path class="cls-4" d="M17.08,187.87c25-.47,49.85-2.91,74.62-6s49.62-6.72,74.51-9.47,50.14-4.65,75.3-4.51a493.12,493.12,0,0,1,74.68,6.54c24.45,3.91,48.65,9.23,72.72,15l8.87,2.11"/><path class="cls-4" d="M1841.33,191.63c25.48-4.9,51.74-5.13,77.59-5"/><path class="cls-4" d="M569.52,191.54c34.42-13.38,64.65-35.53,93.11-58.69,27.79-22.61,53.41-48.3,83-68.66,30-20.66,65.27-33.87,101.82-24.67,34.92,8.79,65.2,32.47,90.83,56.85,27.36,26,51.57,55.3,75.74,84.24q4.6,5.5,9.19,11"/><path class="cls-4" d="M17.07,187.87c24.72-.47,49.34-2.9,73.87-5.9s49.15-6.6,73.8-9.27,49.71-4.49,74.65-4.31a491.78,491.78,0,0,1,73,6.31c24.09,3.79,47.92,9,71.6,14.74l8.84,2.14"/><path class="cls-4" d="M1842.13,191.57c25.45-4,51.28-4.79,77-4.61"/><path class="cls-4" d="M573.9,191.54c33.55-13.75,63.19-35.23,91-58.16,27-22.23,52.14-47,81.27-66.51,14.34-9.57,29.91-18.12,46.53-23a102,102,0,0,1,53.5-.66c34.42,8.63,64.18,31.3,89.52,55.29,26.67,25.25,50.18,53.76,73.54,82l9.05,11"/><path class="cls-4" d="M17.07,187.86c24.4-.52,48.71-2.93,72.93-5.88s48.48-6.47,72.8-9a653.67,653.67,0,0,1,73.48-4.09A496.58,496.58,0,0,1,308.71,175c23.78,3.69,47.32,8.77,70.69,14.47,3,.71,5.89,1.44,8.83,2.17"/><path class="cls-4" d="M1842.44,191.61c25.36-4.06,51.09-4.82,76.73-4.65"/><path class="cls-4" d="M578.4,191.51c32.59-14,61.53-35.22,88.76-57.68,26.38-21.75,51.08-45.92,79.73-64.76,14.08-9.25,29.35-17.48,45.64-22a101.41,101.41,0,0,1,53.12-.29C879,55.39,908,77.17,932.72,100.47c26.18,24.68,49.3,52.54,72.17,80.24q4.44,5.37,8.85,10.75"/><path class="cls-4" d="M17.07,187.87C72,187,125,176,180,171c69-6,137,2,203.16,20.54"/><path class="cls-4" d="M1842.58,191.66c25.35-4.63,51.21-5.37,76.92-5"/><path class="cls-4" d="M582.77,191.57C643,164,685,117,740,76c29-20,60-34,95-28,28,5,50,18,73,35,4,4,9,7,13,11,33,30,61,63,88.31,97.31"/><path class="cls-4" d="M17.07,187.87C65,186,111,179,159,173h9c71-8,142-1,210.5,18.58"/><path class="cls-4" d="M1843.66,191.57c24.34-5.57,50.34-3.57,75.41-4.7"/><path class="cls-4" d="M589.15,191.64c30.5-14.54,57.91-34.89,84-56.23,25.23-20.69,49.35-43,77.18-60.28,13.82-8.57,28.65-16.33,44.58-20,16.39-3.82,33.28-3,49.49,1.25,31.56,8.32,59.16,28.14,82.92,49.9,25.08,23,47.38,49,69.22,75q4.21,5,8.41,10.08"/><path class="cls-4" d="M17.08,187.87C37,188,57,185,77,184c3,0,7-2,10-2,5,0,10-1,15-1,54-7,105-13,159-9,38,4,75,9,110.55,19.65"/><path class="cls-4" d="M1844.55,191.58c24.74-4,49.87-4.78,74.9-4.63"/><path class="cls-4" d="M596.11,191.43c29.22-14.8,55.6-34.49,80.9-55.14,24.42-19.93,48-41.22,75.29-57.31,13.7-8.09,28.29-15,43.93-18.34,16-3.39,32.4-2.44,48.17,1.78,30.44,8.13,57.24,27,80.44,47.72,24.5,21.92,46.32,46.8,67.66,71.74q4.15,4.86,8.3,9.75"/><path class="cls-4" d="M17.08,187.85c45.93-1.14,91.29-8.91,137-13.26s91.05-4.47,136.4,2a728.75,728.75,0,0,1,74.46,14.93"/><path class="cls-4" d="M1845.4,191.58c24.41-4,49.19-4.77,73.88-4.63"/><path class="cls-4" d="M601.7,191.47c27.87-14.58,53.25-33.38,77.65-53.12,24-19.44,47.65-39.77,74.56-55.23,13.43-7.72,27.67-14.38,43-17.44s31.08-1.9,46.17,2.11c29.57,7.85,55.77,25.64,78.6,45.52,24,20.91,45.46,44.73,66.33,68.7q4,4.56,7.91,9.15"/><path class="cls-4" d="M17.07,187.85c44.83-1.11,89.14-8.42,133.72-12.51s89.43-4.27,133.94,1.91a718.5,718.5,0,0,1,73.11,14.35"/><path class="cls-4" d="M1846.5,191.59c24.11-3.93,48.58-4.77,73-4.64"/><path class="cls-4" d="M607.23,191.62c26.64-14.36,51-32.42,74.66-51.27,23.25-18.56,46.18-37.93,72.35-52.32,13.31-7.32,27.48-13.47,42.41-16.5A99.56,99.56,0,0,1,842,73.27c28.59,7.54,54.11,24.41,76.43,43.36,23.45,19.91,44.52,42.63,64.94,65.58q4,4.51,8,9"/><path class="cls-4" d="M17.08,187.85C63,187,107,179,153,175c67-5,134-1,197.86,16.6"/><path class="cls-4" d="M1847.37,191.59c23.62-3.93,47.62-4.75,71.51-4.65"/><path class="cls-4" d="M613.58,191.62c24.92-14.06,47.79-31.39,70.3-49s44.81-36,70-49.75c25-13.67,52.32-20.69,80.69-15.27s52.85,20.83,75.53,37.91c12.32,9.29,23.55,20.36,34.55,31.17,11.77,11.57,23.25,23.36,34.23,35.69q4,4.47,7.94,9"/><path class="cls-4" d="M17.08,187.84C67,186,116,178,166,174a541.17,541.17,0,0,1,177.13,17.56"/><path class="cls-4" d="M1848.15,191.62c23.42-3.89,47.2-4.77,70.9-4.67"/><path class="cls-4" d="M620.64,191.35C650,174,675,154,703,133c21-15,40-29,63-39,2-1,3,0,5-1a101.49,101.49,0,0,1,54-9c23,2,44,12,64,24,32,20,57,45,83,71,4,4,7,8,10.76,12.29"/><path class="cls-4" d="M17.07,187.86C59,189,101,181,143,178c66-6,132-4,195.85,13.52"/><path class="cls-4" d="M1849.13,191.6c23.12-3.92,46.62-4.75,70-4.66"/><path class="cls-4" d="M626.79,191.46c24.24-12.11,45.57-28.94,67.07-45.29,21-15.95,42.35-31.74,66.53-42.52C785.62,92.39,812.85,87,840,94c25.25,6.51,48.34,20.88,69,36.42,21.48,16.17,41.37,34.46,60.24,53.59q3.6,3.65,7.16,7.33"/><path class="cls-4" d="M17.07,187.91c40.9,0,81.44-6.2,122.13-9.43s81.76-4.2,122.41,1c22.23,2.86,44.26,7.1,66.1,12.08"/><path class="cls-4" d="M1850.28,191.6c22.8-3.87,46-4.74,69.08-4.66"/><path class="cls-4" d="M636.38,191.44C666,175,691,153,720,133c21-14,42-23,65-31,19-6,38-4,57,1,51,16,93,51,128.86,88.51"/><path class="cls-4" d="M17.08,187.87C83,186,148,173,214,177a642.78,642.78,0,0,1,103,14.54"/><path class="cls-4" d="M1851.39,191.6c22.39-3.81,45.14-4.72,67.81-4.66"/><path class="cls-4" d="M642.42,191.57c21-12.49,40.73-26.84,61-40.47s41.21-27,64.27-35.3c22.44-8.09,46.71-11,70.1-5.44,22.47,5.28,43.34,16.23,62.36,29.06,20.1,13.56,38.67,29.36,56.47,45.77q3.4,3.12,6.76,6.3"/><path class="cls-4" d="M17.08,187.87C31,188,46,187,60,186c84-9,168-14,250.4,5.64"/><path class="cls-4" d="M1852.29,191.63c22.11-3.86,44.61-4.74,67-4.69"/><path class="cls-4" d="M17.26,187.86c37.12-1,74-4.77,111-7.5s73.61-2.84,110.41,1.36c20.53,2.35,40.93,5.78,61.18,9.9"/><path class="cls-4" d="M650.31,191.42c20.24-12.12,39.75-25.4,59.6-38.14,18.9-12.13,38.47-23.7,59.81-31s43.31-9,65.4-4.17c21.37,4.67,41.38,14.2,59.84,25.77,19.36,12.13,37.28,26.49,54.47,41.49q3.35,2.92,6.67,5.89"/><path class="cls-4" d="M1853.69,191.59c21.73-3.8,43.84-4.69,65.86-4.65"/><path class="cls-4" d="M17.26,187.86C65,186,112,180,160,179c45,0,89,3,133.49,12.64"/><path class="cls-4" d="M658.83,191.42C695,171,728,145,768,131c12-4,24-6,37-7,16-1,31,3,46,7,37,12,67,36,96.79,60.26"/><path class="cls-4" d="M1854.82,191.58c21.3-3.74,43-4.67,64.56-4.65"/><path class="cls-4" d="M17.26,187.86C82,187,147,176,213,181c24,2,48,5,72,10.56"/><path class="cls-4" d="M668.34,191.36c34.13-19.9,67.88-43.31,106.6-53.29a126.7,126.7,0,0,1,57.18-1.86c18.28,3.69,35.75,10.7,52.19,19.42,19.16,10.17,37.06,22.61,54.26,35.78"/><path class="cls-4" d="M1855.13,191.65c21.15-3.28,42.56-4.45,63.95-4.69"/><path class="cls-4" d="M17.2,187.87C76,187,135,177,195,182c11,1,22,2,33,2,2,0,5,2,7,2a333,333,0,0,1,42.51,5.66"/><path class="cls-4" d="M677.85,191.56c31.44-17.7,63-37.19,98.57-45.35a129,129,0,0,1,52.39-1.51c16.9,3.07,33.19,8.94,48.64,16.35,17.88,8.57,34.72,19.19,50.93,30.56"/><path class="cls-4" d="M1856.57,191.61A454.55,454.55,0,0,1,1919,187"/><path class="cls-4" d="M17.2,187.87c32.58-1,65.07-3.75,97.62-5.32,32.94-1.6,65.86-1.71,98.71,1.59,17.94,1.79,35.8,4.33,53.57,7.42"/><path class="cls-4" d="M689.09,191.63c28-15.51,56.9-30.63,88.55-37.17,31.45-6.5,62.7-1,91.94,11.5,8.19,3.5,16.17,7.47,24,11.7q5.88,3.19,11.67,6.56c3.8,2.21,8.1,4.2,11.26,7.28"/><path class="cls-4" d="M1857.65,191.62c20.34-3.17,40.93-4.37,61.5-4.65"/><path class="cls-4" d="M17.26,187.86C98,185,180,176,260.22,191.65"/><path class="cls-4" d="M701.4,191.45C730,178,759,164,791,162c40-2,78,10,111.75,29.57"/><path class="cls-4" d="M1859.29,191.6c19.89-3.14,40-4.33,60.15-4.62"/><path class="cls-4" d="M17.2,187.87C75,186,132,180,190,184c20,2,40,3,59.1,7.66"/><path class="cls-4" d="M716.28,191.42c21.58-9.85,44.7-17.64,68.42-20,22.82-2.31,44.91.47,66.79,7.1a263.18,263.18,0,0,1,34.11,13.12"/><path class="cls-4" d="M1861.15,191.61c19.23-2.18,38.53-3.77,57.87-4.47"/><path class="cls-4" d="M17.2,187.87C92,187,168,178,242.72,191.59"/><path class="cls-4" d="M735.22,191.6C776,178,822,176,861.63,191.65"/><path class="cls-4" d="M1861.9,191.66a429,429,0,0,1,57.17-4.58"/><path class="cls-4" d="M17.65,187.88C91,186,165,180,237,191.58"/><path class="cls-4" d="M1862.54,191.61a531.67,531.67,0,0,1,57-4"/><path class="cls-4" d="M17.65,187.88C77,186,135,183,194,188a172,172,0,0,1,36.14,3.59"/><path class="cls-4" d="M1865.55,191.63a494.63,494.63,0,0,1,54-4"/><path class="cls-4" d="M17.65,187.88C87,188,156,180,223.75,191.62"/><path class="cls-4" d="M1867.56,191.65a364,364,0,0,1,51.51-4.16"/><path class="cls-4" d="M17.34,187.89C84,188,151,182,217.37,191.64"/><path class="cls-4" d="M1868.73,191.59c16.88-1.82,33.84-2.88,50.81-3.42"/><path class="cls-4" d="M17.07,187.9C82,188,147,183,212.18,191.66"/><path class="cls-4" d="M1869.63,191.64c16.56-1.72,33.19-2.7,49.82-3.27"/><path class="cls-4" d="M17.07,187.9C79,189,142,183,204,191.61"/><path class="cls-4" d="M1874.86,191.61q22-2,44.14-2.82"/><path class="cls-4" d="M17.07,187.9C78,188,139,186,200.38,191.63"/><path class="cls-4" d="M1866.47,191.6c17.41-2,34.92-3,52.43-3.44"/><path class="cls-4" d="M17.07,187.9c46.47.09,93-1.44,139.4.88,12.82.64,25.62,1.56,38.39,2.84"/><path class="cls-4" d="M1871.87,191.62c15.83-1.85,31.75-2.93,47.68-3.36"/><path class="cls-4" d="M17.07,187.9c46.07,1.24,92.15-.17,138.23,1.37,12.85.43,25.81.9,38.58,2.34"/><path class="cls-4" d="M1868,191.62q25.41-2.66,51-3.32"/><path class="cls-4" d="M17.08,187.91c45.25,1.21,90.51-.22,135.77,1.34,12.65.44,25.35,1.14,38,2.4"/><path class="cls-4" d="M1870.77,191.63c16.21-1.44,32.47-2.27,48.73-2.89"/><path class="cls-4" d="M1392.63,191.54c45.37-8.54,92.37-7.54,137.7.05"/><path class="cls-4" d="M17.08,187.91C72,189,127,186,180.52,191.61"/><path class="cls-4" d="M1874.47,191.62c14.9-1.44,29.83-2.66,44.79-3.18"/><path class="cls-4" d="M1370.44,191.52C1429,173,1492,179,1550.53,191.56"/><path class="cls-4" d="M17.08,187.91C72,189,127,186,181.88,191.65"/><path class="cls-4" d="M1879.61,191.62c13.1-2.58,26.53-1.82,39.8-2"/><path class="cls-4" d="M1349.76,191.65A266.31,266.31,0,0,1,1422,176c49-6,96,5,142.73,15.56"/><path class="cls-4" d="M17.45,187.92C72,189,126,186,180.66,191.64"/><path class="cls-4" d="M1872.67,191.64c15.41-1.52,30.89-2.32,46.37-2.82"/><path class="cls-4" d="M1333.2,191.52C1409,157,1496,168,1574.46,191.61"/><path class="cls-4" d="M17.45,187.92C70,188,124,187,177.49,191.64"/><path class="cls-4" d="M1880.21,191.6c13-1.18,26.14-2,39.23-2.58"/><path class="cls-4" d="M1319,191.47c31.8-13.87,65.54-24.18,100.33-26.27,35.9-2.15,71.5,2.63,106.35,11.06,19.39,4.7,38.56,10.26,57.86,15.35"/><path class="cls-4" d="M17.45,187.92C72,189,127,186,181.19,191.63"/><path class="cls-4" d="M1885.63,191.65c11.28-1,22.58-1.85,33.89-2.4"/><path class="cls-4" d="M1303.38,191.5C1325,183,1345,173,1369,168c1,0,3-2,4-2,67-16,131-1,194,19,3,0,6,0,8,1,5,3,11,3,16.3,5.63"/><path class="cls-4" d="M17.45,187.92C72,188,126,186,181.11,191.62"/><path class="cls-4" d="M1882.17,191.62c12.22-1.18,24.48-2.11,36.75-2.63"/><path class="cls-4" d="M1289.12,191.54c18.86-8.86,37.81-17.93,57.77-24.06,10.06-3.08,20.52-5.93,30.79-8.18,10.51-2.3,21.61-3.21,32.3-4.32,41.69-4.34,84.06,4.92,123.76,16.83,21.57,6.47,43,13.52,64.64,19.7"/><path class="cls-4" d="M17.45,187.92C74,189,130,186,186.85,191.61"/><path class="cls-4" d="M1884.78,191.6q17.25-1.5,34.56-2.32"/><path class="cls-4" d="M1275.21,191.59c39.83-18.55,80.44-36.81,124.67-41.13,45.33-4.42,89.79,4.58,132.87,18,24.1,7.53,47.87,16.07,72.12,23.1"/><path class="cls-4" d="M17.05,187.92c44.09.56,88.22,0,132.3,1.67q18.38.69,36.71,2"/><path class="cls-4" d="M1883.86,191.61c11.72-1.09,23.46-2,35.22-2.48"/><path class="cls-4" d="M1261.73,191.55C1307,169,1355,147,1407,144c59-3,115,16,169,37,11,4,23,7,34.45,10.63"/><path class="cls-4" d="M17.05,187.92c58,.08,115,.08,173.37,3.72"/><path class="cls-4" d="M1882.05,191.66c12.47-1.14,25-2,37.47-2.5"/><path class="cls-4" d="M1247.76,191.41C1261,185,1273,178,1286,173c9-3,17-7,26-11,2-1,3,0,5-1,54-25,113-27,171-12,1,0,3,2,4,2,43,11,82,29,123,40.55"/><path class="cls-4" d="M17.45,187.92C77,189,137,186,196.14,191.64"/><path class="cls-4" d="M1890.22,191.66q14.49-1.2,29-2"/><path class="cls-4" d="M1234.65,191.54C1284,168,1334,142,1390,136a323,323,0,0,1,44,0c18,2,35,6,53,10,1,0,3,2,4,2,44,11,84,31,125.71,43.61"/><path class="cls-4" d="M17.45,187.92C79,189,141,186,203.39,191.61"/><path class="cls-4" d="M1889.73,191.63q14.85-1.31,29.74-2.11"/><path class="cls-4" d="M1221.62,191.43c25.12-11.66,50.16-23.67,75.69-34.41,24.78-10.42,50.52-19.35,77.16-23.5a232.15,232.15,0,0,1,80.76,2c26.51,5.21,52.21,13.9,77.45,23.37,25.77,9.67,51.12,20.45,77.13,29.46q4.7,1.62,9.41,3.16"/><path class="cls-4" d="M17.45,187.92C82,189,146,186,210.72,191.61"/><path class="cls-4" d="M1893.21,191.64q13.14-1.09,26.3-1.84"/><path class="cls-4" d="M1207.05,191.51c25.58-12.52,51.83-23.79,77.9-35.25s52.66-21.71,80.83-26.54a237.17,237.17,0,0,1,84.76,1.1c28.24,5.4,55.45,15,82.07,25.64s52.75,22.37,79.84,31.77q5,1.74,10.09,3.38"/><path class="cls-4" d="M17.08,187.91C88,189,160,186,231.12,191.61"/><path class="cls-4" d="M1894.17,191.64a236.47,236.47,0,0,1,25.37-1.83"/><path class="cls-4" d="M1195.42,191.34C1208,186,1218,177,1232,174c36-20,74-35,115-46,23-6,46-7,70-6a267.22,267.22,0,0,1,68,15c30,10,58,21,86,35,17,8,35,13,52.34,19.56"/><path class="cls-4" d="M17.07,187.9C93,188,170,184,245.82,191.63"/><path class="cls-4" d="M1895.16,191.65q12-1,23.92-1.71"/><path class="cls-4" d="M1185.86,191.59c26.3-14.88,54.26-26.58,81.89-38.69,27.84-12.2,56.16-23.94,86.13-29.73a231.59,231.59,0,0,1,89.92.52c29.84,6,58.42,16.81,86.31,28.78s55.55,25,84.21,35.38c3.55,1.28,7.11,2.53,10.69,3.72"/><path class="cls-4" d="M17.07,187.9C98,188,178,185,258.82,191.65"/><path class="cls-4" d="M1892.61,191.63c8.94-.88,17.89-1.6,26.86-2.1"/><path class="cls-4" d="M1177.26,191.65C1211,170,1247,154,1285,140c13-6,26-11,40-13,1,0,3-2,4-2,19-4,36-8,55-10a204.12,204.12,0,0,1,60,6,225.09,225.09,0,0,1,35,9c13,4,26,10,39,15,24,11,46,22,70,33,5,2,10,3,15,6,7,3,15,5,22,7.63"/><path class="cls-4" d="M17.07,187.9C102,188,186,184,271,191.63"/><path class="cls-4" d="M1893.77,191.62q12.62-1.05,25.27-1.67"/><path class="cls-4" d="M1168.49,191.64C1179,183,1192,177,1205,170a682.4,682.4,0,0,1,68-31c27-10,52-19,81-24,49-9,96,1,140,20,27,11,53,24,80,36,17,7,33,14,50.27,20.63"/><path class="cls-4" d="M17.34,187.89C112,189,206,184,300.66,191.63"/><path class="cls-4" d="M1893.23,191.6c8.53-.9,17.08-1.63,25.65-2.07"/><path class="cls-4" d="M1163.62,191.49C1201,164,1243,146,1286,129c32-12,66-21,100-21,10,1,19,1,29,2a116.27,116.27,0,0,1,18,4c6,1,13,2,19,4,15,5,29,12,45,16,43,21,85,41,129.86,57.58"/><path class="cls-4" d="M17.34,187.89C114,187,211,182,308.48,191.63"/><path class="cls-4" d="M1897.19,191.64q11-.93,22.09-1.61"/><path class="cls-4" d="M1158,191.44C1218,149,1286,119,1360,107c45-7,87,5,127,22,48,21,93,45,141.06,62.61"/><path class="cls-4" d="M17.55,187.88C101,186,185,184,268,188c21,1,42,2,63.35,3.63"/><path class="cls-4" d="M1895.39,191.61q11.83-.93,23.7-1.52"/><path class="cls-4" d="M1153.46,191.29c13.91-10.18,27.83-19.86,42.67-28.67,14.16-8.39,29.11-15.54,44-22.47,29.42-13.68,60-25.41,91.91-31.68s65-6.61,96.88.52c32.17,7.2,62.42,20.78,92.06,34.85,30.58,14.52,60.28,31,91.87,43.33q5.77,2.25,11.63,4.31"/><path class="cls-4" d="M17.2,187.87C58,187,99,186,140,186c73-1,146-1,217.81,5.62"/><path class="cls-4" d="M1898.29,191.62q10.34-.88,20.69-1.54"/><path class="cls-4" d="M1148.94,191.49A407.72,407.72,0,0,1,1232,141c30.58-13.8,62.64-25.81,95.47-33,33.11-7.2,66.65-7.82,99.67.15,32.75,7.92,63.74,22.12,94,36.61,30.53,14.6,60.61,30.28,92.23,42.46q5.88,2.26,11.84,4.36"/><path class="cls-4" d="M17.26,187.86C139,184,261,181,382.08,191.64"/><path class="cls-4" d="M1894.55,191.63c8.25-.7,16.51-1.26,24.78-1.6"/><path class="cls-4" d="M1144,191.58a424.72,424.72,0,0,1,85-53.74,416.67,416.67,0,0,1,92.74-31.55,272.88,272.88,0,0,1,53-6.22c8.87-.13,17.64-.31,26.41,1.16a250.44,250.44,0,0,1,25.39,5.45c32,8.87,62.4,22.44,92.24,36.86,30.55,14.76,60.85,30.59,92.25,43.48,4.24,1.73,8.55,3.17,12.89,4.61"/><path class="cls-4" d="M17.09,187.85C142,184,267,178,392.27,191.63"/><path class="cls-4" d="M1896.9,191.63q11.2-1,22.44-1.67"/><path class="cls-4" d="M1140.61,191.39c25.62-21.29,52.64-39.93,82.89-54,30.88-14.42,63.49-26.59,96.9-33.59,33.84-7.1,68.21-7.42,101.85.92,33.2,8.23,64.49,22.86,95,38,31,15.32,61.49,31.69,93.66,44.41q5.9,2.34,11.86,4.5"/><path class="cls-4" d="M17.09,187.85C148,183,279,177,409.27,191.6"/><path class="cls-4" d="M1896.74,191.64q11.27-1,22.54-1.76"/><path class="cls-4" d="M1136.83,191.42C1207,133,1295,93,1387,97c62,7,116,38,172,67,19,10,39,20,60.29,27.46"/><path class="cls-4" d="M17.53,187.82C151,183,285,174,416.71,191.57"/><path class="cls-4" d="M1895.46,191.62q11.7-1.12,23.43-1.88"/><path class="cls-4" d="M1134.85,191.51C1168,164,1204,137,1246,124c2-1,4-3,7-4,38-15,78-24,119-23,28,2,56,6,82,19,3,1,6,1,9,2,45,20,87,44,132,65,8,3,16,5,24.17,8.48"/><path class="cls-4" d="M17.38,187.81C101,184,185,180,269,181c53,2,107,2,159.57,10.64"/><path class="cls-4" d="M1893.64,191.62q12.78-1.11,25.6-1.89"/><path class="cls-4" d="M1132.55,191.63c25.3-21.47,52-42,82-56.53,31.13-15.13,65-27.18,99-33.74,34.26-6.61,69.16-6.42,103.06,2.16,33.08,8.37,64.14,23.08,94.55,38.29,31.13,15.56,61.7,32.5,94.1,45.36q5.79,2.29,11.66,4.43"/><path class="cls-4" d="M17.26,187.81C95,184,172,178,250,179c23,1,47,1,70,2l45,3c22,3,44,4,65,7.57"/><path class="cls-4" d="M1892.91,191.65q13.11-1.2,26.26-2"/><path class="cls-4" d="M1130.58,191.46c25.42-21.83,52-42.21,82.07-57.3,30.45-15.28,63.15-26.75,96.7-32.86C1343.72,95,1379,95.09,1413.1,103c33.6,7.78,65,22.21,95.56,38,30.76,15.87,60.95,33,93.07,46,3.83,1.56,7.69,3.07,11.57,4.5"/><path class="cls-4" d="M17.33,187.79C96,184,175,176,255,178c61,2,122,3,182.31,13.57"/><path class="cls-4" d="M1892.21,191.6q13.53-1.23,27.11-2"/><path class="cls-4" d="M1128.3,191.45c25.83-22.17,52.62-42.81,83.13-58.18,30.06-15.14,62.81-26.87,96-33a249.69,249.69,0,0,1,102.89,2.58c33.59,8,65,22.33,95.65,38,31,15.89,61.48,32.9,93.82,46q5.91,2.39,11.89,4.61"/><path class="cls-4" d="M17.39,187.78C96,183,174,176,253,177c64,2,127,3,190.19,14.6"/><path class="cls-4" d="M1889.87,191.62q14.52-1.32,29.06-2.15"/><path class="cls-4" d="M1126.75,191.45c25.48-21.79,52-42.54,81.86-58A332.56,332.56,0,0,1,1305,100.64c34.47-5.92,69.82-5.38,103.89,2.67,33.68,8,65.22,22.39,95.9,38.08s61.12,32.69,93.26,45.71q5.76,2.33,11.58,4.49"/><path class="cls-4" d="M17.4,187.75C160,176,306,166,448,191.55"/><path class="cls-4" d="M1886.16,191.63q16.65-1.59,33.36-2.5"/><path class="cls-4" d="M1125.57,191.36c25.72-21.45,52.44-42,82.18-57.61a325.05,325.05,0,0,1,94.84-32.08c34.4-6,69.48-6,103.5,2.32,33.51,8.14,65.12,22.52,95.88,37.82s61.27,32,93.24,45.11q5.71,2.34,11.5,4.52"/><path class="cls-4" d="M17.38,187.73C25,187,34,186,42,186c13-1,27-2,40-3,5-1,10-1,15-2,119-8,237-11,353.59,10.55"/><path class="cls-4" d="M1882.94,191.61c12.11-1.1,24.24-2,36.38-2.68"/><path class="cls-4" d="M1124,191.57C1138,180,1152,169,1167,158a130.29,130.29,0,0,0,15-10c60-40,127-56,197-47,22,2,42,9,63,16,3,1,5,3,8,4,2,1,3,0,5,1,42,18,80,40,122,59,2,1,3,0,5,1,1,0,1,2,2,2,7,3,15,4,20.81,7.61"/><path class="cls-4" d="M17.11,187.74C131,180,245,169,360,180a281,281,0,0,1,29,1c23,3,44,6,66,10.64"/><path class="cls-4" d="M1882.78,191.6c12.15-1.12,24.31-2,36.49-2.71"/><path class="cls-4" d="M1123.37,191.59C1174,149,1231,114,1299,103c53-9,106-1,154,21,2,1,3,0,5,1,49,22,96,48,145.7,66.59"/><path class="cls-4" d="M17.39,187.7C73,184,129,178,186,175c24-1,49-2,73-2,66,2,132,5,196,18.62"/><path class="cls-4" d="M1875,191.61c14.69-1.36,29.41-2.41,44.14-3.06"/><path class="cls-4" d="M1123.79,191.36c26-20.91,52.69-40.79,82.33-56.24,29.08-15.18,60.31-26.37,92.81-31.28a265,265,0,0,1,102.14,4.5c32.72,8,63.81,21.52,94.13,35.93,31,14.74,61.5,30.72,93.59,43q5.79,2.22,11.64,4.28"/><path class="cls-4" d="M17,187.7c145-14.7,293-25.7,437.41,4"/><path class="cls-4" d="M1876.3,191.62c14.23-1.24,28.49-2.25,42.76-2.94"/><path class="cls-4" d="M1122.73,191.43C1163,161,1204,131,1252,114c31-11,63-15,96-13a305.22,305.22,0,0,1,94,21c47,18,89,44,135,62,4,1,8,3,13,4,3,1,5,3,8.36,3.61"/><path class="cls-4" d="M17.34,187.66C69,183,121,178,173,174c22-2,43-1,65-2,32,0,63,1,95,3,5,1,10,1,15,2a1008.78,1008.78,0,0,1,103.37,14.55"/><path class="cls-4" d="M1863.34,191.62c18.59-2.11,37.28-3.26,56-3.8"/><path class="cls-4" d="M1123.87,191.65c26.28-20,53.17-39.52,82.4-55.06,28.33-15.07,59-26,90.9-30.38,33.13-4.58,67.08-2,99.58,5.6,32.89,7.69,64.17,20.87,94.81,34.85s60.92,29,92.56,40.69c4,1.45,7.92,2.86,11.91,4.2"/><path class="cls-4" d="M17.07,187.64C161,172,308,159,449.94,191.56"/><path class="cls-4" d="M1856.84,191.64c20.66-2.22,41.42-3.39,62.19-3.9"/><path class="cls-4" d="M1124.37,191.5c26.06-19.55,52.86-38.61,82-53.3a300.83,300.83,0,0,1,90.86-29.08,259.48,259.48,0,0,1,100.54,5.38c32.24,8,63,21,93.31,34.38s60.49,27.86,91.92,38.85q5.81,2,11.68,3.9"/><path class="cls-4" d="M17.16,187.62C124,174,231,165,340,175h10c3,0,7,2,10,2,31,3,61,7,90.69,14.65"/><path class="cls-4" d="M1849.79,191.6q34.49-3.51,69.18-4.32"/><path class="cls-4" d="M1125.52,191.33c26.44-19.15,53.43-37.91,82.66-52.59,27.79-14,57.65-24.11,88.57-28.09,33.07-4.25,66.74-1.3,99.13,6.18,32.18,7.44,62.8,20,93,33.12,30.44,13.23,60.63,27.3,92.1,38q5.71,1.94,11.48,3.71"/><path class="cls-4" d="M17.16,187.6C48,183,79,181,111,177a210.52,210.52,0,0,0,25-2h10c102-10,203-5,301.91,16.59"/><path class="cls-4" d="M1841,191.6q39.06-3.73,78.33-4.42"/><path class="cls-4" d="M1125.67,191.61C1174,156,1225,124,1287,114c56-9,110,1,161,21,47,19,93,40,141.28,56.54"/><path class="cls-4" d="M17,187.6C116,175,215,163,315,172c44,4,87,9,129.34,19.61"/><path class="cls-4" d="M1832.55,191.65c28.77-2.6,57.62-4.39,86.51-4.94"/><path class="cls-4" d="M1127.1,191.45c26.14-18.22,52.79-35.94,81.58-49.73,27.56-13.19,57-22.75,87.37-26.31,32.47-3.8,65.48-1,97.29,6.2,31.63,7.17,62,19,91.91,31.24s59.92,25.34,90.92,35.15q5.77,1.83,11.59,3.49"/><path class="cls-4" d="M17.1,187.56C116,176,216,162,317,171c13,1,26,3,39,4s25,4,38,6c16,3,32,6,47,10.54"/><path class="cls-4" d="M1827.12,191.6C1858,189,1888,187,1919,186.24"/><path class="cls-4" d="M1129,191.53c25.54-17.1,51.55-33.63,79.26-47,28.16-13.61,57.61-23.38,88.79-26.83,30.78-3.4,62-1.24,92.27,5.21,31.79,6.79,62.07,18.89,92.17,30.88,30.87,12.3,61.73,24.72,93.54,34.43q5.74,1.76,11.54,3.35"/><path class="cls-4" d="M16.91,187.57C156,169,300,154,436.61,191.62"/><path class="cls-4" d="M1811.21,191.62C1847,187,1883,186,1919.43,185.87"/><path class="cls-4" d="M1131.32,191.56C1144,184,1155,173,1170,168c34-22,71-38,112-46,47-8,91-2,135,11,58,17,111,43,168.23,58.61"/><path class="cls-4" d="M16.68,187.57C155,168,297,153,432.8,191.57"/><path class="cls-4" d="M1792.9,191.62c42.1-5.62,84.1-5.62,126.16-5.79"/><path class="cls-4" d="M1133,191.33c13.57-8.46,27.34-16.57,41.18-24.57s28.22-16.3,43.16-22.09c14.28-5.54,28.33-11.24,43.21-15.07a255.8,255.8,0,0,1,45.18-7.34c31.11-2.25,62,1.37,92.21,8.75,29.52,7.21,58.13,17.56,86.6,28.09,29.14,10.77,58.25,21.83,88.34,29.71q5.7,1.5,11.45,2.85"/><path class="cls-4" d="M16.56,187.57C20,187,23,186,26,186c8,0,16-2,24-3,5,0,9-1,14-1,124-18,248-24,367,9.63"/><path class="cls-4" d="M1783,191.6c45-4.6,91-6.6,136.07-6.84"/><path class="cls-4" d="M1134.43,191.35C1153,182,1170,171,1189,161l3-3c30-14,60-25,93-31,49-8,96,0,143,15,52,17,102,36,155.34,49.64"/><path class="cls-4" d="M16.41,187.57C107,175,198,161,291,168c46,3,91,10,134.91,23.56"/><path class="cls-4" d="M1763.63,191.6a973.88,973.88,0,0,1,121.29-7.75q17.05-.06,34.1.4"/><path class="cls-4" d="M1137.67,191.51C1186,161,1238,136,1296,128c22-3,44-1,66,2,16,3,31,6,48,10,15,3,28,8,42,12,44,14,86,29,130,39.57"/><path class="cls-4" d="M16.39,187.57C62,181,107,174,153,170a210.52,210.52,0,0,0,25-2h9c52-7,103-2,155,6,28,4,55,9,82.28,17.55"/><path class="cls-4" d="M1744.25,191.64c57.75-7.64,116.75-7.64,175-7.22"/><path class="cls-4" d="M1141.09,191.34c26-14.65,52.17-29.31,79.86-40.52,27.48-11.12,56.29-18.4,86-20.09,30.69-1.74,61.28,2.12,91.15,9.05s58.81,16.44,87.94,25.52,58.52,18.12,88.53,24.17q5.68,1.14,11.4,2.15"/><path class="cls-4" d="M16.39,187.57C22,187,28,185,35,184c27-4,53-7,80-11,93-12,183-14,276,9,1,0,3,2,4,2,10,2,20,4,28.94,7.56"/><path class="cls-4" d="M1725.26,191.6C1789,183,1854,182,1919.25,184"/><path class="cls-4" d="M1143.9,191.58C1195,162,1250,136,1310,133c65-3,125,20,188,38,31,8,60,16,90.65,20.65"/><path class="cls-4" d="M16.57,187.54C91,175,166,164,242,165c47,0,92,4,139,15,1,0,3,2,4,2,13,3,25,5,36.74,9.65"/><path class="cls-4" d="M1695.21,191.61C1769,184,1844,180,1919.2,183"/><path class="cls-4" d="M1146.68,191.55c26.28-13.93,52.43-28.39,80.45-38.59,27.39-10,56.59-16.73,85.82-17.33,15-.3,30.62,0,45.43,2.39s29.77,5.51,44.49,8.71c28.84,6.26,57.22,14.37,85.66,22.19,29.29,8.06,58.75,15.9,88.74,20.9q5.65.94,11.33,1.75"/><path class="cls-4" d="M16.78,187.51C82,177,148,167,214,164c68-2,137,5,202.44,27.55"/><path class="cls-4" d="M1683.41,191.62C1761,181,1841,176,1919.53,182.66"/><path class="cls-4" d="M1150.85,191.39C1173,180,1195,170,1217,159c2-1,3,0,5-1,18-8,37-13,57-17,43-7,84-2,126,8,65,16,125,35,188.76,42.65"/><path class="cls-4" d="M16.57,187.54C53,180,88,177,125,172a77.19,77.19,0,0,1,15-2c93-11,188-9,275.6,21.51"/><path class="cls-4" d="M1655.54,191.62C1743,182,1831,176,1919.3,182.72"/><path class="cls-4" d="M1154.47,191.62c26.58-13.25,53-27.24,81-37.32a240,240,0,0,1,87.79-14c30.62.75,60.36,7,90.11,13.7,29.35,6.62,58.47,14.21,87.78,21,30.19,7,60.58,13,91.49,15.77q5.68.51,11.37.88"/><path class="cls-4" d="M16.39,187.57c26.1-4.25,52.18-8.6,78.34-12.46s52.45-7.23,78.82-9.51a764.35,764.35,0,0,1,79.64-3c26.34.48,52.74,2.4,78.69,7.1a526.81,526.81,0,0,1,72.34,19c2.91,1,5.82,1.95,8.72,2.95"/><path class="cls-4" d="M1158.31,191.62C1195,172,1232,154,1275,146c83-14,159,17,238,32,77,20,156,10,235,3a915.82,915.82,0,0,1,171.26.7"/><path class="cls-4" d="M16.39,187.57c25.59-3.85,51.12-8.09,76.71-12s51.1-7.51,76.8-10.07a716.81,716.81,0,0,1,77.93-3.81,506.24,506.24,0,0,1,79.09,6.8c25.49,4.3,51.28,10.5,75.53,19.53q4.62,1.73,9.21,3.5"/><path class="cls-4" d="M1161.43,191.64A537.33,537.33,0,0,1,1253,153a204.76,204.76,0,0,1,42-7c32-4,62,1,94,7,86,16,165,40,251,36,53-3,105-11,158-13,40-1,81,1,121.42,4.82"/><path class="cls-4" d="M16.41,187.57C109,171,203,154,299,165c39,4,77,12,112.51,26.58"/><path class="cls-4" d="M1164.48,191.61C1184,183,1204,173,1224,164l27-9c47-13,92-10,140-1,53,11,100,22,152,29,36,4,72,7,108,4,26-2,52-7,78-9,44-4,86-6,130-2,20,1,40,3,60,4.22"/><path class="cls-4" d="M16.61,187.55C106,172,196,156,287,162c21,2,42,4,62,10a73.66,73.66,0,0,0,14,4,7.58,7.58,0,0,0,4,2c15,3,27,9,41.12,13.5"/><path class="cls-4" d="M1169.55,191.58C1212,167,1259,151,1308,148c24-1,47,2,72,6,84,15,162,37,245,32,46-3,91-12,137-13,53-1,106,0,157.59,6.61"/><path class="cls-4" d="M16.56,187.57C27,186,36,184,46,182c38-5,73-12,110-17,22-3,43-3,65-5,21-1,41,0,62,1,44,3,85,15,125.7,30.47"/><path class="cls-4" d="M1172.73,191.43C1214,172,1257,153,1303,151c20-1,39,1,59,3,50,7,97,17,147,25,25,4,49,4,74,6,15,1,30,0,45-2,77-6,152-17,229-9h10c18,3,35,3,52.62,5.83"/><path class="cls-4" d="M16.68,187.57C95,174,173,158,252,159c53,1,107,10,156.07,32.66"/><path class="cls-4" d="M1174.51,191.65C1189,185,1203,179,1218,172c2-1,3,0,5-1,46-22,96-22,146-15,21,4,41,6,63,10,22,5,42,8,64,11s43,5,64,6c55,3,108-6,163-11,45-5,89-4,134,0,21,2,41,5,62.43,7.45"/><path class="cls-4" d="M16.68,187.57C104,173,190,153,279,160c45,4,88,14,129.19,31.46"/><path class="cls-4" d="M1176.57,191.63c5.3-1.88,10.19-4.64,15.19-7.16s10.51-4.18,15.73-6.43c2.8-1.21,5.43-2.74,8.2-4,2.51-1.13,5.31-1.28,7.86-2.27,2.34-.9,4.34-2.49,6.63-3.49,2.85-1.25,5.87-2.21,8.81-3.2,22.78-7.74,46.74-11.34,70.75-11.86s48,1.92,71.74,5.44c24,3.56,47.86,8.25,71.79,12.41,24.4,4.23,48.89,7.47,73.59,9.41a570.24,570.24,0,0,0,74.52,1.15c24.76-1.3,49.41-4,74-6.65,24.83-2.69,49.67-5.25,74.6-6.69a604.16,604.16,0,0,1,75.76.75c25.16,1.71,50.23,4.63,75.22,8q9.32,1.23,18.61,2.53"/><path class="cls-4" d="M17,187.54C41,183,64,179,89,174c109-21,218-29,317.33,17.53"/><path class="cls-4" d="M1179.21,191.61C1193,185,1207,178,1222,172a281.15,281.15,0,0,1,31-10c37-9,73-8,110-5,3,0,6,2,9,2,5,0,9,1,14,2,33,4,65,10,98,15,12,1,23,2,34,3,31,2,62,4,93,1,61-6,120-18,181-15,43,2,85,7,127.43,13.17"/><path class="cls-4" d="M16.91,187.57C107,170,199,150,292,160a303,303,0,0,1,106,28c3,1,6,1,8.86,3.44"/><path class="cls-4" d="M1181.52,191.6C1194,184,1207,180,1220,174c4-2,7-2,11-3,36-17,75-17,114-13,67,7,131,19,198,22,57,2,113-8,170-15,10-1,19-1,29-2,42-2,83,1,125,7,18,3,35,6,52.09,8.3"/><path class="cls-4" d="M16.91,187.57C90,175,163,159,237,156c21-1,42,1,63,3a350.14,350.14,0,0,1,64,15,381.35,381.35,0,0,1,42.68,17.47"/><path class="cls-4" d="M1182.28,191.62C1214,176,1247,162,1283,158c29-3,58-2,87,2,103,15,199,28,304,9a77.19,77.19,0,0,1,15-2c78-10,154-2,230.34,10.81"/><path class="cls-4" d="M17,187.55C76,177,134,165,194,158h10c70-7,142,2,204.12,33.62"/><path class="cls-4" d="M1182.13,191.59C1228,167,1278,152,1331,156a194.19,194.19,0,0,0,24,2c3,0,7,2,10,2,5,0,10,1,15,1,28,4,55,9,83,11,4,1,9,2,13,3,82,8,162-1,242-15,68-5,135,6,201.43,17.3"/><path class="cls-4" d="M16.91,187.57C105,171,193,149,283,156c44,4,87,15,126.22,35.55"/><path class="cls-4" d="M1182.63,191.52A9.85,9.85,0,0,0,1186,189c22-9,42-20,65-25,62-15,122-3,183,5,5,0,9,1,14,1a35.53,35.53,0,0,1,10,2c46,6,91,6,137,2,34-2,67-8,101-13,76-10,150,3,223.51,16.67"/><path class="cls-4" d="M16.91,187.57C135,167,262,128,379,178c2,1,3,0,5,1,8,4,17,8,25.23,12.44"/><path class="cls-4" d="M1183,191.42C1212,179,1238,164,1270,160c29-4,57-3,86,0a134,134,0,0,1,20,1c71,9,139,19,210,13,66-6,129-22,195-17,36,3,71,8,107,14,11,2,21,6,31.64,6.37"/><path class="cls-4" d="M17.06,187.55C100,173,183,150,269,153c49,2,98,14,140.72,38.54"/><path class="cls-4" d="M1182.83,191.45C1204,183,1224,171,1246,165c30-8,60-10,91-7,72,5,143,19,216,16,44-2,87-8,132-15h8c2,0,5-2,7-2a245.19,245.19,0,0,0,27-2c65-4,129,9,192.77,21.53"/><path class="cls-4" d="M17,187.55C43,183,69,177,96,172c35-6,68-12,103-17,30-4,59-4,89-2,44,4,86,16,123.54,38.63"/><path class="cls-4" d="M1180.7,191.58A76.3,76.3,0,0,0,1190,186c3-2,8-1,11-3,57-32,120-30,182-22,28,4,54,6,82,9a961.34,961.34,0,0,0,120,2c21-2,41-5,62-9,16-2,31-4,47-7,77-10,151,6,225.47,19.55"/><path class="cls-4" d="M17.06,187.55C104,171,190,147,279,151a306.94,306.94,0,0,1,133.87,40.65"/><path class="cls-4" d="M1179.42,191.48C1182,190,1184,190,1187,189c31-17,63-28,97-32,49-5,96,3,145,10,53,7,104,8,157,2h10c3,0,7-2,10-2,5,0,9-1,14-1,49-8,96-14,144-13,53,2,104,12,155.34,23.61"/><path class="cls-4" d="M17.06,187.55C104,172,191,146,281,150c31,2,62,9,91,22,2,1,3,0,5,1,13,6,26,11,37.47,18.61"/><path class="cls-4" d="M1176.61,191.61C1184,187,1192,185,1199,181c11-4,21-7,32-12,35-13,71-16,108-14,42,3,82,10,124,14a483.8,483.8,0,0,0,85,1,1144.59,1144.59,0,0,0,141-15c9-1,17-2,26-3a484.73,484.73,0,0,1,66,1l30,3c37,6,72,12,108.39,20.63"/><path class="cls-4" d="M17.06,187.55C65,179,111,169,160,159c54-10,104-15,159-5,35,7,67,20,97.24,37.53"/><path class="cls-4" d="M1175.37,191.41C1209,176,1243,158,1281,156c61-4,121,6,182,12,74,7,146-3,220-14,5,0,9-1,14-1,3,0,7-2,10-2,27-1,54-2,81,2h9c42,5,81,16,122.28,22.93"/><path class="cls-4" d="M17.06,187.55C106,171,194,144,285,149a189.33,189.33,0,0,1,47,6c1,0,3,2,4,2,30,7,57,20,82.38,34.59"/><path class="cls-4" d="M1172.77,191.54C1199,178,1227,168,1256,159c27-7,55-8,83-6,40,4,79,10,119,14,40,3,79,5,119-1h10c37-5,72-11,109-15,31-4,62-3,93,0,3,0,6,2,9,2,42,4,81,16,121.83,22.32"/><path class="cls-4" d="M17.1,187.56C112,170,206,140,305,148c21,2,42,8,62,16a372,372,0,0,1,53,27.57"/><path class="cls-4" d="M1168.87,191.66C1202,178,1233,162,1269,155c8-1,15-2,23-3s15,0,23,0c13-1,27,0,40,1,11,1,22,3,34,5,91,16,177,9,267-2,20-3,38-6,58-8a384.38,384.38,0,0,1,48,0,934.14,934.14,0,0,1,127,21c1,0,3,2,4,2,9,2,18,2,26.78,5.2"/><path class="cls-4" d="M17.1,187.56C51,180,87,177,121,166c53-11,107-22,161-20,50,2,99,19,140.51,45.65"/><path class="cls-4" d="M1167.44,191.53C1177,188,1186,182,1196,178c2-1,3,0,5-1,81-42,169-24,255-13,39,5,76,4,115,1,9-1,19-1,28-2,55-7,108-17,163-14,23,1,45,5,68,8,31,5,60,14,89.89,18.46"/><path class="cls-4" d="M17.1,187.56C40,182,63,179,87,174c69-17,135-32,205-29,48,2,93,21,131.55,46.58"/><path class="cls-4" d="M1163.36,191.62C1171,190,1177,184,1185,183c33-18,69-31,107-33,50-4,99,7,149,12h15c56,7,111,4,167-2,48-6,94-13,142-11,53,3,104,16,154.83,27.21"/><path class="cls-4" d="M17.1,187.56C45,182,72,179,100,171c43-12,85-18,129-25,20-2,39-3,59-2,9,1,19,2,28,3,19,3,37,7,54,15a282.36,282.36,0,0,1,55.66,29.55"/><path class="cls-4" d="M1163.3,191.52C1184,182,1204,171,1225,162c17-7,35-11,54-13,74-5,146,12,220,15,32,1,64,1,96-2,42-4,84-12,126-15a375,375,0,0,1,58,2l24,3c40,7,78,15,116.77,23.58"/><path class="cls-4" d="M17.1,187.56C53,182,86,174,123,166a48.75,48.75,0,0,0,7-3c54-12,105-22,159-20,45,2,87,17,127,42,3,2,7,4,11.25,6.48"/><path class="cls-4" d="M1159.7,191.45C1181,184,1200,171,1221,163c15-5,29-11,45-13,27-4,53-4,80-2,74,8,146,18,220,14a310.79,310.79,0,0,0,43-3c12-1,25-3,37-5a77.19,77.19,0,0,0,15-2,538.94,538.94,0,0,1,139,0c41,7,79,15,119.43,23.89"/><path class="cls-4" d="M17.19,187.56C43,183,68,179,94,173c69-18,135-34,205-30a267.22,267.22,0,0,1,68,15,395.42,395.42,0,0,1,54,28,22.32,22.32,0,0,0,7.23,5.39"/><path class="cls-4" d="M1155.67,191.41C1180,182,1202,169,1226,159c44-18,91-16,138-11,3,0,6,2,9,2,8,1,17,2,25,3,60,7,118,12,178,9,41-3,81-9,123-14,6-1,13,0,19-1,37-2,72,3,109,9,32,6,61,14,92.35,19.49"/><path class="cls-4" d="M17.19,187.56C41,182,64,180,88,174c32-8,62-14,94-21a435.49,435.49,0,0,1,129-10c44,3,83,26,119.6,48.37"/><path class="cls-4" d="M1152.14,191.53c22.86-9.76,45.12-20.86,68.22-30.05a255.4,255.4,0,0,1,70.48-17.22c25.28-2.37,50.74-.75,75.91,2,25.45,2.8,50.78,6.53,76.23,9.36s51.26,4.9,77,5.69a761.06,761.06,0,0,0,77.16-1.64c25.59-1.82,51-5.22,76.47-8.05s50.94-4.27,76.57-3a620.44,620.44,0,0,1,76.39,8.87c25.14,4.35,50.08,9.77,75,15q9.14,1.92,18.28,3.8"/><path class="cls-4" d="M17.19,187.56C36,183,55,182,75,177c97-23,193-56,290-22,24,8,46,22,68.05,36.35"/><path class="cls-4" d="M1150.09,191.58c21.33-9,41.8-19.87,63-29.1,22.36-9.72,44.93-16.67,69.21-19.37,25.13-2.8,50.45-2,75.56.6,26,2.73,52,6.17,77.93,9.3,25.69,3.1,51.44,5.89,77.28,7.32a674.71,674.71,0,0,0,78.41-.3c26.16-1.58,52.23-4.38,78.27-7.31s51.76-4.51,77.88-3.58a617.48,617.48,0,0,1,77.69,8.05c25.49,4.16,50.72,10,76,15.33q9,1.9,18.05,3.75"/><path class="cls-4" d="M17,187.6C41,184,64,179,89,174c38-9,72-18,111-26,35-7,68-10,102-8,39,3,77,15,110,36,6,7,16,9,23,15.58"/><path class="cls-4" d="M1147,191.41C1188,174,1226,150,1271,143c54-8,105,1,158,8,8,1,16,1,24,2,86,13,168,3,253-3,73-6,143,12,213.32,26.49"/><path class="cls-4" d="M17,187.6c29.71-5.29,59.29-11.77,88.66-18.7,29-6.84,57.87-14.09,87.11-19.76,29-5.63,58.44-9.65,88-10.18,27.15-.48,53.49,3.19,79.17,12.19,24.62,8.62,47.72,21.09,69.66,35.1q4.13,2.66,8.22,5.36"/><path class="cls-4" d="M1145.36,191.6c21.18-9,41.63-19.53,62.64-28.89,21.62-9.65,44-18,67.39-22.15,25.76-4.55,51.86-3.21,77.78-1.14,26.39,2.11,52.8,6.81,79,10.31s52.06,6.69,78.38,8.19,52.56,1.54,78.92.45,52.63-3,78.92-5.47c25.77-2.46,52.08-5.32,78-3.75,26.15,1.59,52.22,3.41,78.06,8,25.62,4.53,51.11,9.74,76.61,14.9l18.24,3.68"/><path class="cls-4" d="M17,187.6c29.28-4,58.08-10.82,86.77-17.81,28.42-6.92,56.81-14,85.51-19.71,28.5-5.66,57.49-10.33,86.55-11.62,28-1.24,55.86,1.44,82.45,10.67,25.25,8.77,48.71,22,71.17,36.37q4.55,2.9,9,5.88"/><path class="cls-4" d="M1141.75,191.43C1166,183,1187,170,1210,160c28-12,56-21,86-23,26-1,51,1,77,3,3,0,6,2,9,2,23,2,44,6,67,9,5,0,10,1,15,1,3,0,6,1,9,2,45,5,89,7,134,4,34-2,68-6,102-8,71-3,141,11,210.43,26.63"/><path class="cls-4" d="M17.2,187.58C63,181,106,170,152,158a754.73,754.73,0,0,1,80-16c48-6,96-6,141,12,24,9,47,22,68.31,37.64"/><path class="cls-4" d="M1138.11,191.51C1163,181,1189,170,1214,158c3-1,5-1,8-2,27-14,56-19,86-21a375,375,0,0,1,58,2c99,12,194,31,294,17h10c37-4,73-4,110-1,11,1,22,3,34,4,36,6,71,12,105.64,19.87"/><path class="cls-4" d="M17.2,187.58A1268.37,1268.37,0,0,0,142,161a553.66,553.66,0,0,1,88-19c5,0,9-1,14-1,3,0,6-2,9-2,37-2,74-2,109,10,29,10,56,25,80.54,42.53"/><path class="cls-4" d="M1136.75,191.5C1173,176,1208,156,1246,144c13-3,25-6,38-8,28-4,55-2,82,0,3,0,7,2,10,2,5,0,10,1,15,1,32,4,62,10,94,13,3,0,5,2,8,2,72,8,143,3,214-2,24-1,49-1,73,1,48,5,93,16,139.58,24"/><path class="cls-4" d="M17.16,187.6C64,180,108,169,155,157c58-14,114-27,174-17,32,6,60,19,89,34l3,3a114.66,114.66,0,0,1,24.19,14.63"/><path class="cls-4" d="M1133.45,191.65C1187,170,1239,136,1299,133c41-2,80,3,121,8,5,1,9,3,14,3a69.29,69.29,0,0,1,20,3c92,16,181,12,271,5,66,0,131,13,194.58,24.72"/><path class="cls-4" d="M17.16,187.6C86,177,150,158,221,144c37-7,71-10,107-5,18,3,35,7,52,15,24,11,46,23,66.8,37.61"/><path class="cls-4" d="M1132.08,191.5C1183,170,1231,141,1288,133c46-6,91,0,137,8,48,7,94,14,141,16,23,1,46,2,69,0,25-1,50-3,75-4,71-3,141,12,209.76,24.28"/><path class="cls-4" d="M17.47,187.57C47,183,77,177,107,170c37-10,72-17,110-25,31-7,61-8,92-7,51,3,97,25,138.9,53.35"/><path class="cls-4" d="M1131.76,191.57C1139,189,1145,185,1153,182c31-12,60-28,92-40a104.62,104.62,0,0,1,17-4c43-13,86-9,130-3,63,8,124,20,187,23,42,1,83-1,125-3,30-1,60-1,90,2,3,0,7,2,10,2,39,4,77,12,115.18,19"/><path class="cls-4" d="M17.16,187.62c29.7-3.87,59-10.37,88.09-17.27s58.32-14.08,87.74-20c28.91-5.8,58.27-10.83,87.76-12.34,28.77-1.47,57.09,1.61,84.39,11,25.9,8.94,50.07,22.21,73.36,36.5q4.63,2.85,9.22,5.76"/><path class="cls-4" d="M1129.77,191.5C1186,170,1238,136,1299,130c43-4,84,0,128,8,55,9,107,17,161,19,67,2,133-4,200,1,44,4,88,12,131.17,20.23"/><path class="cls-4" d="M17.07,187.64C67,179,115,168,167,157c1,0,3-2,4-2,48-9,92-20,139-17,51,3,98,26,139.58,53.54"/><path class="cls-4" d="M1127.2,191.6C1160,179,1190,163,1223,150c28-11,57-20,87-22,25-1,50-1,76,2,76,11,149,25,225,29,53,2,105-6,158-2,51,4,100,13,150.1,21.25"/><path class="cls-4" d="M17.07,187.64C31,186,44,183,59,180c87-16,167-45,254-40,20,0,39,4,58,11,26,9,48,22,72,35,3,2,5,4,8.1,5.62"/><path class="cls-4" d="M1125.18,191.61C1157,179,1187,165,1219,152c23-10,44-19,69-22,40-5,79-5,119,1,73,11,143,26,215,28,57,1,114-4,172,2,43,4,84,9,125.84,16.65"/><path class="cls-4" d="M17.43,187.61c14.6-2.46,29.28-3.61,43.82-6.52s28.86-6.14,43.23-9.5c28.34-6.65,56.58-13.79,85.12-19.57,28.12-5.7,56.58-10.06,85.28-11.21,29.6-1.18,60.59-.09,88.86,9.19,14.25,4.69,28.09,9.29,41.64,15.81,12.75,6.15,25.16,13,37.34,20.2q4.63,2.76,9.24,5.57"/><path class="cls-4" d="M1123.7,191.62C1158,178,1192,164,1226,148c13-5,25-10,39-14a281.66,281.66,0,0,1,57-9,526.84,526.84,0,0,1,97,6c40,7,77,14,117,21,11,1,21,3,32,4a194.19,194.19,0,0,1,24,2c67,3,133-2,200,3,43,4,85,11,127.51,17.31"/><path class="cls-4" d="M17.21,187.65C31,186,45,184,59,181c88-16,168-44,256-39,50,3,95,25,137.8,49.37"/><path class="cls-4" d="M1120.88,191.59C1161,176,1201,160,1241,143c22-9,44-14,68-17,43-5,83-1,126,6,56,10,108,22,163,26,66,4,132,0,198,4,42,3,82,11,123.3,17.11"/><path class="cls-4" d="M17.23,187.65C29,186,40,185,52,183c83-15,160-40,243-41,56,0,110,20,157.1,49.53"/><path class="cls-4" d="M1121.75,191.55C1155,179,1188,166,1220,151c12-5,24-9,36-14,15-5,31-8,47-11,51-8,98-1,148,7,55,10,106,22,161,26,65,4,129-2,194,6h10c11,1,22,3,34,4,23,3,46,6,69.43,10.17"/><path class="cls-4" d="M17.64,187.62C28,186,37,185,47,184c94-16,183-46,277-40a190.93,190.93,0,0,1,33,6c12,4,24,7,35,12,20,9,40,18,59.17,29.61"/><path class="cls-4" d="M1120.85,191.56C1136,186,1153,182,1168,175c27-13,54-25,82-36,13-4,26-9,40-11a346.9,346.9,0,0,1,45-6c18-1,37,0,55,1,16,1,32,4,48,6,69,12,133,29,201,31,53,2,105,0,158,5,41,3,82,7,122.16,14.6"/><path class="cls-4" d="M17.34,187.66C65,184,111,171,160,161l15-3c53-10,103-16,155-11,12,2,24,4,36,7,13,4,26,9,39,14,16,6,31,16,46.67,23.43"/><path class="cls-4" d="M1118.16,191.56C1162,176,1205,158,1248,141c26-11,53-17,81-19,88-6,170,22,257,34,20,2,39,4,59,5,36,1,73,1,109,2,15,0,30,1,45,2,32,3,63,7,96,11a77.19,77.19,0,0,0,15,2,37.89,37.89,0,0,1,9.54,1.76"/><path class="cls-4" d="M17,187.7C33,186,48,185,64,182c86-15,166-40,251-35,49,2,93,22,136,44.39"/><path class="cls-4" d="M1118.11,191.52A73.21,73.21,0,0,1,1137,186c16-4,31-11,46-17,25-11,48-23,73-32,22-7,44-13,67-16,40-4,78-2,119,6,48,8,91,18,139,27,79,14,154,5,232,13,36,4,71,7,106.39,12.32"/><path class="cls-4" d="M17.23,187.69c29.2-2.77,58.1-8,86.9-13.48s57.75-11.23,86.8-15.93c28.8-4.66,57.86-8.73,87.05-9.72,28.9-1,57.72,1.53,85.72,8.91,26.48,7,51.85,17.56,76.44,29.51q4.64,2.25,9.25,4.57"/><path class="cls-4" d="M1117,191.51C1152,181,1185,168,1218,153c2-1,3,0,5-1,29-13,57-25,89-30,68-10,132,1,199,17,42,10,81,18,123,20,95,6,190,8,285.12,20.37"/><path class="cls-4" d="M17.48,187.68c29-2.6,57.65-7.62,86.24-12.84s57.2-10.52,85.95-14.94c28.59-4.4,57.42-8.26,86.37-9.13,28.61-.85,57.29,1.43,85.13,8.25,26.62,6.51,52.2,16.66,77,28.24q4.57,2.13,9.1,4.32"/><path class="cls-4" d="M1114.36,191.65C1123,189,1133,187,1142,184c12-4,23-8,35-12,43-17,81-40,128-49,82-16,156,2,236,20a7.58,7.58,0,0,1,4,2c3,1,7,1,10,1,23,5,43,9,66,12,16,2,31,3,47,4,44,2,87,3,131,6a1200.52,1200.52,0,0,1,120,12.07"/><path class="cls-4" d="M17.39,187.7C30,186,42,186,55,184c94-14,183-40,278-28a85.24,85.24,0,0,1,23,3c7,3,15,4,22,6,23,8,46,16,67.18,26.63"/><path class="cls-4" d="M1114.2,191.61C1135,186,1156,181,1176,173c42-17,80-37,124-49,40-10,80-10,120-6,3,0,6,2,9,2a430.76,430.76,0,0,1,61,10c35,8,66,18,101,24,16,2,31,5,46,6,83,5,165,7,248,16,3,1,6,2,9,2,8,1,17,1,25,2.57"/><path class="cls-4" d="M17.15,187.73C34,186,51,184,69,182c88-14,171-34,259-25,13,2,24,4,37,7,18,4,33,10,50,16,9,4,18,7,26.62,11.46"/><path class="cls-4" d="M1110.78,191.64C1118,191,1124,189,1131,187c18-4,35-11,52-17,41-16,78-37,122-47,1,0,3-2,4-2,97-21,184,10,278,30a319.23,319.23,0,0,0,68,10c89,6,177,10,264.57,19.42"/><path class="cls-4" d="M17.38,187.73C42,186,66,182,92,178c57-8,111-17,167-21a530.23,530.23,0,0,1,69,2c39,4,75,17,110.27,32.65"/><path class="cls-4" d="M1112.45,191.59C1121,188,1131,188,1141,185l27-9c32-13,62-27,94-40l27-9c15-5,29-8,45-11,30-4,59-4,89-1,58,6,110,25,169,37,86,17,168,13,253,21,18,2,36,3,54,5,7,1,13,2,20,3"/><path class="cls-4" d="M17.38,187.73C25,187,34,187,42,186c90-12,177-31,267-26a364.71,364.71,0,0,1,123.92,31.5"/><path class="cls-4" d="M1109.07,191.57C1130,188,1151,182,1172,175c8-4,17-7,25-10,38-16,73-35,114-44,1,0,3-2,4-2,19-5,37-7,56-8,20-1,40,1,61,3,62,9,117,28,180,41,19,4,37,5,56,6,84,8,168,10,251.44,20.22"/><path class="cls-4" d="M17.48,187.74c27.21-2,54.29-5.51,81.33-9.1s54.05-7.21,81.14-10.26,54.54-5.53,81.93-6.19c26.59-.64,53.29.54,79.59,4.72S392.9,178.73,417.68,188q4.5,1.69,9,3.43"/><path class="cls-4" d="M1104.41,191.65a383.9,383.9,0,0,0,76.73-20.44c25.07-9.57,49.09-21.58,73.79-32a385.53,385.53,0,0,1,75.36-23.51,306,306,0,0,1,80-5c27,1.81,53.71,6.68,80,12.85,26.54,6.21,52.79,13.56,79.21,20.2,26.62,6.68,53.4,12.46,80.65,15.87,27.42,3.42,55,5.07,82.59,6.8,27.89,1.75,55.79,3.51,83.66,5.63,27.69,2.12,55.35,4.53,83,7.44q10,1,20,2.18"/><path class="cls-4" d="M17.4,187.75C52,185,87,181,122,176c5,0,10-1,15-1,3,0,7-2,10-2,92-10,187-18,273.23,18.56"/><path class="cls-4" d="M1099.56,191.59a357.89,357.89,0,0,0,77.8-18.88c25.09-9.13,49-21,73.49-31.62s49.4-19.75,75.38-25.49a314,314,0,0,1,80.84-6.76c27.56,1.17,54.71,6.06,81.5,12.42s53,14,79.52,20.63,53.59,12.69,80.84,16.64,54.87,6,82.41,7.92c27.9,2,55.8,3.83,83.68,6s55.82,4.48,83.67,7.32c6.76.69,13.52,1.42,20.28,2.15"/><path class="cls-4" d="M816.17,191.59c41.37-7.22,82.76-5.94,124.44-2.74,11.61.89,23.21,1.9,34.83,2.8"/><path class="cls-4" d="M17,187.79c26.24-1.53,52.38-4.38,78.49-7.36s52.14-6,78.27-8.35c26-2.37,52-4.2,78.09-4.79s52.18-.28,77.93,3.3c25.41,3.53,50.34,10.24,74.72,18.11q4.5,1.45,9,3"/><path class="cls-4" d="M1090.88,191.66C1124,188,1156,182,1187,169c2-1,3,0,5-1,54-24,105-52,164-59a442.23,442.23,0,0,1,63-2c11,1,22,2,34,4,43,8,81,20,123,32,8,2,15,3,23,5,1,0,3,2,4,2a660.37,660.37,0,0,0,131,16c3,0,7,2,10,2,5,0,11-1,16,0a66,66,0,0,0,14,1c49,4,97,9,144.88,13.19"/><path class="cls-4" d="M791.07,191.64C863,172,937,186,1009.62,191.65"/><path class="cls-4" d="M404.62,191.63c-23.05-7.22-46.45-13.55-70.29-17.57-25.06-4.24-50.54-5.05-75.89-4.41-25.72.65-51.51,1.87-77.18,3.55s-51.51,4-77.22,6.47S52.66,184.73,27,187c-3.23.28-6.45.56-9.67.82"/><path class="cls-4" d="M1057.77,191.66C1039,191,1019,188,1000,189c-75-11-154-23-228.32,2.59"/><path class="cls-4" d="M1919.52,182.87C1804,172,1687,169,1573,141c-69-21-138-46-213-33-32,5-62,12-91,26-2,1-3,0-5,1-21,11-42,20-64,30-18,8-36,12-54,18a204.81,204.81,0,0,1-24,5c-19,2-37,3-54.66,3.66"/><path class="cls-4" d="M396.69,191.6C291,158,180,174,71,184c-18,1-36,3-53.89,3.8"/><path class="cls-4" d="M1919.12,182.8C1819,174,1722,171,1619,151c-4,0-7-2-11-4-8-2-16-3-24-5-59-16-114-37-174-39-50-1-100,9-145,32-2,1-3,0-5,1-29,15-57,29-89,39-8,2-16,5-24,7-45,12-91,9-136,6-83-14-173-28-253.45,3.62"/><path class="cls-4" d="M383.77,191.66C288,163,188,176,89,182l-39,3c-11,1-22,2-33,2.81"/><path class="cls-4" d="M1918.89,182.89C1855,178,1792,173,1728,167c-3,0-7-2-10-2a194.19,194.19,0,0,1-24-2c-27-4-52-7-79-13-1,0-2-2-3-2-8-2-15-3-23-5-1,0-3-2-4-2-3-1-7-1-10-2-19-6-37-13-57-17-3-1-5-3-7-3-20-6-39-10-59-14a274.09,274.09,0,0,0-70-3c-17,2-34,4-51,9-11,3-21,7-31,10-55,20-103,49-162,61-25,5-48,8-72,7a589.56,589.56,0,0,1-59-6,134,134,0,0,1-20-1c-49-8-96-16-145-14-17,1-33,3-49,8-15,5-31,8-45.26,15.55"/><path class="cls-4" d="M372.83,191.55C256,163,135,182,17.12,187.82"/><path class="cls-4" d="M1919,182.25c-13-.25-25-1.25-38-2.25-17-1-33-3-50-4-28-2-54-5-82-8-45-3-88-9-133-20-29-8-56-17-85-26-33-9-64-17-98-21a226,226,0,0,0-52,0c-56,7-107,28-157,52-8,4-18,6-26,10-3,2-5,4-8,5-21,6-41,13-63,16-75,8-145-7-219-18-60-9-119,2-172.5,25.62"/><path class="cls-4" d="M358.67,191.62C247,167,131,183,17,187.83"/><path class="cls-4" d="M1919.05,183.7c-67-4.7-134-9.7-202-18.7-5-1-9-2-14-3-18-1-34-6-52-8a258.51,258.51,0,0,1-40-9c-1,0-2-2-3-2-9-1-17-4-25-6-41-13-79-27-122-34-37-6-72-8-108,1-14,4-28,7-42,11-41,13-77,35-116,50-16,7-32,11-50,15-14,2-28,4-42,5-60,2-117-11-177-20-20-2-39-4-58-5-20,0-40,2-60,5-28,5-54,15-78.86,26.53"/><path class="cls-4" d="M338.55,191.55C233,173,124,183,17,187.84"/><path class="cls-4" d="M1919.05,184q-62.31-5-124.53-11.23c-40.86-4.08-81.84-8.23-122.26-15.63-39.64-7.26-78.13-18.21-116.55-30.2s-76.93-24-117-28a290.22,290.22,0,0,0-118.06,12.6c-36.93,11.93-71.11,30.23-106.85,45.05s-72.76,24.9-111.53,26.52c-41.08,1.72-81.87-4.37-122.18-11.65-39.78-7.19-79.82-15.29-120.42-15.18a295.52,295.52,0,0,0-112.59,23c-9.22,3.83-18.3,8-27.36,12.2"/><path class="cls-4" d="M714.67,191.49c34.75-16.13,70.52-31.48,108.8-36.59,40.65-5.42,82-.14,122.13,7,40.46,7.19,80.72,16,121.83,18.6a318.89,318.89,0,0,0,116.26-13.79c37.6-11.83,72.31-30.91,108.66-45.88,37-15.25,75.71-24.51,115.88-24.8,40.53-.3,80,8.69,118.6,20.36s76.43,24.79,115.64,34c40.16,9.43,81.09,14.83,122,19.39,41.37,4.61,82.84,8.42,124.33,11.75q15.26,1.23,30.53,2.33"/><path class="cls-4" d="M17.51,187.83c39.79-1.2,79.55-3.25,119.35-4.31,39.29-1,78.65-1.15,117.9,1.27,22,1.36,44,3.52,65.86,6.78"/><path class="cls-4" d="M17.09,187.85c36.85-1,73.68-2.29,110.54-3.07s73.52-.87,110.23,1.19c20.53,1.16,41,3,61.41,5.65"/><path class="cls-4" d="M710,191.4c7-3.4,14-6.4,21-10.4,37-16,75-30,115-32,27-1,53,2,80,6,76,13,146,35,224,20,25-5,48-12,70-23,2-1,3,0,5-1,41-20,80-40,126-50,86-20,166,9,245,36,21,8,42,13,65,17,27,5,53,9,80,12,5,1,9,2,14,3,55,7,109,11,163.9,15.64"/><path class="cls-4" d="M17.09,187.85C104,186,192,181,278.55,191.65"/><path class="cls-4" d="M705.23,191.51c35.6-17.73,71.72-35,111.27-41.66,40.44-6.8,81.88-2.64,122,4.38,40.5,7.09,80.58,16.87,121.58,20.75,40.31,3.83,81.59,2.05,120.53-9.7,38.38-11.59,73.72-30.41,110.49-46,37.14-15.75,75.8-25.86,116.33-26.06,40.83-.2,81,8.42,119.92,20.22,39,11.84,77.27,26.35,117,35.78,39.93,9.47,80.72,15.66,121.43,20.66,41.14,5,82.42,9,123.74,12.23q14.93,1.17,29.85,2.22"/><path class="cls-4" d="M17.26,187.86C97,187,176,185,256,191.61"/><path class="cls-4" d="M700.86,191.63C716,182,731,175,747,168c2-1,3,0,5-1,39-19,82-26,125-24,56,4,108,19,164,28,51,7,100,5,149-9,5-1,8-4,13-6,6-1,12-4,18-7a422,422,0,0,0,45-18c1-1,3-2,4-3,24-10,47-21,72-28,12-3,24-5,37-7,16-1,32-2,48-1,9,1,18,2,28,3,10,2,19,4,29,5,1,0,3,2,4,2,8,2,16,3,24,5,45,14,87,30,134,42,92,22,181,29,273.11,35.69"/><path class="cls-4" d="M17.2,187.87C88,186,160,187,231.42,191.63"/><path class="cls-4" d="M696.27,191.59C715,180,735,172,755,162c2-1,3,0,5-1,49-23,102-25,155-17,90,14,175,43,266,19,1,0,3-2,4-2,3-1,7-1,10-2,32-13,63-25,93-41h3c26-11,51-20,79-25,43-7,82-3,124,8,3,1,5,2,8,3,5,1,9,2,14,3,44,14,84,28,130,39a48.75,48.75,0,0,1,7,3c17,4,34,7,51,11,12,3,22,4,34,6,62,11,120,14,181,18.7"/><path class="cls-4" d="M17.2,187.87C81,189,146,186,210.12,191.64"/><path class="cls-4" d="M694.5,191.54C735,169,776,147,824,140c23-3,45-3,68-2,11,1,22,3,34,5,50,7,96,20,145,25,13,1,26,2,39,2,29-1,59-4,87-14,25-9,48-18,71-30,2-1,3,0,5-1,50-27,105-39,161-35,53,3,102,23,152,39a923.61,923.61,0,0,0,201,43c5,1,11,3,16,4,39,3,77,7,116.16,8.74"/><path class="cls-4" d="M17.55,187.88C75,188,131,186,187.5,191.64"/><path class="cls-4" d="M693.94,191.33C719,180,741,165,767,155c10-3,22-7,33-10,1,0,3-2,4-2,86-22,166,7,250,20,43,6,82,5,125-4,1,0,3-2,4-2,40-9,73-28,109-43,2-1,3,0,5-1,28-12,57-19,88-24a196.73,196.73,0,0,1,42-1c72,6,138,35,208,55,5,1,9,2,14,3a7.58,7.58,0,0,1,4,2c5,2,11,2,16,3,83,23,166,31,250,34.79"/><path class="cls-4" d="M17.55,187.88C71,188,123,187,176.39,191.64"/><path class="cls-4" d="M691.81,191.55C734,164,780,144,831,135c21-3,42-3,63-2,51,4,99,17,151,25,29,4,57,6,86,5,43-2,84-15,123-34,3-1,7-2,10-3,7-3,14-7,21-10,3-1,7-2,10-3a303.89,303.89,0,0,1,93-24c22-2,44-1,67,1a50.67,50.67,0,0,0,13,2c8,1,15,5,23,6,8,2,15,4,23,6,55,16,106,36,163,49,1,0,3,2,4,2,57,13,111,21,168,27h10c20,3,40,3,59.92,4.18"/><path class="cls-4" d="M17.65,187.88C66,188,113,189,161,191.64"/><path class="cls-4" d="M690.91,191.38C695,189,699,187,703,185c46-30,93-48,146-54,29-3,57-1,86,3,43,7,83,17,126,23,54,7,107,5,158-14,54-21,104-49,162-55a342,342,0,0,1,64,0c54,7,102,25,153,42,26,9,51,14,77,23h7c11,3,21,7,32,9,29,4,57,10,86,14,40,5,79,8,119.11,10"/><path class="cls-4" d="M17.34,187.89C60,188,104,188,147,191.64"/><path class="cls-4" d="M689.72,191.4C724,170,758,150,798,139c16-4,32-8,49-10,75-8,144,14,218,25,21,2,41,5,62,4,10-1,19-1,29-2,13-2,25-3,37-7,9-3,17-5,26-8,26-10,51-20,76-31,23-9,45-15,70-20,49-9,95-4,141,10,50,16,97,32,147,46,88,26,176,36,265.93,40"/><path class="cls-4" d="M17.34,187.89C57,188,98,188,137.54,191.62"/><path class="cls-4" d="M689.82,191.42C701,185,712,178,723,171c4-2,7-4,11-6,2-1,5-1,7-2,13-8,26-13,40-19,9-3,18-7,28-8,1,0,3-2,4-2,55-13,107-10,163,0,38,7,73,14,110,18,15,1,29,2,44,2,68,0,129-33,193-55a313.64,313.64,0,0,1,61-12c16-2,32-1,48-1,16,1,32,5,48,7,2,0,3,2,5,2,8,0,15,4,22,6a22,22,0,0,1,8,1c61,20,117,41,181,55l9,3c18,4,34,7,52,10a1310.08,1310.08,0,0,0,162.15,16.12"/><path class="cls-4" d="M17.07,187.9C55,188,92,189,129.58,191.64"/><path class="cls-4" d="M690.35,191.4c31.69-20,64.8-38,100.2-50.54C829,127.28,869,121.71,909.75,123.22c42,1.55,83.54,10,124.82,17.16s84.08,12.88,126.09,7.75a347.78,347.78,0,0,0,61.11-12.73c19.59-6.09,38.64-13.93,57.72-21.38,38.42-15,77.59-26.43,119-28.27a297.52,297.52,0,0,1,62.37,4.14c21,3.51,41.05,9.38,61.33,15.8,39.94,12.64,79.4,26.91,119.68,38.45A976.76,976.76,0,0,0,1763,170.84q15.16,2.32,30.39,4.16a109.17,109.17,0,0,1,14.85,2.54c4.86,1.26,10.29,1.22,15.29,1.7,21.55,2.09,43.13,3.91,64.74,5.33q15.39,1,30.79,1.75"/><path class="cls-4" d="M17.07,187.9a911.33,911.33,0,0,1,111.06,3.73"/><path class="cls-4" d="M690.37,191.44C696,188,701,185,707,182c50-33,102-55,160-60a420.83,420.83,0,0,1,71,0c10,1,19,2,29,3,49,7,95,18,144,21a380.13,380.13,0,0,0,67-3c43-7,82-21,122-38,9-4,19-5,29-8,3-1,7-1,10-3,11-4,24-5,36-7,17-2,33-2,50-1,40,3,78,12,117,25,38,13,75,27,114,38,35,9,69,16,105,23a621.92,621.92,0,0,0,72,10c29,2,57,4,86,4.35"/><path class="cls-4" d="M17.07,187.9C51,188,85,189,119.24,191.66"/><path class="cls-4" d="M690.91,191.38A627.92,627.92,0,0,1,770,147c6-3,11-4,17-7,52-21,107-26,163-20h9c15,2,29,4,44,6,16,3,31,6,47,8,5,0,9,1,14,1,3,0,6,2,9,2h6c4,0,7,2,11,3,23,2,45,3,68,2s45-6,68-13c31-9,60-20,90-30,15-4,29-7,44-10,47-8,92-3,137,10,13,4,25,6,38,10,62,21,120,41,186,55l9,3c27,5,51,10,77,13,38,4,75,7,112.45,7.26"/><path class="cls-4" d="M17.07,187.9C49,188,81,189,112.63,191.65"/><path class="cls-4" d="M691,191.47c6-3.47,11-6.47,16-9.47,25-18,50-29,77-42,2-1,3,0,5-1,23-11,47-15,73-20s50-5,75-4c47,3,92,11,139,19,53,8,106,8,157-10,3-1,7-1,10-2,19-7,37-12,56-19,3-1,7-1,10-2a7.58,7.58,0,0,1,4-2c5-1,9-2,14-3,1,0,3-2,4-2,20-4,38-7,57-8a362.23,362.23,0,0,1,57,2c17,3,33,4,49,11h5c45,13,86,28,131,42,6,2,12,2,18,4a835.49,835.49,0,0,0,148,34c42,5,82,7,123.06,7.87"/><path class="cls-4" d="M17.07,187.9C47,188,77,189,107,191.65"/><path class="cls-4" d="M692.25,191.4C711,181,727,169,746,158c34-20,69-32,108-40,46-9,90-7,135-3,2,1,4,2,6,2a77.19,77.19,0,0,1,15,2c73,9,144,27,217,7,38-11,72-25,111-33a254.2,254.2,0,0,1,47-7c46-1,93,7,137,22h4c60,19,115,39,177,53,1,0,3,2,4,2,48,11,94,20,142,23,23,1,47-1,70.12.67"/><path class="cls-4" d="M17.07,187.9C46,188,76,188,104.7,191.63"/><path class="cls-4" d="M692.73,191.54A449.88,449.88,0,0,1,840,120c55-15,110-15,166-7,50,7,97,15,146,18,15,1,29-1,44-2a297.88,297.88,0,0,0,43-9c26-8,51-16,77-23,26-6,52-10,78-10,19,1,38,2,57,5,36,6,69,15,103,26,55,19,108,34,165,49,27,7,53,12,81,14,3,0,7,2,10,2,37,3,73,5,109.22,4.78"/><path class="cls-4" d="M17.08,187.91c26.4.35,52.79,1.68,79.11,3.73"/><path class="cls-4" d="M694.17,191.39C731,168,768,146,808,129c13-5,26-9,40-13a333.32,333.32,0,0,1,55-10,574.83,574.83,0,0,1,83,0c47,4,92,16,139,19,24,2,47,3,71,0,28-4,54-8,81-17,24-8,49-13,74-17,47-6,91-2,137,9,45,12,86,28,130,42,3,1,7,1,10,2,95,30,193,45,291,44.27"/><path class="cls-4" d="M17.08,187.91c26.05-.13,52.07,1.51,78,3.73"/><path class="cls-4" d="M695.77,191.51C741,160,789,134,842,117c19-5,37-10,56-13,35-5,68-4,102,0,74,8,144,26,219,16,13-2,26-4,39-8,25-8,48-13,74-17,54-9,106-8,158,8,3,1,8,2,12,3,16,4,30,8,45,13,61,21,119,39,184,53a878.89,878.89,0,0,0,99,15c30,2,59,1,89.14,1"/><path class="cls-4" d="M17.08,187.91C50,188,84,191,117.46,193.85"/><path class="cls-4" d="M696.83,191.48A647.13,647.13,0,0,1,808,129c34-15,68-25,105-30,39-5,76-3,115,2,66,9,129,27,197,15,44-8,84-20,127-24,28-3,55-2,83,1,16,2,32,4,47,10,1,0,1,2,2,2h7c41,10,78,24,117,37,68,21,135,37,206,44a821,821,0,0,0,104.92,2.52"/><path class="cls-4" d="M17.08,187.91c25.53.34,51,1.65,76.45,3.71"/><path class="cls-4" d="M698.14,191.3a639.75,639.75,0,0,1,103-58.62c18-8.2,36.35-16.51,55.25-22.46A453.25,453.25,0,0,1,916,95.85c40.69-6.95,81.76-4.69,122.41,1.37,41.12,6.14,81.73,16.07,123.29,19,41.37,2.9,81.29-4.48,121.68-12.49a618.86,618.86,0,0,1,62.5-9.49c10.68-1,21.38-1.65,32.09-2.3,10-.6,19.93.74,29.92,1,41.12,1.19,81,12.49,119.74,25.42Q1586,137.82,1645.34,154c39.22,10.74,78.86,20.13,119,26.64,41.28,6.7,82.71,9.26,124.51,8.82,10.07-.1,20.13-.34,30.19-.64"/><path class="cls-4" d="M17.08,187.91c25.26.33,50.49,1.69,75.67,3.7"/><path class="cls-4" d="M698.35,191.46C717,180,734,168,753,156c28-15,54-29,83-41,27-11,54-18,83-24,21-4,41-5,62-5a325.58,325.58,0,0,1,62,6c35,5,67,12,102,18a351.67,351.67,0,0,0,56,4c13-1,25-1,38-3,28-5,53-10,81-14,54-7,106-3,160,9,1,0,3,2,4,2,5,1,9,2,14,3,31,10,60,20,91,29,33,9,64,19,98,25a48.75,48.75,0,0,1,7,3c33,8,64,13,98,18,43,6,85,6,127.08,3.25"/><path class="cls-4" d="M17.07,187.9c27.5-1.13,54.89.83,82.22,3.71"/><path class="cls-4" d="M700,191.29c33-22.1,66.87-42.93,102.5-60.46,35.23-17.33,72-32.08,110.37-40.84,40.46-9.24,82.06-9.49,123-3.69,40.65,5.76,80.52,16.13,121.3,21.09,41.46,5,82.7,1,123.9-4.45s82.76-9,124.43-5.33c40.33,3.59,79.92,13.2,118.67,24.65,39.38,11.63,78.32,24.7,118,35.15A1218.65,1218.65,0,0,0,1764.08,183c41.27,6.44,82.63,8,124.35,7,10.18-.26,20.36-.66,30.53-1"/><path class="cls-4" d="M17.08,187.91c25.46.43,50.9,1.77,76.29,3.73"/><path class="cls-4" d="M700.75,191.4C774,140,852,96,942,81c75-13,142,10,215,23,24,4,46,6,70,3,62-6,123-13,186-6,78,8,148,38,225,58,8,2,16,3,24,5l9,3c34,8,65,13,99,19,50,7,99,6,148.94,3.22"/><path class="cls-4" d="M17.08,187.91c25.32.18,50.62,1.67,75.85,3.75"/><path class="cls-4" d="M1881.62,191.65c12.48-.66,24.94-1.39,37.42-2"/><path class="cls-4" d="M700.89,191.63C718,179,736,168,755,156c13-8,25-13,37-21,7-4,14-6,21-11,23-13,47-22,71-32,40-16,82-22,124-20,55,4,106,22,161,30,34,5,66,4,100,1,66-7,130-7,197,8,5,1,9,4,14,5,31,6,57,17,88,24,3,1,6,3,9,4,18,4,35,10,53,15,61,16,120,26,181.31,32.62"/><path class="cls-4" d="M17.07,187.9c28.57-1.36,57.15,1.16,85.59,3.71"/><path class="cls-4" d="M1892.15,191.64c8.92-.67,17.84-1.35,26.77-1.9"/><path class="cls-4" d="M701.45,191.53C736,167,773,146,811,125c13-7,24-14,37-20,40-16,79-34,122-37,72-6,138,19,209,32,51,9,101,2,151,0,49-1,97,6,146,19,108,29,211,62,320.91,72.66"/><path class="cls-4" d="M17.07,187.9c28.93.1,58.93.1,88.28,3.76"/><path class="cls-4" d="M1900.74,191.61c6.23-.5,12.47-1,18.71-1.49"/><path class="cls-4" d="M703.51,191.52C710,185,718,181,726,175c4-2,8-5,12-7,3-1,5-4,7-6,58-35,111-68,174-89,21-7,42-10,64-12,19-1,37,1,56,3a559.43,559.43,0,0,1,56,12c41,12,81,24,123,26,52,2,104-3,157,1,56,5,109,20,163,36,80,23,158,44,239,52.59"/><path class="cls-4" d="M17.07,187.9c28.93.1,58.93.1,87.49,3.75"/><path class="cls-4" d="M1905.21,191.6q7.13-.76,14.26-1.58"/><path class="cls-4" d="M703.5,191.53C734,168,767,149,801,130l3-3,15-9c3-2,5-2,8-4,2-2,4-4,7-5,23-12,44-24,68-33,3-1,5-1,8-2,48-21,101-23,153-11,5,1,9,2,14,3,4,0,8,3,13,4,31,7,58,19,90,25a332.07,332.07,0,0,0,44,6c48,2,96,1,145,4,10,1,19,2,29,3,17,2,33,7,50,9a7.58,7.58,0,0,1,4,2c6,2,12,2,18,5,5,2,10,2,15,3,39,10,73,23,112,32,37,10,70,16,108,24,21,4,40,6,59.72,8.61"/><path class="cls-4" d="M17.08,187.91q43.52,1.09,87,3.75"/><path class="cls-4" d="M1903.54,191.59c5.18-.7,10.35-1.39,15.54-2"/><path class="cls-4" d="M705.37,191.38C736,170,766,150,799,131a226.3,226.3,0,0,0,20-13c4-2,9-5,13-7,4-3,7-5,11-8,42-24,82-44,130-51,31-5,61-3,92,5,60,16,115,38,176,43,41,3,81,2,123,8,32,4,62,8,93,17a116.27,116.27,0,0,1,18,4c38,9,72,20,110,29,1,0,3,2,4,2,11,3,22,5,33,8,44,11,86,18,129.9,23.64"/><path class="cls-4" d="M17.07,187.9c29.93.1,60.93.1,90.85,3.74"/><path class="cls-4" d="M1906.3,191.6q6.46-.89,13-1.66"/><path class="cls-4" d="M707.12,191.52c14-10.31,27.44-21.84,42.29-31,15.32-9.42,30.63-18.86,45.84-28.46,29.62-18.68,59-38.27,90.07-54.45,28.93-15.07,59.93-26.68,92.39-31,34.58-4.6,69.54.29,102.93,9.64,33.15,9.27,65,22.68,98.22,31.76a308.31,308.31,0,0,0,50.27,9.75c18.07,1.82,36.21,3,54.31,4.39,36.14,2.89,72.38,5.89,108.18,11.8,35.16,5.81,69.83,14.23,104.16,23.73,34.87,9.65,69.59,19.87,104.73,28.51s70.75,15.56,106.47,21.4q12.9,2.12,25.82,4"/><path class="cls-4" d="M17.07,187.9C47,188,78,188,107.9,191.66"/><path class="cls-4" d="M705,191.43C756,154,809,122,864,86c34-21,67-36,106-44,36-7,71-3,105,7,46,15,88,35,137,44,53,9,102,12,155,20,32,4,61,12,93,18,2,1,3,2,5,3,18,4,35,10,53,13,65,22,132,34,200.46,44.6"/><path class="cls-4" d="M17.07,187.9C47,188,78,187,107.9,191.66"/><path class="cls-4" d="M1908.34,191.63c3.66-.62,7.32-1.31,11-1.91"/><path class="cls-4" d="M708.72,191.44C744,165,778,141,817,117a43.49,43.49,0,0,0,7-6c49-33,91-65,149-75,48-8,94,2,138,21a879.67,879.67,0,0,0,102,36c27,3,54,8,82,12,52,7,100,16,152,28,33,8,64,15,96,26,7,2,14,3,21,5,27,8,52,13,80,18,20,3,39,6,59,9.59"/><path class="cls-4" d="M17.07,187.9C34,189,50,187,67,189c14,1,29,1,42.76,2.64"/><path class="cls-4" d="M1909.19,191.58c3.27-.57,6.54-1.12,9.83-1.61"/><path class="cls-4" d="M707.79,191.32C738,171,765,150,797,130c2-2,4-5,7-6,6-3,10-7,16-10,15-10,28-21,44-30l3-3c9-6,18-10,28-16l3-3c36-20,75-35,116-35,43,1,83,18,122,36,35,16,70,26,108,33,70,13,133,25,202,40a56.38,56.38,0,0,1,12,4c25,7,48,13,73,20,3,0,7,0,10,1,7,3,15,4,23,6a7.58,7.58,0,0,0,4,2c8,2,16,3,24,5,1,0,3,2,4,2,28,7,55,11,82.17,15.56"/><path class="cls-4" d="M17.07,187.9C48,187,80,186,111,191.64"/><path class="cls-4" d="M1911.54,191.59c2.46-.49,4.92-1,7.37-1.43"/><path class="cls-4" d="M708.49,191.41c26.78-20.49,54.81-38.76,82.65-57.73S845.42,93.26,873.24,74c25.19-17.44,51.9-33.38,81.28-42.65,31.53-10,64.71-10.53,97-3.77s62.25,20.56,92.19,34,59.76,25,91.73,32.53c33.72,7.89,67.85,13.83,101.76,20.83,34.19,7.06,68.14,15.31,102,24,33.62,8.63,67.05,18,100.65,26.7s67.24,16.7,101.44,22.22c8.39,1.35,16.8,2.59,25.21,3.77"/><path class="cls-4" d="M17.07,187.9C51,188,85,187,117.51,191.62"/><path class="cls-4" d="M707.91,191.35C732,175,754,159,778,142c41-30,74-57,116-86,3-2,5-2,8-4l3-3c29-17,58-29,91-32,34-2,67,4,97,19h4c15,6,30,13,45,20,6,4,12,6,18,10a100.92,100.92,0,0,1,15,7h4c7,2,12,7,19,8,2,1,4,3,7,4l9,3c16,4,31,6,48,10,1,0,3,2,4,2,77,19,147,38,223,58,8,2,16,3,24,5,1,0,3,2,4,2,10,2,19,4,29,6,1,0,3,2,4,2,32,7,61,13,91.55,18.64"/></g></g></g></svg>