<?xml version="1.0" encoding="utf-8"?>
<!-- Generator: Adobe Illustrator 26.0.1, SVG Export Plug-In . SVG Version: 6.00 Build 0)  -->
<svg version="1.1" id="Layer_1" xmlns="http://www.w3.org/2000/svg" xmlns:xlink="http://www.w3.org/1999/xlink" x="0px" y="0px"
	 viewBox="0 0 1920 190" style="enable-background:new 0 0 1920 190;" xml:space="preserve">
<style type="text/css">
	.st0{fill:#383838;}
	.st1{opacity:5.000000e-02;}
	.st2{fill:none;stroke:#FDFEFF;stroke-width:0.5;stroke-linecap:round;stroke-linejoin:round;}
</style>
<g>
	<g id="Layer_1_00000103962005693062546020000004504429386606969534_">
		<rect y="0" class="st0" width="1920" height="190"/>
		<g class="st1">
			<path class="st2" d="M275.2,191.6C189,188,103,191,17.1,187.9"/>
			<path class="st2" d="M1538.9,191.6c-29.6-7.5-58.7-16.7-87.2-27.5c-28.7-10.7-56.8-22.7-85.1-34.3
				c-28.1-11.6-56.4-22.7-85.4-31.9s-58.7-16-88.2-23.4s-58.5-17-88-24.4s-59.5-11.9-89.9-10.6c-29.8,1.3-58.9,8.3-86.7,18.9
				s-53.9,24.4-79.8,38.7c-26.5,14.7-53,29.1-80.3,42.4c-26.9,13.1-53.2,27.2-79.4,41.6c-6.4,3.5-12.8,7-19.3,10.4"/>
			<path class="st2" d="M1919.2,189.6c-9,0.6-18,1.2-27,2.1"/>
			<path class="st2" d="M297,191.6c-11-2.6-23-1.6-34-1.6c-31-1-63-2-94,0c-51,2-101-2-151.9-2.1"/>
			<path class="st2" d="M1531.8,191.6c-9.8-4.6-20.8-4.6-31.8-7.6c-28-9-55-18-82-29c-27-10-55-20-82-31c-15-6-30-11-46-16
				c-22-7-43-11-66-17c-38-8-72-18-109-29c-5-1-9-2-14-3c-1,0-3-2-4-2c-68-19-139-20-202,13c-2,1-5,0-7,1c-56,28-109,55-165,84
				c-21,12-41,25-62.9,36.5"/>
			<path class="st2" d="M1919.1,188.9c-9.6,0.5-19.1,1.6-28.6,2.7"/>
			<path class="st2" d="M308.9,191.6C289,186,268,187,248,187c-29-1-57,0-86,2c-48,2-97-1-144.9-1"/>
			<path class="st2" d="M1523.8,191.6C1506,185,1486,185,1468,176h-5c-58-18-111-39-169-57c-2,0-5,1-7,0c-34-14-71-15-107-25
				c-23-6-45-13-67-21c-30.9-13-63.6-21.1-97-24c-14-2-29-1-43-1c-12,1-24,3-37,5c-23,4-43,13-64,22c-68,29-131,62-196,102
				c-9,5-19,8-27.2,14.6"/>
			<path class="st2" d="M1919.1,189.3c-11.8,0.5-23.5,1.3-35.3,2.3"/>
			<path class="st2" d="M316.5,191.6C303,189,288,188,273,188c-85-3-171,1-255.9-0.1"/>
			<path class="st2" d="M1509.1,191.6C1497,186,1484,187,1472,183c-1,0-2-2-3-2c-11-3-21-6-31-9c-6-2-12-3-18-5c-30-9-59-19-90-28
				c-3-1-5-3-8-4c-5-1-11-1-16-3c-1-1-2-2-3-2c-36-10-69-13-106-20c-13-3-25-7-37-10c-64-21-125-54-194-51c-21.3,0.9-42.5,4.2-63,10
				c-14,4-27,9-41,14c-50,21-96,44-143,73c-3,2-6,2-9,4c-23,14-45,28-68.4,41.4"/>
			<path class="st2" d="M1919.5,188.5c-10.5,0.4-21.1,1.5-31.5,3.1"/>
			<path class="st2" d="M326,191.6c-38-8.6-77-8.6-115-7.6c-65,3-129,4-193.9,3.9"/>
			<path class="st2" d="M1497.5,191.6C1470,184,1443,178,1415,169c-3-1-7-1-10-2c-1.1-1.1-2.5-1.8-4-2c-3-1-7-1-10-2
				c-63-22-126-31-192-41c-6.1-0.9-12.1-2.2-18-4c-9-3-17-5-26-8c-11-4-21-9-32-12c-5-2-10-6-15-8c-15-6-30-10-45-16
				c-18.7-8-38.1-14-58-18c-30-7-58-8-88-3c-35,6-66,18-97,33c-4,2-9,3-14,5c-32,14-60,31-90,49c-6.7,3.8-13.1,8.1-19,13
				c-14,10-28,16-43,26c-8,4-15,8-22.8,12.4"/>
			<path class="st2" d="M1919,189c-11.4,0.2-22.8,1-34.1,2.6"/>
			<path class="st2" d="M335.4,191.6C315,187,295,185,275,184c-46-3-91,1-137,3c-40,2-81,1-120.9,0.9"/>
			<path class="st2" d="M1482.4,191.6C1464,185,1446,184,1427,179l-9-3c-1,0-3-2-4-2c-9-2-19-3-28-5c-8-3-15-4-23-7c-12-3-24-7-37-8
				c-3,0-5-2-7-3c-23-6-46-9-69-12c-37-4-74-9-109-24c-2-1-3,0-5-1l-12-6c-2-1-3,0-5-1c-5-3-10-5-15-9c-7-4-15-5-22-8
				c-36-16-72-32-112-37c-54.1-5.1-108.6,5.3-157,30c-5,2-10,3-15,5c-21,10-40,20-60,32c-32,20-59,39-91,58c-9,5-18,9-26.3,13.6"/>
			<path class="st2" d="M1919.5,189.5c-16.4,0.4-33-0.6-49.3,2.1"/>
			<path class="st2" d="M344,191.5c-25.7-5.4-51.8-8.6-78-9.5c-39-2-79,2-118,4c-44,1-87,3-130.9,2"/>
			<path class="st2" d="M1465.3,191.6C1376,171,1287,150,1196,144c-15-5-31-8-46-15c-2-1-3,0-5-1c-38-17-74-35-112-53c-2-1-3,0-5-1
				c-11-6-23-9-35-13c-20-6-40-8-61-10c-65-4-124,24-181,55l-15,9c-9,7-18,11-28,18c-8,7-16,12-25,18c-3,1-6,3-9,4
				c-20,13-38,26-59.5,36.5"/>
			<path class="st2" d="M1919,188.8c-13.6,0.6-27.2,1.6-40.7,2.8"/>
			<path class="st2" d="M353.9,191.6C303,181,252,180,200,181c-61,2-122,8-182.9,6.9"/>
			<path class="st2" d="M1444.8,191.6C1391,182,1338,168,1283,162c-20-3-40-3-60-4c-20-2-39-4-58-11c-5-3-11-5-16-7
				c-10-4-20-7-29-12c-17-10-33-17-50-28c-14-8-28-16-43-22c-4-1-9-3-13-4c-5-3-10-4-15-6c-3-1-6-4-9-5c-17-5-33-10-50-12
				c-28-3-56-2-84,5c-1,0-3,2-4,2c-53,12-95,39-140,69c-5,2-9,5-13,7c-26,17-49,34-76,48c-4,2-6,5-10,7c-2,1-5,1-7.2,2.5"/>
			<path class="st2" d="M1919.1,188.6c-12.6,0.6-25.1,1.9-37.6,3.1"/>
			<path class="st2" d="M364,191.6c-23-5.6-47-7.6-71-10.6c-27.2-2.8-54.7-3.2-82-1c-65,4-129,9-193.9,8"/>
			<path class="st2" d="M1423,191.6c-52-8.6-104-16.6-157-21.6h-10c-4.6-0.8-9.3-1.2-14-1c-31-3-62-5-92-16c-21-9-40-20-61-32
				c-5-3-10-7-15-10c-19-11-37-21-56-32c-9-5-18-7-26-12c-2-1-6,0-8-1c-16.1-7-32.8-12.3-50-16c-59-11-113,5-164,33l-3,3
				c-27,13-49,30-75,48c-3,2-5,2-8,4c-26.8,20.3-55.3,38.2-85.2,53.6"/>
			<path class="st2" d="M1919.2,188.4c-16.4,0.5-32.8,1.7-49.1,3.2"/>
			<path class="st2" d="M362.4,191.6C313,177,260,178,209,178c-64,6-128,9-191.9,9.9"/>
			<path class="st2" d="M1382.7,191.6C1321,182,1258,180,1195,177c-71-13-123-64-186-98c-17.7-10-36.5-18.1-56-24c-14-4-27-8-41-9
				c-15-2-29-3-45,0h-9c-13.9,2-27.6,5-41,9c-39,13-69,35-104,59c-32,22-59,43-92,62c-10,5-19,11-30.3,15.5"/>
			<path class="st2" d="M1919.2,188.3c-19,0.6-38,2-56.9,3.3"/>
			<path class="st2" d="M370.9,191.6c-21.4-4.7-42.8-9.1-64.5-11.6c-22.9-2.6-45.6-4.7-68.7-4.4c-23.6,0.3-46.9,2.5-70.4,4.7
				s-47.1,4-70.7,5.3s-47.3,2.1-71,2.2c-2.9,0-5.8,0-8.7,0"/>
			<path class="st2" d="M1323.3,191.6C1279,188,1236,193,1191,187c-11.6-1.9-23-4.9-34-9c-13.8-6-27.2-13-40-21c-33-21-61-42-94-63
				c-4-2-8-5-13-7c-3-1-5-4-8-6c-2-1-3-1-5-2c-79-54-176-47-251,8c-4,3-9,6-14,7l-3,3c-2,1-5,2-7,4c-44,36-85,69-136,90.5"/>
			<path class="st2" d="M1919.3,189.3c-14.4,0.7-28.8,1.4-43.2,2.3"/>
			<path class="st2" d="M376.2,191.6C317,176,257,172,196,176c-27,2-54,5-81,8c-33,3-65,4-97.9,3.9"/>
			<path class="st2" d="M1166.3,191.6c-18-6.5-35.2-15.1-51.3-25.6c-35-23-64-46-99-71c-2-1-5-2-7-3c-44-34-96-54-150-52
				c-13,1-26,2-38,6c-25,9-48,18-70,34c-3,2-5,2-8,4c-44,29-79,62-124,87l-3,3c-12,8-24,12-36.5,17.6"/>
			<path class="st2" d="M1919,187.4c-22.4,0-44.7,1.9-67,4.2"/>
			<path class="st2" d="M385.6,191.6C341,182,295,173,249,174c-47,0-92,6-139,10c-31,3-62,5-93,3.9"/>
			<path class="st2" d="M1142,191.6c-38-19.6-71-46.6-104.2-73c-32.6-26-66.5-52.4-105.7-67.4c-20.8-8-41.9-13.1-64.3-13.6
				c-22-0.4-43.9,3.3-64.7,10.8c-9.9,3.5-19.7,7.6-29.2,12.2c-9.9,4.8-19.3,11.2-28.5,17.3c-17.6,11.8-34.6,24.5-51.2,37.5
				s-33.1,26.8-50.7,38.9c-17.5,12.2-36.2,22.7-55.6,31.5c-4.5,2-9.1,3.9-13.7,5.7"/>
			<path class="st2" d="M1919.1,189.3c-16.4,0.6-32.9,0.6-49.2,2.3"/>
			<path class="st2" d="M387.6,191.6C361,186,335,180,308,176c-68-9-132,2-199,7c-31,3-61,5-91.9,4.9"/>
			<path class="st2" d="M1122.4,191.6C1114,185,1105,180,1096,173c-72-56-132-128-225-138c-49-5-93,15-134,44c-37,26-65,52-102,78
				c-2,1-5,2-7,3c-7,6-14,10-22,15c-12,6-24,12-37.1,16.6"/>
			<path class="st2" d="M1919,186.9c-23.2,0.7-46.8,0.8-69.8,4.7"/>
			<path class="st2" d="M392.3,191.5C352,180,311,175,270,172c-31-2-63,1-94,4c-53,3-106,11-158.9,11.9"/>
			<path class="st2" d="M1108.4,191.4c-17.5-12.6-33.9-26.5-50-40.8c-15.8-14.1-31.4-28.4-47.6-42.1c-15.2-12.9-30.7-25.5-47.1-36.7
				c-16.3-11-33.5-20.7-51.9-27.8c-19.2-7.4-39.5-12.3-60.1-12.5c-19.8-0.1-39.5,3.6-58,10.8c-18.9,7.2-36.5,17.5-53.1,29.1
				c-18.2,12.8-35.3,27.2-52.6,41.2s-34.6,27.8-52.8,40.4c-18.3,12.8-38,23.7-58.6,32.5c-4.9,2.1-9.9,4-15,5.8"/>
			<path class="st2" d="M1919.5,186.7c-24.5,1.3-49.5,2.3-73.3,5"/>
			<path class="st2" d="M1848.4,191.6c23.4-2.5,47-3.8,70.6-4"/>
			<path class="st2" d="M559.3,191.6c39.2-13.3,73.8-36.6,106.1-62.1c32.5-25.6,63.3-54.1,99.6-74.5c17.9-10.1,37-18.4,57.4-21.8
				c20.2-3.3,40.9-2.4,60.8,2.4c39.2,9.4,73.4,33.1,104.1,58.5c33.8,28,64.8,59.2,98.3,87.4c4,3.3,8,6.6,12.1,9.9"/>
			<path class="st2" d="M17.6,187.9C75,187,131,180,188,174c35-3,70-4,105-1c36,4,71,11,106.4,18.6"/>
			<path class="st2" d="M557.8,191.5C575,186,590,178,606,170l3-3c49-28,85-65,131-99c32-23,66-40,105-39c17.4,0.8,34.6,4.2,51,10
				c42,17,76,45,109,76c2,2,5,3,7,5c3,3,6,7,9,10c22,21,44,42,66.1,61.5"/>
			<path class="st2" d="M17.5,187.9C40,187,63,187,85,184h10c27-3,54-6,81-10c6-1,12,1,18,0c71-11,139,2,207.2,17.6"/>
			<path class="st2" d="M1846.3,191.7c24.1-3.5,48.4-4.6,72.8-4.7"/>
			<path class="st2" d="M556,191.5C621,168,670,123,724,79c37-30,79-56,128-51c15,2,30,5,44,11c10,5,20,10,30,16c12,7,22,15,33,23
				c40,32,72,67,107,103c4,3,7,7,11.8,10.4"/>
			<path class="st2" d="M17.2,187.9C53,187,89,185,125,181c3,0,6-2,9-2c5,0,9-1,14-2c34-4,68-7,102-7c16-1,32,1,48,2c2,0,5,2,7,2
				c9,1,19,1,28,2c8,1,14,4,22,5c18,4,34,8,50.6,10.7"/>
			<path class="st2" d="M1844.7,191.7c24.7-3.5,49.6-4.6,74.5-4.7"/>
			<path class="st2" d="M552.9,191.6c38.6-12.4,72.4-35.1,103.8-60.2c32.8-26.2,63.3-56.2,99.1-78.5c33.5-20.8,71.6-32,110.8-22.8
				c38.5,9.1,71.1,33.5,100.2,59.2c32.3,28.5,61.3,60.4,91.5,91.1c3.7,3.7,7.3,7.4,11.1,11.1"/>
			<path class="st2" d="M17.1,187.8c12.8-0.5,25.6-0.5,38.4-1.5c6.3-0.5,12.6-1.4,18.9-1.9c6.1-0.5,12.3,0,18.4-0.8
				s12.1-1.9,18.3-2.5c6.4-0.6,12.7-1.3,19.1-2.1c12.8-1.6,25.6-3.4,38.4-5s25.7-1.6,38.4-3.3c6.2-0.7,12.5-1.1,18.8-1.2
				c6.4-0.2,12.8-1,19.2-1.1c25.5-0.3,51.7,2.5,77,6.1c25.5,3.7,50.5,9.8,75.7,15.1c3.1,0.7,6.3,1.3,9.4,2"/>
			<path class="st2" d="M1843.4,191.6c25-3.6,50.3-4.6,75.6-4.7"/>
			<path class="st2" d="M550.3,191.5c38.5-12,72.4-34.2,103.8-59c32.5-25.7,62.1-55.5,96.8-78.4c16.4-10.8,34.2-19.7,53.3-24.9
				c19.8-5.4,40.4-4.9,60.2,0.2c38.2,9.7,70.9,34.5,99.5,60.7c30.7,28.2,58.2,59.7,86.8,90.1c3.6,3.8,7.2,7.6,10.8,11.4"/>
			<path class="st2" d="M17.2,187.9C78,187,138,176,200,170c13-1,26-1,39-2c24-1,48,1,72,4c34,5,66,13,99.2,19.6"/>
			<path class="st2" d="M1842.4,191.6c25.4-4.1,51.1-4.8,76.7-4.6"/>
			<path class="st2" d="M553.4,191.5c16.9-5.6,33.2-12.8,48.6-21.5l15-9c33-22,59-46,88-72c10-8,19-15,29-23c20-14,38-26,60-34
				c10.1-3.1,20.5-5.1,31-6c29-2,56,8,82,23c18,11,33,24,49,37c8,7,15,15,23,22c11,12,21,23,32,34c2,3,4,5,6,8
				c7.9,7.9,15.2,16.2,22,25c5.9,4.8,11.2,10.3,15.8,16.4"/>
			<path class="st2" d="M17.2,187.9C44,188,71,185,99,183c3,0,6-2,9-2c5,0,10-1,15-1c35-5,70-10,105-12c60-2,120,8,177.8,23.6"/>
			<path class="st2" d="M1841.9,191.6c25.5-4,51.4-4.8,77.2-4.7"/>
			<path class="st2" d="M555,191.5c37.7-12.9,71-35.4,101.9-60.1c29.9-23.8,57.3-51,88.4-73.3c32.1-23,69.6-36.8,109.2-28.2
				c18.9,4.1,36.4,12.5,52.9,22.5c8.5,5.1,16.9,10.6,24.2,17.3s15.5,12.1,22.5,19.1c29.3,29.5,57,60.2,84.5,91.4
				c3.3,3.8,6.7,7.6,10.1,11.4"/>
			<path class="st2" d="M17.1,187.9C64,187,109,179,156,174h10c5-1,9-2,14-3c29-2,58-4,87-3c21,1,41,4,62,7c18,3,34,7,52,10
				c10,2,19,5,27.8,6.6"/>
			<path class="st2" d="M1841.5,191.6c25.5-5.6,51.5-4.6,77.7-5.1"/>
			<path class="st2" d="M555.7,191.5c38.1-12.6,71.2-35.7,102.2-60.7c30.3-24.5,58.3-52.3,90.7-74.2c15.7-10.6,32.7-19.7,50.9-25.1
				c17.7-5.3,36.4-4.8,54.2-0.4c37.2,9.1,68.9,33,96.5,58.7c29.8,27.8,56,59.2,82.6,89.8c3.4,3.9,6.8,7.8,10.2,11.7"/>
			<path class="st2" d="M17.3,187.9c25.7-0.6,51.4-2.4,76.9-5.6c25.5-3,50.9-7,76.4-9.9s51.4-4.9,77.1-4.6
				c25.2,0.4,50.4,2.7,75.3,6.8c24.9,3.9,49.4,9.4,74,15c3.1,0.7,6.1,1.4,9.2,2.1"/>
			<path class="st2" d="M1841.3,191.6c25.8-4.1,51.9-4.9,78-4.7"/>
			<path class="st2" d="M558.7,191.5C593,180,622,160,650,137c1-1,3-1,4-2c10-9,20-17,29-26c3-3,8-4,11-7c42-39,90-82,152-72
				c17,3,32,10,47,18c8.4,4.7,16.4,10.1,24,16c49,37,82,82,119.7,127.2"/>
			<path class="st2" d="M17.3,187.9c16,0.1,31.9-0.8,47.7-2.9h10c63-8,124-21,187-17c48.5,3,96.6,10.9,143.5,23.6"/>
			<path class="st2" d="M1841,191.6c25.8-4.1,52.1-4.9,78.2-4.7"/>
			<path class="st2" d="M559.9,191.6c35.9-12.6,67.7-35.1,97.1-58.8c28.3-22.8,54.3-48.7,83.6-70.2c30.1-22.1,65.5-38.2,103.7-30.9
				c37.6,7.1,69.9,32.2,96.8,58.1c29.3,28.2,55.6,59.1,81.6,90.3l9.6,11.5"/>
			<path class="st2" d="M17.3,187.9c25.4-0.7,50.8-2.7,76.1-6c25.4-3.1,50.6-7.1,76-10c25.3-2.8,50.7-4.7,76.1-4.3
				c25.1,0.5,50,2.7,74.8,6.7c24.7,3.9,49.1,9.4,73.4,15.1l9.2,2.2"/>
			<path class="st2" d="M1840.9,191.6c12.6-2.7,25.7-2.9,38.5-3.6c13.2-0.8,26.5-1.1,39.7-1.1"/>
			<path class="st2" d="M564.8,191.5c35.1-13.2,66-35.1,95-58.6c28.5-23.1,54.7-49.4,84.8-70.6C775,40.9,810.8,27,848.3,36.1
				c35.6,8.7,66.4,33,92.4,57.8c27.8,26.6,52.5,56.4,77.1,85.9l9.7,11.5"/>
			<path class="st2" d="M17.1,187.9c25-0.5,49.8-2.9,74.6-6s49.6-6.7,74.5-9.5s50.1-4.6,75.3-4.5c25,0.3,50,2.5,74.7,6.5
				c24.5,3.9,48.6,9.2,72.7,15l8.9,2.1"/>
			<path class="st2" d="M1841.3,191.6c25.5-4.9,51.7-5.1,77.6-5"/>
			<path class="st2" d="M569.5,191.5c34.4-13.4,64.7-35.5,93.1-58.7c27.8-22.6,53.4-48.3,83-68.7c30-20.7,65.3-33.9,101.8-24.7
				c34.9,8.8,65.2,32.5,90.8,56.8c27.4,26,51.6,55.3,75.7,84.2c3.1,3.7,6.1,7.3,9.2,11"/>
			<path class="st2" d="M17.1,187.9c24.7-0.5,49.3-2.9,73.9-5.9s49.1-6.6,73.8-9.3s49.7-4.5,74.7-4.3c24.5,0.3,48.9,2.4,73,6.3
				c24.1,3.8,47.9,9,71.6,14.7l8.8,2.1"/>
			<path class="st2" d="M1842.1,191.6c25.4-4,51.3-4.8,77-4.6"/>
			<path class="st2" d="M573.9,191.5c33.5-13.8,63.2-35.2,91-58.2c27-22.2,52.1-47,81.3-66.5c14.3-9.6,29.9-18.1,46.5-23
				c17.5-5,35.9-5.2,53.5-0.7c34.4,8.6,64.2,31.3,89.5,55.3c26.7,25.2,50.2,53.8,73.5,82l9,11"/>
			<path class="st2" d="M17.1,187.9c24.4-0.5,48.7-2.9,72.9-5.9s48.5-6.5,72.8-9c24.4-2.7,48.9-4.1,73.5-4.1
				c24.3,0.3,48.5,2.3,72.4,6.1c23.8,3.7,47.3,8.8,70.7,14.5c3,0.7,5.9,1.4,8.8,2.2"/>
			<path class="st2" d="M1842.4,191.6c25.4-4.1,51.1-4.8,76.7-4.6"/>
			<path class="st2" d="M578.4,191.5c32.6-14,61.5-35.2,88.8-57.7c26.4-21.8,51.1-45.9,79.7-64.8c14.1-9.2,29.3-17.5,45.6-22
				c17.4-4.8,35.7-4.9,53.1-0.3c33.3,8.6,62.3,30.4,87.1,53.7c26.2,24.7,49.3,52.5,72.2,80.2c3,3.6,5.9,7.2,8.8,10.8"/>
			<path class="st2" d="M17.1,187.9C72,187,125,176,180,171c69-6,137,2,203.2,20.5"/>
			<path class="st2" d="M1842.6,191.7c25.3-4.6,51.2-5.4,76.9-5"/>
			<path class="st2" d="M582.8,191.6C643,164,685,117,740,76c29-20,60-34,95-28c28,5,50,18,73,35c4,4,9,7,13,11
				c33,30,61,63,88.3,97.3"/>
			<path class="st2" d="M17.1,187.9C65,186,111,179,159,173h9c71-8,142-1,210.5,18.6"/>
			<path class="st2" d="M1843.7,191.6c24.3-5.6,50.3-3.6,75.4-4.7"/>
			<path class="st2" d="M589.2,191.6c30.5-14.5,57.9-34.9,84-56.2c25.2-20.7,49.3-43,77.2-60.3c13.8-8.6,28.7-16.3,44.6-20
				c16.4-3.8,33.3-3,49.5,1.2c31.6,8.3,59.2,28.1,82.9,49.9c25.1,23,47.4,49,69.2,75c2.8,3.3,5.6,6.7,8.4,10.1"/>
			<path class="st2" d="M17.1,187.9C37,188,57,185,77,184c3,0,7-2,10-2c5,0,10-1,15-1c54-7,105-13,159-9c38,4,75,9,110.5,19.6"/>
			<path class="st2" d="M1844.6,191.6c24.7-4,49.9-4.8,74.9-4.6"/>
			<path class="st2" d="M596.1,191.4c29.2-14.8,55.6-34.5,80.9-55.1c24.4-19.9,48-41.2,75.3-57.3c13.7-8.1,28.3-15,43.9-18.3
				c16-3.4,32.4-2.4,48.2,1.8c30.4,8.1,57.2,27,80.4,47.7c24.5,21.9,46.3,46.8,67.7,71.7c2.8,3.2,5.5,6.5,8.3,9.8"/>
			<path class="st2" d="M17.1,187.9c45.9-1.1,91.3-8.9,137-13.3s91.1-4.5,136.4,2c25.1,3.7,49.9,8.7,74.5,14.9"/>
			<path class="st2" d="M1845.4,191.6c24.4-4,49.2-4.8,73.9-4.6"/>
			<path class="st2" d="M601.7,191.5c27.9-14.6,53.2-33.4,77.7-53.1c24-19.4,47.7-39.8,74.6-55.2c13.4-7.7,27.7-14.4,43-17.4
				s31.1-1.9,46.2,2.1c29.6,7.8,55.8,25.6,78.6,45.5c24,20.9,45.5,44.7,66.3,68.7c2.7,3,5.3,6.1,7.9,9.1"/>
			<path class="st2" d="M17.1,187.9c44.8-1.1,89.1-8.4,133.7-12.5s89.4-4.3,133.9,1.9c24.6,3.5,49,8.3,73.1,14.4"/>
			<path class="st2" d="M1846.5,191.6c24.1-3.9,48.6-4.8,73-4.6"/>
			<path class="st2" d="M607.2,191.6c26.6-14.4,51-32.4,74.7-51.3c23.2-18.6,46.2-37.9,72.3-52.3c13.3-7.3,27.5-13.5,42.4-16.5
				c15-2.9,30.6-2.3,45.4,1.7c28.6,7.5,54.1,24.4,76.4,43.4c23.5,19.9,44.5,42.6,64.9,65.6c2.7,3,5.3,6,8,9"/>
			<path class="st2" d="M17.1,187.9C63,187,107,179,153,175c67-5,134-1,197.9,16.6"/>
			<path class="st2" d="M1847.4,191.6c23.6-3.9,47.6-4.8,71.5-4.6"/>
			<path class="st2" d="M613.6,191.6c24.9-14.1,47.8-31.4,70.3-49s44.8-36,70-49.8c25-13.7,52.3-20.7,80.7-15.3s52.8,20.8,75.5,37.9
				c12.3,9.3,23.5,20.4,34.5,31.2c11.8,11.6,23.2,23.4,34.2,35.7c2.7,3,5.3,6,7.9,9"/>
			<path class="st2" d="M17.1,187.8C67,186,116,178,166,174c59.6-4,119.5,2,177.1,17.6"/>
			<path class="st2" d="M1848.2,191.6c23.4-3.9,47.2-4.8,70.9-4.7"/>
			<path class="st2" d="M620.6,191.4C650,174,675,154,703,133c21-15,40-29,63-39c2-1,3,0,5-1c16.8-7.9,35.5-11,54-9
				c23,2,44,12,64,24c32,20,57,45,83,71c4,4,7,8,10.8,12.3"/>
			<path class="st2" d="M17.1,187.9C59,189,101,181,143,178c66-6,132-4,195.9,13.5"/>
			<path class="st2" d="M1849.1,191.6c23.1-3.9,46.6-4.8,70-4.7"/>
			<path class="st2" d="M626.8,191.5c24.2-12.1,45.6-28.9,67.1-45.3c21-15.9,42.3-31.7,66.5-42.5C785.6,92.4,812.8,87,840,94
				c25.2,6.5,48.3,20.9,69,36.4c21.5,16.2,41.4,34.5,60.2,53.6c2.4,2.4,4.8,4.9,7.2,7.3"/>
			<path class="st2" d="M17.1,187.9c40.9,0,81.4-6.2,122.1-9.4s81.8-4.2,122.4,1c22.2,2.9,44.3,7.1,66.1,12.1"/>
			<path class="st2" d="M1850.3,191.6c22.8-3.9,46-4.7,69.1-4.7"/>
			<path class="st2" d="M636.4,191.4C666,175,691,153,720,133c21-14,42-23,65-31c19-6,38-4,57,1c51,16,93,51,128.9,88.5"/>
			<path class="st2" d="M17.1,187.9C83,186,148,173,214,177c34.7,2.1,69.1,6.9,103,14.5"/>
			<path class="st2" d="M1851.4,191.6c22.4-3.8,45.1-4.7,67.8-4.7"/>
			<path class="st2" d="M642.4,191.6c21-12.5,40.7-26.8,61-40.5s41.2-27,64.3-35.3c22.4-8.1,46.7-11,70.1-5.4
				c22.5,5.3,43.3,16.2,62.4,29.1c20.1,13.6,38.7,29.4,56.5,45.8c2.3,2.1,4.5,4.2,6.8,6.3"/>
			<path class="st2" d="M17.1,187.9C31,188,46,187,60,186c84-9,168-14,250.4,5.6"/>
			<path class="st2" d="M1852.3,191.6c22.1-3.9,44.6-4.7,67-4.7"/>
			<path class="st2" d="M17.3,187.9c37.1-1,74-4.8,111-7.5s73.6-2.8,110.4,1.4c20.5,2.4,40.9,5.8,61.2,9.9"/>
			<path class="st2" d="M650.3,191.4c20.2-12.1,39.8-25.4,59.6-38.1c18.9-12.1,38.5-23.7,59.8-31s43.3-9,65.4-4.2
				c21.4,4.7,41.4,14.2,59.8,25.8c19.4,12.1,37.3,26.5,54.5,41.5c2.2,1.9,4.5,3.9,6.7,5.9"/>
			<path class="st2" d="M1853.7,191.6c21.7-3.8,43.8-4.7,65.9-4.6"/>
			<path class="st2" d="M17.3,187.9C65,186,112,180,160,179c45,0,89,3,133.5,12.6"/>
			<path class="st2" d="M658.8,191.4C695,171,728,145,768,131c12-4,24-6,37-7c16-1,31,3,46,7c37,12,67,36,96.8,60.3"/>
			<path class="st2" d="M1854.8,191.6c21.3-3.7,43-4.7,64.6-4.6"/>
			<path class="st2" d="M17.3,187.9C82,187,147,176,213,181c24,2,48,5,72,10.6"/>
			<path class="st2" d="M668.3,191.4c34.1-19.9,67.9-43.3,106.6-53.3c18.7-5,38.2-5.6,57.2-1.9c18.3,3.7,35.8,10.7,52.2,19.4
				c19.2,10.2,37.1,22.6,54.3,35.8"/>
			<path class="st2" d="M1855.1,191.6c21.2-3.3,42.6-4.4,63.9-4.7"/>
			<path class="st2" d="M17.2,187.9C76,187,135,177,195,182c11,1,22,2,33,2c2,0,5,2,7,2c14.3,1,28.5,2.9,42.5,5.7"/>
			<path class="st2" d="M677.8,191.6c31.4-17.7,63-37.2,98.6-45.4c17.2-4.1,35-4.6,52.4-1.5c16.9,3.1,33.2,8.9,48.6,16.4
				c17.9,8.6,34.7,19.2,50.9,30.6"/>
			<path class="st2" d="M1856.6,191.6c20.7-3,41.5-4.5,62.4-4.6"/>
			<path class="st2" d="M17.2,187.9c32.6-1,65.1-3.8,97.6-5.3c32.9-1.6,65.9-1.7,98.7,1.6c17.9,1.8,35.8,4.3,53.6,7.4"/>
			<path class="st2" d="M689.1,191.6c28-15.5,56.9-30.6,88.5-37.2c31.5-6.5,62.7-1,91.9,11.5c8.2,3.5,16.2,7.5,24,11.7
				c3.9,2.1,7.8,4.3,11.7,6.6c3.8,2.2,8.1,4.2,11.3,7.3"/>
			<path class="st2" d="M1857.7,191.6c20.3-3.2,40.9-4.4,61.5-4.6"/>
			<path class="st2" d="M17.3,187.9C98,185,180,176,260.2,191.6"/>
			<path class="st2" d="M701.4,191.4C730,178,759,164,791,162c40-2,78,10,111.8,29.6"/>
			<path class="st2" d="M1859.3,191.6c19.9-3.1,40-4.3,60.2-4.6"/>
			<path class="st2" d="M17.2,187.9C75,186,132,180,190,184c20,2,40,3,59.1,7.7"/>
			<path class="st2" d="M716.3,191.4c21.6-9.9,44.7-17.6,68.4-20c22.8-2.3,44.9,0.5,66.8,7.1c11.7,3.6,23.1,8,34.1,13.1"/>
			<path class="st2" d="M1861.2,191.6c19.2-2.2,38.5-3.8,57.9-4.5"/>
			<path class="st2" d="M17.2,187.9C92,187,168,178,242.7,191.6"/>
			<path class="st2" d="M735.2,191.6c40.8-13.6,86.8-15.6,126.4,0"/>
			<path class="st2" d="M1861.9,191.7c18.9-2.8,38-4.3,57.2-4.6"/>
			<path class="st2" d="M17.6,187.9C91,186,165,180,237,191.6"/>
			<path class="st2" d="M1862.5,191.6c18.9-2.4,37.9-3.7,57-4"/>
			<path class="st2" d="M17.6,187.9C77,186,135,183,194,188c12.1-0.1,24.3,1.1,36.1,3.6"/>
			<path class="st2" d="M1865.6,191.6c17.9-2.3,35.9-3.7,54-4"/>
			<path class="st2" d="M17.6,187.9C87,188,156,180,223.8,191.6"/>
			<path class="st2" d="M1867.6,191.6c17-2.6,34.3-4,51.5-4.2"/>
			<path class="st2" d="M17.3,187.9c66.7,0.1,133.7-5.9,200,3.8"/>
			<path class="st2" d="M1868.7,191.6c16.9-1.8,33.8-2.9,50.8-3.4"/>
			<path class="st2" d="M17.1,187.9C82,188,147,183,212.2,191.7"/>
			<path class="st2" d="M1869.6,191.6c16.6-1.7,33.2-2.7,49.8-3.3"/>
			<path class="st2" d="M17.1,187.9C79,189,142,183,204,191.6"/>
			<path class="st2" d="M1874.9,191.6c14.7-1.3,29.4-2.3,44.1-2.8"/>
			<path class="st2" d="M17.1,187.9C78,188,139,186,200.4,191.6"/>
			<path class="st2" d="M1866.5,191.6c17.4-2,34.9-3,52.4-3.4"/>
			<path class="st2" d="M17.1,187.9c46.5,0.1,93-1.4,139.4,0.9c12.8,0.6,25.6,1.6,38.4,2.8"/>
			<path class="st2" d="M1871.9,191.6c15.8-1.9,31.8-2.9,47.7-3.4"/>
			<path class="st2" d="M17.1,187.9c46.1,1.2,92.2-0.2,138.2,1.4c12.9,0.4,25.8,0.9,38.6,2.3"/>
			<path class="st2" d="M1868,191.6c16.9-1.8,33.9-2.9,51-3.3"/>
			<path class="st2" d="M17.1,187.9c45.2,1.2,90.5-0.2,135.8,1.3c12.6,0.4,25.4,1.1,38,2.4"/>
			<path class="st2" d="M1870.8,191.6c16.2-1.4,32.5-2.3,48.7-2.9"/>
			<path class="st2" d="M1392.6,191.5c45.4-8.5,92.4-7.5,137.7,0.1"/>
			<path class="st2" d="M17.1,187.9C72,189,127,186,180.5,191.6"/>
			<path class="st2" d="M1874.5,191.6c14.9-1.4,29.8-2.7,44.8-3.2"/>
			<path class="st2" d="M1370.4,191.5c58.6-18.5,121.6-12.5,180.1,0"/>
			<path class="st2" d="M17.1,187.9C72,189,127,186,181.9,191.6"/>
			<path class="st2" d="M1879.6,191.6c13.1-2.6,26.5-1.8,39.8-2"/>
			<path class="st2" d="M1349.8,191.6c23.2-8.5,47.5-13.8,72.2-15.6c49-6,96,5,142.7,15.6"/>
			<path class="st2" d="M17.5,187.9C72,189,126,186,180.7,191.6"/>
			<path class="st2" d="M1872.7,191.6c15.4-1.5,30.9-2.3,46.4-2.8"/>
			<path class="st2" d="M1333.2,191.5c75.8-34.5,162.8-23.5,241.3,0.1"/>
			<path class="st2" d="M17.5,187.9c52.5,0.1,106.6-0.9,160,3.7"/>
			<path class="st2" d="M1880.2,191.6c13-1.2,26.1-2,39.2-2.6"/>
			<path class="st2" d="M1319,191.5c31.8-13.9,65.5-24.2,100.3-26.3c35.9-2.1,71.5,2.6,106.3,11.1c19.4,4.7,38.6,10.3,57.9,15.4"/>
			<path class="st2" d="M17.5,187.9C72,189,127,186,181.2,191.6"/>
			<path class="st2" d="M1885.6,191.6c11.3-1,22.6-1.9,33.9-2.4"/>
			<path class="st2" d="M1303.4,191.5C1325,183,1345,173,1369,168c1,0,3-2,4-2c67-16,131-1,194,19c3,0,6,0,8,1c5,3,11,3,16.3,5.6"/>
			<path class="st2" d="M17.5,187.9C72,188,126,186,181.1,191.6"/>
			<path class="st2" d="M1882.2,191.6c12.2-1.2,24.5-2.1,36.8-2.6"/>
			<path class="st2" d="M1289.1,191.5c18.9-8.9,37.8-17.9,57.8-24.1c10.1-3.1,20.5-5.9,30.8-8.2c10.5-2.3,21.6-3.2,32.3-4.3
				c41.7-4.3,84.1,4.9,123.8,16.8c21.6,6.5,43,13.5,64.6,19.7"/>
			<path class="st2" d="M17.5,187.9C74,189,130,186,186.9,191.6"/>
			<path class="st2" d="M1884.8,191.6c11.5-1,23-1.8,34.6-2.3"/>
			<path class="st2" d="M1275.2,191.6c39.8-18.6,80.4-36.8,124.7-41.1c45.3-4.4,89.8,4.6,132.9,18c24.1,7.5,47.9,16.1,72.1,23.1"/>
			<path class="st2" d="M17,187.9c44.1,0.6,88.2,0,132.3,1.7c12.3,0.5,24.5,1.1,36.7,2"/>
			<path class="st2" d="M1883.9,191.6c11.7-1.1,23.5-2,35.2-2.5"/>
			<path class="st2" d="M1261.7,191.6C1307,169,1355,147,1407,144c59-3,115,16,169,37c11,4,23,7,34.4,10.6"/>
			<path class="st2" d="M17,187.9c58,0.1,115,0.1,173.4,3.7"/>
			<path class="st2" d="M1882.1,191.7c12.5-1.1,25-2,37.5-2.5"/>
			<path class="st2" d="M1247.8,191.4C1261,185,1273,178,1286,173c9-3,17-7,26-11c2-1,3,0,5-1c54-25,113-27,171-12c1,0,3,2,4,2
				c43,11,82,29,123,40.6"/>
			<path class="st2" d="M17.5,187.9C77,189,137,186,196.1,191.6"/>
			<path class="st2" d="M1890.2,191.7c9.7-0.8,19.3-1.5,29-2"/>
			<path class="st2" d="M1234.7,191.5C1284,168,1334,142,1390,136c14.6-1,29.4-1,44,0c18,2,35,6,53,10c1,0,3,2,4,2
				c44,11,84,31,125.7,43.6"/>
			<path class="st2" d="M17.5,187.9C79,189,141,186,203.4,191.6"/>
			<path class="st2" d="M1889.7,191.6c9.9-0.9,19.8-1.6,29.7-2.1"/>
			<path class="st2" d="M1221.6,191.4c25.1-11.7,50.2-23.7,75.7-34.4c24.8-10.4,50.5-19.4,77.2-23.5c26.8-4.1,54.2-3.4,80.8,2
				c26.5,5.2,52.2,13.9,77.4,23.4c25.8,9.7,51.1,20.4,77.1,29.5c3.1,1.1,6.3,2.1,9.4,3.2"/>
			<path class="st2" d="M17.5,187.9C82,189,146,186,210.7,191.6"/>
			<path class="st2" d="M1893.2,191.6c8.8-0.7,17.5-1.3,26.3-1.8"/>
			<path class="st2" d="M1207.1,191.5c25.6-12.5,51.8-23.8,77.9-35.2s52.7-21.7,80.8-26.5c28.1-4.7,56.8-4.4,84.8,1.1
				c28.2,5.4,55.4,15,82.1,25.6s52.8,22.4,79.8,31.8c3.3,1.2,6.7,2.3,10.1,3.4"/>
			<path class="st2" d="M17.1,187.9c70.9,1.1,142.9-1.9,214,3.7"/>
			<path class="st2" d="M1894.2,191.6c8.4-1.1,16.9-1.7,25.4-1.8"/>
			<path class="st2" d="M1195.4,191.3C1208,186,1218,177,1232,174c36-20,74-35,115-46c23-6,46-7,70-6c23.2,2,46.1,7.1,68,15
				c30,10,58,21,86,35c17,8,35,13,52.3,19.6"/>
			<path class="st2" d="M17.1,187.9C93,188,170,184,245.8,191.6"/>
			<path class="st2" d="M1895.2,191.6c8-0.7,16-1.2,23.9-1.7"/>
			<path class="st2" d="M1185.9,191.6c26.3-14.9,54.3-26.6,81.9-38.7c27.8-12.2,56.2-23.9,86.1-29.7c29.7-5.7,60.3-5.5,89.9,0.5
				c29.8,6,58.4,16.8,86.3,28.8s55.6,25,84.2,35.4c3.6,1.3,7.1,2.5,10.7,3.7"/>
			<path class="st2" d="M17.1,187.9C98,188,178,185,258.8,191.6"/>
			<path class="st2" d="M1892.6,191.6c8.9-0.9,17.9-1.6,26.9-2.1"/>
			<path class="st2" d="M1177.3,191.6C1211,170,1247,154,1285,140c13-6,26-11,40-13c1,0,3-2,4-2c19-4,36-8,55-10c20.2-1,40.4,1,60,6
				c11.9,2.1,23.6,5.1,35,9c13,4,26,10,39,15c24,11,46,22,70,33c5,2,10,3,15,6c7,3,15,5,22,7.6"/>
			<path class="st2" d="M17.1,187.9C102,188,186,184,271,191.6"/>
			<path class="st2" d="M1893.8,191.6c8.4-0.7,16.8-1.3,25.3-1.7"/>
			<path class="st2" d="M1168.5,191.6C1179,183,1192,177,1205,170c22.1-11.6,44.8-21.9,68-31c27-10,52-19,81-24c49-9,96,1,140,20
				c27,11,53,24,80,36c17,7,33,14,50.3,20.6"/>
			<path class="st2" d="M17.3,187.9C112,189,206,184,300.7,191.6"/>
			<path class="st2" d="M1893.2,191.6c8.5-0.9,17.1-1.6,25.7-2.1"/>
			<path class="st2" d="M1163.6,191.5C1201,164,1243,146,1286,129c32-12,66-21,100-21c10,1,19,1,29,2c6.1,0.9,12.1,2.2,18,4
				c6,1,13,2,19,4c15,5,29,12,45,16c43,21,85,41,129.9,57.6"/>
			<path class="st2" d="M17.3,187.9C114,187,211,182,308.5,191.6"/>
			<path class="st2" d="M1897.2,191.6c7.3-0.6,14.7-1.2,22.1-1.6"/>
			<path class="st2" d="M1158,191.4c60-42.4,128-72.4,202-84.4c45-7,87,5,127,22c48,21,93,45,141.1,62.6"/>
			<path class="st2" d="M17.5,187.9C101,186,185,184,268,188c21,1,42,2,63.4,3.6"/>
			<path class="st2" d="M1895.4,191.6c7.9-0.6,15.8-1.1,23.7-1.5"/>
			<path class="st2" d="M1153.5,191.3c13.9-10.2,27.8-19.9,42.7-28.7c14.2-8.4,29.1-15.5,44-22.5c29.4-13.7,60-25.4,91.9-31.7
				s65-6.6,96.9,0.5c32.2,7.2,62.4,20.8,92.1,34.9c30.6,14.5,60.3,31,91.9,43.3c3.8,1.5,7.7,2.9,11.6,4.3"/>
			<path class="st2" d="M17.2,187.9C58,187,99,186,140,186c73-1,146-1,217.8,5.6"/>
			<path class="st2" d="M1898.3,191.6c6.9-0.6,13.8-1.1,20.7-1.5"/>
			<path class="st2" d="M1148.9,191.5c25.6-20.1,53.5-37,83.1-50.5c30.6-13.8,62.6-25.8,95.5-33c33.1-7.2,66.7-7.8,99.7,0.2
				c32.8,7.9,63.7,22.1,94,36.6c30.5,14.6,60.6,30.3,92.2,42.5c3.9,1.5,7.9,3,11.8,4.4"/>
			<path class="st2" d="M17.3,187.9C139,184,261,181,382.1,191.6"/>
			<path class="st2" d="M1894.6,191.6c8.2-0.7,16.5-1.3,24.8-1.6"/>
			<path class="st2" d="M1144,191.6c26.1-21.2,54.6-39.3,85-53.7c29.6-14.1,60.7-24.7,92.7-31.6c17.4-3.8,35.2-5.9,53-6.2
				c8.9-0.1,17.6-0.3,26.4,1.2c8.6,1.4,17,3.2,25.4,5.4c32,8.9,62.4,22.4,92.2,36.9c30.6,14.8,60.8,30.6,92.2,43.5
				c4.2,1.7,8.6,3.2,12.9,4.6"/>
			<path class="st2" d="M17.1,187.9C142,184,267,178,392.3,191.6"/>
			<path class="st2" d="M1896.9,191.6c7.5-0.7,14.9-1.2,22.4-1.7"/>
			<path class="st2" d="M1140.6,191.4c25.6-21.3,52.6-39.9,82.9-54c30.9-14.4,63.5-26.6,96.9-33.6c33.8-7.1,68.2-7.4,101.8,0.9
				c33.2,8.2,64.5,22.9,95,38c31,15.3,61.5,31.7,93.7,44.4c3.9,1.6,7.9,3.1,11.9,4.5"/>
			<path class="st2" d="M17.1,187.9C148,183,279,177,409.3,191.6"/>
			<path class="st2" d="M1896.7,191.6c7.5-0.7,15-1.3,22.5-1.8"/>
			<path class="st2" d="M1136.8,191.4C1207,133,1295,93,1387,97c62,7,116,38,172,67c19,10,39,20,60.3,27.5"/>
			<path class="st2" d="M17.5,187.8C151,183,285,174,416.7,191.6"/>
			<path class="st2" d="M1895.5,191.6c7.8-0.7,15.6-1.4,23.4-1.9"/>
			<path class="st2" d="M1134.8,191.5C1168,164,1204,137,1246,124c2-1,4-3,7-4c38-15,78-24,119-23c28,2,56,6,82,19c3,1,6,1,9,2
				c45,20,87,44,132,65c8,3,16,5,24.2,8.5"/>
			<path class="st2" d="M17.4,187.8C101,184,185,180,269,181c53,2,107,2,159.6,10.6"/>
			<path class="st2" d="M1893.6,191.6c8.5-0.7,17.1-1.4,25.6-1.9"/>
			<path class="st2" d="M1132.6,191.6c25.3-21.5,52-42,82-56.5c31.1-15.1,65-27.2,99-33.7c34.3-6.6,69.2-6.4,103.1,2.2
				c33.1,8.4,64.1,23.1,94.6,38.3c31.1,15.6,61.7,32.5,94.1,45.4c3.9,1.5,7.7,3,11.7,4.4"/>
			<path class="st2" d="M17.3,187.8C95,184,172,178,250,179c23,1,47,1,70,2l45,3c22,3,44,4,65,7.6"/>
			<path class="st2" d="M1892.9,191.6c8.7-0.8,17.5-1.5,26.3-2"/>
			<path class="st2" d="M1130.6,191.5c25.4-21.8,52-42.2,82.1-57.3c30.4-15.3,63.2-26.8,96.7-32.9c34.4-6.3,69.7-6.2,103.8,1.7
				c33.6,7.8,65,22.2,95.6,38c30.8,15.9,60.9,33,93.1,46c3.8,1.6,7.7,3.1,11.6,4.5"/>
			<path class="st2" d="M17.3,187.8C96,184,175,176,255,178c61,2,122,3,182.3,13.6"/>
			<path class="st2" d="M1892.2,191.6c9-0.8,18.1-1.5,27.1-2"/>
			<path class="st2" d="M1128.3,191.4c25.8-22.2,52.6-42.8,83.1-58.2c30.1-15.1,62.8-26.9,96-33c34.1-6.3,69.1-5.4,102.9,2.6
				c33.6,8,65,22.3,95.7,38c31,15.9,61.5,32.9,93.8,46c3.9,1.6,7.9,3.1,11.9,4.6"/>
			<path class="st2" d="M17.4,187.8C96,183,174,176,253,177c64,2,127,3,190.2,14.6"/>
			<path class="st2" d="M1889.9,191.6c9.7-0.9,19.4-1.6,29.1-2.1"/>
			<path class="st2" d="M1126.8,191.4c25.5-21.8,52-42.5,81.9-58c30.3-15.8,62.8-26.9,96.4-32.8c34.5-5.9,69.8-5.4,103.9,2.7
				c33.7,8,65.2,22.4,95.9,38.1s61.1,32.7,93.3,45.7c3.8,1.6,7.7,3.1,11.6,4.5"/>
			<path class="st2" d="M17.4,187.8C160,176,306,166,448,191.6"/>
			<path class="st2" d="M1886.2,191.6c11.1-1.1,22.2-1.9,33.4-2.5"/>
			<path class="st2" d="M1125.6,191.4c25.7-21.4,52.4-42,82.2-57.6c29.8-15.5,61.8-26.3,94.8-32.1c34.4-6,69.5-6,103.5,2.3
				c33.5,8.1,65.1,22.5,95.9,37.8s61.3,32,93.2,45.1c3.8,1.6,7.6,3.1,11.5,4.5"/>
			<path class="st2" d="M17.4,187.7C25,187,34,186,42,186c13-1,27-2,40-3c5-1,10-1,15-2c119-8,237-11,353.6,10.6"/>
			<path class="st2" d="M1882.9,191.6c12.1-1.1,24.2-2,36.4-2.7"/>
			<path class="st2" d="M1124,191.6c14-11.6,28-22.6,43-33.6c5.2-3,10.2-6.3,15-10c60-40,127-56,197-47c22,2,42,9,63,16c3,1,5,3,8,4
				c2,1,3,0,5,1c42,18,80,40,122,59c2,1,3,0,5,1c1,0,1,2,2,2c7,3,15,4,20.8,7.6"/>
			<path class="st2" d="M17.1,187.7C131,180,245,169,360,180c9.7-0.2,19.4,0.2,29,1c23,3,44,6,66,10.6"/>
			<path class="st2" d="M1882.8,191.6c12.2-1.1,24.3-2,36.5-2.7"/>
			<path class="st2" d="M1123.4,191.6C1174,149,1231,114,1299,103c53-9,106-1,154,21c2,1,3,0,5,1c49,22,96,48,145.7,66.6"/>
			<path class="st2" d="M17.4,187.7C73,184,129,178,186,175c24-1,49-2,73-2c66,2,132,5,196,18.6"/>
			<path class="st2" d="M1875,191.6c14.7-1.4,29.4-2.4,44.1-3.1"/>
			<path class="st2" d="M1123.8,191.4c26-20.9,52.7-40.8,82.3-56.2c29.1-15.2,60.3-26.4,92.8-31.3c34-5.1,68.7-3.6,102.1,4.5
				c32.7,8,63.8,21.5,94.1,35.9c31,14.7,61.5,30.7,93.6,43c3.9,1.5,7.7,2.9,11.6,4.3"/>
			<path class="st2" d="M17,187.7c145-14.7,293-25.7,437.4,4"/>
			<path class="st2" d="M1876.3,191.6c14.2-1.2,28.5-2.2,42.8-2.9"/>
			<path class="st2" d="M1122.7,191.4C1163,161,1204,131,1252,114c31-11,63-15,96-13c32.2,2,64,9.1,94,21c47,18,89,44,135,62
				c4,1,8,3,13,4c3,1,5,3,8.4,3.6"/>
			<path class="st2" d="M17.3,187.7C69,183,121,178,173,174c22-2,43-1,65-2c32,0,63,1,95,3c5,1,10,1,15,2
				c34.7,3.1,69.2,7.9,103.4,14.6"/>
			<path class="st2" d="M1863.3,191.6c18.6-2.1,37.3-3.3,56-3.8"/>
			<path class="st2" d="M1123.9,191.6c26.3-20,53.2-39.5,82.4-55.1c28.3-15.1,59-26,90.9-30.4c33.1-4.6,67.1-2,99.6,5.6
				c32.9,7.7,64.2,20.9,94.8,34.9s60.9,29,92.6,40.7c4,1.4,7.9,2.9,11.9,4.2"/>
			<path class="st2" d="M17.1,187.6C161,172,308,159,449.9,191.6"/>
			<path class="st2" d="M1856.8,191.6c20.7-2.2,41.4-3.4,62.2-3.9"/>
			<path class="st2" d="M1124.4,191.5c26.1-19.6,52.9-38.6,82-53.3c28.5-14.5,59.2-24.3,90.9-29.1c33.5-4.8,67.7-3,100.5,5.4
				c32.2,8,63,21,93.3,34.4s60.5,27.9,91.9,38.8c3.9,1.3,7.8,2.6,11.7,3.9"/>
			<path class="st2" d="M17.2,187.6C124,174,231,165,340,175h10c3,0,7,2,10,2c31,3,61,7,90.7,14.6"/>
			<path class="st2" d="M1849.8,191.6c23-2.3,46.1-3.8,69.2-4.3"/>
			<path class="st2" d="M1125.5,191.3c26.4-19.1,53.4-37.9,82.7-52.6c27.8-14,57.7-24.1,88.6-28.1c33.1-4.2,66.7-1.3,99.1,6.2
				c32.2,7.4,62.8,20,93,33.1c30.4,13.2,60.6,27.3,92.1,38c3.8,1.3,7.6,2.5,11.5,3.7"/>
			<path class="st2" d="M17.2,187.6C48,183,79,181,111,177c8.4-0.2,16.7-0.8,25-2h10c102-10,203-5,301.9,16.6"/>
			<path class="st2" d="M1841,191.6c26-2.5,52.2-4,78.3-4.4"/>
			<path class="st2" d="M1125.7,191.6C1174,156,1225,124,1287,114c56-9,110,1,161,21c47,19,93,40,141.3,56.5"/>
			<path class="st2" d="M17,187.6C116,175,215,163,315,172c44,4,87,9,129.3,19.6"/>
			<path class="st2" d="M1832.6,191.6c28.8-2.6,57.6-4.4,86.5-4.9"/>
			<path class="st2" d="M1127.1,191.4c26.1-18.2,52.8-35.9,81.6-49.7c27.6-13.2,57-22.8,87.4-26.3c32.5-3.8,65.5-1,97.3,6.2
				c31.6,7.2,62,19,91.9,31.2s59.9,25.3,90.9,35.1c3.8,1.2,7.7,2.4,11.6,3.5"/>
			<path class="st2" d="M17.1,187.6C116,176,216,162,317,171c13,1,26,3,39,4s25,4,38,6c16,3,32,6,47,10.5"/>
			<path class="st2" d="M1827.1,191.6c30.9-2.6,60.9-4.6,91.9-5.4"/>
			<path class="st2" d="M1129,191.5c25.5-17.1,51.6-33.6,79.3-47c28.2-13.6,57.6-23.4,88.8-26.8c30.8-3.4,62-1.2,92.3,5.2
				c31.8,6.8,62.1,18.9,92.2,30.9c30.9,12.3,61.7,24.7,93.5,34.4c3.8,1.2,7.7,2.3,11.5,3.4"/>
			<path class="st2" d="M16.9,187.6C156,169,300,154,436.6,191.6"/>
			<path class="st2" d="M1811.2,191.6c35.8-4.6,71.8-5.6,108.2-5.8"/>
			<path class="st2" d="M1131.3,191.6C1144,184,1155,173,1170,168c34-22,71-38,112-46c47-8,91-2,135,11c58,17,111,43,168.2,58.6"/>
			<path class="st2" d="M16.7,187.6C155,168,297,153,432.8,191.6"/>
			<path class="st2" d="M1792.9,191.6c42.1-5.6,84.1-5.6,126.2-5.8"/>
			<path class="st2" d="M1133,191.3c13.6-8.5,27.3-16.6,41.2-24.6s28.2-16.3,43.2-22.1c14.3-5.5,28.3-11.2,43.2-15.1
				c14.8-3.8,29.9-6.2,45.2-7.3c31.1-2.2,62,1.4,92.2,8.8c29.5,7.2,58.1,17.6,86.6,28.1c29.1,10.8,58.2,21.8,88.3,29.7
				c3.8,1,7.6,2,11.4,2.9"/>
			<path class="st2" d="M16.6,187.6C20,187,23,186,26,186c8,0,16-2,24-3c5,0,9-1,14-1c124-18,248-24,367,9.6"/>
			<path class="st2" d="M1783,191.6c45-4.6,91-6.6,136.1-6.8"/>
			<path class="st2" d="M1134.4,191.4C1153,182,1170,171,1189,161l3-3c30-14,60-25,93-31c49-8,96,0,143,15c52,17,102,36,155.3,49.6"
				/>
			<path class="st2" d="M16.4,187.6C107,175,198,161,291,168c46,3,91,10,134.9,23.6"/>
			<path class="st2" d="M1763.6,191.6c40.2-5.1,80.7-7.7,121.3-7.8c11.4,0,22.7,0.1,34.1,0.4"/>
			<path class="st2" d="M1137.7,191.5C1186,161,1238,136,1296,128c22-3,44-1,66,2c16,3,31,6,48,10c15,3,28,8,42,12
				c44,14,86,29,130,39.6"/>
			<path class="st2" d="M16.4,187.6C62,181,107,174,153,170c8.4-0.2,16.7-0.8,25-2h9c52-7,103-2,155,6c28,4,55,9,82.3,17.6"/>
			<path class="st2" d="M1744.2,191.6c57.8-7.6,116.8-7.6,175-7.2"/>
			<path class="st2" d="M1141.1,191.3c26-14.6,52.2-29.3,79.9-40.5c27.5-11.1,56.3-18.4,86-20.1c30.7-1.7,61.3,2.1,91.2,9.1
				s58.8,16.4,87.9,25.5s58.5,18.1,88.5,24.2c3.8,0.8,7.6,1.5,11.4,2.1"/>
			<path class="st2" d="M16.4,187.6C22,187,28,185,35,184c27-4,53-7,80-11c93-12,183-14,276,9c1,0,3,2,4,2c10,2,20,4,28.9,7.6"/>
			<path class="st2" d="M1725.3,191.6c63.7-8.6,128.7-9.6,194-7.6"/>
			<path class="st2" d="M1143.9,191.6C1195,162,1250,136,1310,133c65-3,125,20,188,38c31,8,60,16,90.7,20.6"/>
			<path class="st2" d="M16.6,187.5C91,175,166,164,242,165c47,0,92,4,139,15c1,0,3,2,4,2c13,3,25,5,36.7,9.6"/>
			<path class="st2" d="M1695.2,191.6c73.8-7.6,148.8-11.6,224-8.6"/>
			<path class="st2" d="M1146.7,191.6c26.3-13.9,52.4-28.4,80.4-38.6c27.4-10,56.6-16.7,85.8-17.3c15-0.3,30.6,0,45.4,2.4
				s29.8,5.5,44.5,8.7c28.8,6.3,57.2,14.4,85.7,22.2c29.3,8.1,58.8,15.9,88.7,20.9c3.8,0.6,7.5,1.2,11.3,1.8"/>
			<path class="st2" d="M16.8,187.5C82,177,148,167,214,164c68-2,137,5,202.4,27.6"/>
			<path class="st2" d="M1683.4,191.6c77.6-10.6,157.6-15.6,236.1-9"/>
			<path class="st2" d="M1150.8,191.4C1173,180,1195,170,1217,159c2-1,3,0,5-1c18-8,37-13,57-17c43-7,84-2,126,8
				c65,16,125,35,188.8,42.6"/>
			<path class="st2" d="M16.6,187.5C53,180,88,177,125,172c4.9-1.2,9.9-1.8,15-2c93-11,188-9,275.6,21.5"/>
			<path class="st2" d="M1655.5,191.6c87.5-9.6,175.5-15.6,263.8-8.9"/>
			<path class="st2" d="M1154.5,191.6c26.6-13.2,53-27.2,81-37.3c28.1-10.1,57.9-14.8,87.8-14c30.6,0.8,60.4,7,90.1,13.7
				c29.3,6.6,58.5,14.2,87.8,21c30.2,7,60.6,13,91.5,15.8c3.8,0.3,7.6,0.6,11.4,0.9"/>
			<path class="st2" d="M16.4,187.6c26.1-4.2,52.2-8.6,78.3-12.5s52.4-7.2,78.8-9.5c26.5-2.4,53.1-3.4,79.6-3
				c26.3,0.5,52.7,2.4,78.7,7.1c24.5,4.6,48.7,11,72.3,19c2.9,1,5.8,1.9,8.7,2.9"/>
			<path class="st2" d="M1158.3,191.6C1195,172,1232,154,1275,146c83-14,159,17,238,32c77,20,156,10,235,3
				c57-5.1,114.3-4.9,171.3,0.7"/>
			<path class="st2" d="M16.4,187.6c25.6-3.9,51.1-8.1,76.7-12s51.1-7.5,76.8-10.1c25.9-2.7,51.9-4,77.9-3.8
				c26.5,0.2,52.9,2.5,79.1,6.8c25.5,4.3,51.3,10.5,75.5,19.5c3.1,1.2,6.1,2.3,9.2,3.5"/>
			<path class="st2" d="M1161.4,191.6c29.3-15.7,59.9-28.6,91.6-38.6c13.7-3.8,27.8-6.1,42-7c32-4,62,1,94,7c86,16,165,40,251,36
				c53-3,105-11,158-13c40-1,81,1,121.4,4.8"/>
			<path class="st2" d="M16.4,187.6C109,171,203,154,299,165c39,4,77,12,112.5,26.6"/>
			<path class="st2" d="M1164.5,191.6C1184,183,1204,173,1224,164l27-9c47-13,92-10,140-1c53,11,100,22,152,29c36,4,72,7,108,4
				c26-2,52-7,78-9c44-4,86-6,130-2c20,1,40,3,60,4.2"/>
			<path class="st2" d="M16.6,187.6C106,172,196,156,287,162c21,2,42,4,62,10c4.5,1.8,9.2,3.1,14,4c1.1,1.1,2.5,1.8,4,2
				c15,3,27,9,41.1,13.5"/>
			<path class="st2" d="M1169.6,191.6C1212,167,1259,151,1308,148c24-1,47,2,72,6c84,15,162,37,245,32c46-3,91-12,137-13
				c53-1,106,0,157.6,6.6"/>
			<path class="st2" d="M16.6,187.6C27,186,36,184,46,182c38-5,73-12,110-17c22-3,43-3,65-5c21-1,41,0,62,1c44,3,85,15,125.7,30.5"
				/>
			<path class="st2" d="M1172.7,191.4C1214,172,1257,153,1303,151c20-1,39,1,59,3c50,7,97,17,147,25c25,4,49,4,74,6c15,1,30,0,45-2
				c77-6,152-17,229-9h10c18,3,35,3,52.6,5.8"/>
			<path class="st2" d="M16.7,187.6C95,174,173,158,252,159c53,1,107,10,156.1,32.7"/>
			<path class="st2" d="M1174.5,191.6C1189,185,1203,179,1218,172c2-1,3,0,5-1c46-22,96-22,146-15c21,4,41,6,63,10c22,5,42,8,64,11
				s43,5,64,6c55,3,108-6,163-11c45-5,89-4,134,0c21,2,41,5,62.4,7.4"/>
			<path class="st2" d="M16.7,187.6C104,173,190,153,279,160c45,4,88,14,129.2,31.5"/>
			<path class="st2" d="M1176.6,191.6c5.3-1.9,10.2-4.6,15.2-7.2s10.5-4.2,15.7-6.4c2.8-1.2,5.4-2.7,8.2-4c2.5-1.1,5.3-1.3,7.9-2.3
				c2.3-0.9,4.3-2.5,6.6-3.5c2.8-1.2,5.9-2.2,8.8-3.2c22.8-7.7,46.7-11.3,70.8-11.9s48,1.9,71.7,5.4c24,3.6,47.9,8.2,71.8,12.4
				c24.4,4.2,48.9,7.5,73.6,9.4c24.8,2,49.7,2.4,74.5,1.1c24.8-1.3,49.4-4,74-6.6c24.8-2.7,49.7-5.2,74.6-6.7
				c25.2-1.3,50.5-1.1,75.8,0.8c25.2,1.7,50.2,4.6,75.2,8c6.2,0.8,12.4,1.7,18.6,2.5"/>
			<path class="st2" d="M17,187.5C41,183,64,179,89,174c109-21,218-29,317.3,17.5"/>
			<path class="st2" d="M1179.2,191.6C1193,185,1207,178,1222,172c10.1-3.9,20.5-7.3,31-10c37-9,73-8,110-5c3,0,6,2,9,2
				c5,0,9,1,14,2c33,4,65,10,98,15c12,1,23,2,34,3c31,2,62,4,93,1c61-6,120-18,181-15c43,2,85,7,127.4,13.2"/>
			<path class="st2" d="M16.9,187.6C107,170,199,150,292,160c36.7,2.8,72.7,12.3,106,28c3,1,6,1,8.9,3.4"/>
			<path class="st2" d="M1181.5,191.6C1194,184,1207,180,1220,174c4-2,7-2,11-3c36-17,75-17,114-13c67,7,131,19,198,22
				c57,2,113-8,170-15c10-1,19-1,29-2c42-2,83,1,125,7c18,3,35,6,52.1,8.3"/>
			<path class="st2" d="M16.9,187.6C90,175,163,159,237,156c21-1,42,1,63,3c21.8,3,43.2,8,64,15c14.6,5,28.8,10.8,42.7,17.5"/>
			<path class="st2" d="M1182.3,191.6C1214,176,1247,162,1283,158c29-3,58-2,87,2c103,15,199,28,304,9c4.9-1.2,9.9-1.8,15-2
				c78-10,154-2,230.3,10.8"/>
			<path class="st2" d="M17,187.6C76,177,134,165,194,158h10c70-7,142,2,204.1,33.6"/>
			<path class="st2" d="M1182.1,191.6C1228,167,1278,152,1331,156c8,1.2,16,1.8,24,2c3,0,7,2,10,2c5,0,10,1,15,1c28,4,55,9,83,11
				c4,1,9,2,13,3c82,8,162-1,242-15c68-5,135,6,201.4,17.3"/>
			<path class="st2" d="M16.9,187.6C105,171,193,149,283,156c44,4,87,15,126.2,35.6"/>
			<path class="st2" d="M1182.6,191.5c1.3-0.6,2.4-1.4,3.4-2.5c22-9,42-20,65-25c62-15,122-3,183,5c5,0,9,1,14,1
				c3.4,0.2,6.8,0.9,10,2c46,6,91,6,137,2c34-2,67-8,101-13c76-10,150,3,223.5,16.7"/>
			<path class="st2" d="M16.9,187.6C135,167,262,128,379,178c2,1,3,0,5,1c8,4,17,8,25.2,12.4"/>
			<path class="st2" d="M1183,191.4c29-12.4,55-27.4,87-31.4c29-4,57-3,86,0c6.7-0.2,13.4,0.2,20,1c71,9,139,19,210,13
				c66-6,129-22,195-17c36,3,71,8,107,14c11,2,21,6,31.6,6.4"/>
			<path class="st2" d="M17.1,187.6C100,173,183,150,269,153c49,2,98,14,140.7,38.5"/>
			<path class="st2" d="M1182.8,191.4C1204,183,1224,171,1246,165c30-8,60-10,91-7c72,5,143,19,216,16c44-2,87-8,132-15h8
				c2,0,5-2,7-2c9-0.2,18-0.8,27-2c65-4,129,9,192.8,21.5"/>
			<path class="st2" d="M17,187.6C43,183,69,177,96,172c35-6,68-12,103-17c30-4,59-4,89-2c44,4,86,16,123.5,38.6"/>
			<path class="st2" d="M1180.7,191.6c3.2-1.6,6.3-3.5,9.3-5.6c3-2,8-1,11-3c57-32,120-30,182-22c28,4,54,6,82,9
				c39.9,3.2,80,3.8,120,2c21-2,41-5,62-9c16-2,31-4,47-7c77-10,151,6,225.5,19.6"/>
			<path class="st2" d="M17.1,187.6C104,171,190,147,279,151c47.2,3.1,93,17,133.9,40.6"/>
			<path class="st2" d="M1179.4,191.5c2.6-1.5,4.6-1.5,7.6-2.5c31-17,63-28,97-32c49-5,96,3,145,10c53,7,104,8,157,2h10
				c3,0,7-2,10-2c5,0,9-1,14-1c49-8,96-14,144-13c53,2,104,12,155.3,23.6"/>
			<path class="st2" d="M17.1,187.6C104,172,191,146,281,150c31,2,62,9,91,22c2,1,3,0,5,1c13,6,26,11,37.5,18.6"/>
			<path class="st2" d="M1176.6,191.6c7.4-4.6,15.4-6.6,22.4-10.6c11-4,21-7,32-12c35-13,71-16,108-14c42,3,82,10,124,14
				c28.2,2.8,56.7,3.2,85,1c47.3-2.1,94.4-7.1,141-15c9-1,17-2,26-3c22-1.2,44-0.8,66,1l30,3c37,6,72,12,108.4,20.6"/>
			<path class="st2" d="M17.1,187.6C65,179,111,169,160,159c54-10,104-15,159-5c35,7,67,20,97.2,37.5"/>
			<path class="st2" d="M1175.4,191.4C1209,176,1243,158,1281,156c61-4,121,6,182,12c74,7,146-3,220-14c5,0,9-1,14-1c3,0,7-2,10-2
				c27-1,54-2,81,2h9c42,5,81,16,122.3,22.9"/>
			<path class="st2" d="M17.1,187.6C106,171,194,144,285,149c15.9,0,31.6,2,47,6c1,0,3,2,4,2c30,7,57,20,82.4,34.6"/>
			<path class="st2" d="M1172.8,191.5C1199,178,1227,168,1256,159c27-7,55-8,83-6c40,4,79,10,119,14c40,3,79,5,119-1h10
				c37-5,72-11,109-15c31-4,62-3,93,0c3,0,6,2,9,2c42,4,81,16,121.8,22.3"/>
			<path class="st2" d="M17.1,187.6C112,170,206,140,305,148c21,2,42,8,62,16c18.4,7.8,36.1,17,53,27.6"/>
			<path class="st2" d="M1168.9,191.7C1202,178,1233,162,1269,155c8-1,15-2,23-3s15,0,23,0c13-1,27,0,40,1c11,1,22,3,34,5
				c91,16,177,9,267-2c20-3,38-6,58-8c16-1,32-1,48,0c42.8,4.1,85.2,11.1,127,21c1,0,3,2,4,2c9,2,18,2,26.8,5.2"/>
			<path class="st2" d="M17.1,187.6C51,180,87,177,121,166c53-11,107-22,161-20c50,2,99,19,140.5,45.6"/>
			<path class="st2" d="M1167.4,191.5c9.6-3.5,18.6-9.5,28.6-13.5c2-1,3,0,5-1c81-42,169-24,255-13c39,5,76,4,115,1c9-1,19-1,28-2
				c55-7,108-17,163-14c23,1,45,5,68,8c31,5,60,14,89.9,18.5"/>
			<path class="st2" d="M17.1,187.6C40,182,63,179,87,174c69-17,135-32,205-29c48,2,93,21,131.5,46.6"/>
			<path class="st2" d="M1163.4,191.6c7.6-1.6,13.6-7.6,21.6-8.6c33-18,69-31,107-33c50-4,99,7,149,12h15c56,7,111,4,167-2
				c48-6,94-13,142-11c53,3,104,16,154.8,27.2"/>
			<path class="st2" d="M17.1,187.6C45,182,72,179,100,171c43-12,85-18,129-25c20-2,39-3,59-2c9,1,19,2,28,3c19,3,37,7,54,15
				c19.6,7.7,38.3,17.7,55.7,29.6"/>
			<path class="st2" d="M1163.3,191.5C1184,182,1204,171,1225,162c17-7,35-11,54-13c74-5,146,12,220,15c32,1,64,1,96-2
				c42-4,84-12,126-15c19.4-0.8,38.7-0.2,58,2l24,3c40,7,78,15,116.8,23.6"/>
			<path class="st2" d="M17.1,187.6C53,182,86,174,123,166c2.4-0.8,4.7-1.8,7-3c54-12,105-22,159-20c45,2,87,17,127,42
				c3,2,7,4,11.2,6.5"/>
			<path class="st2" d="M1159.7,191.4C1181,184,1200,171,1221,163c15-5,29-11,45-13c27-4,53-4,80-2c74,8,146,18,220,14
				c14.4,0,28.8-1,43-3c12-1,25-3,37-5c5.1-0.2,10.1-0.8,15-2c46.1-6,92.9-6,139,0c41,7,79,15,119.4,23.9"/>
			<path class="st2" d="M17.2,187.6C43,183,68,179,94,173c69-18,135-34,205-30c23.2,2,46.1,7.1,68,15c18.7,7.9,36.7,17.3,54,28
				c2,2.3,4.5,4.1,7.2,5.4"/>
			<path class="st2" d="M1155.7,191.4C1180,182,1202,169,1226,159c44-18,91-16,138-11c3,0,6,2,9,2c8,1,17,2,25,3c60,7,118,12,178,9
				c41-3,81-9,123-14c6-1,13,0,19-1c37-2,72,3,109,9c32,6,61,14,92.3,19.5"/>
			<path class="st2" d="M17.2,187.6C41,182,64,180,88,174c32-8,62-14,94-21c42.3-9.7,85.7-13.1,129-10c44,3,83,26,119.6,48.4"/>
			<path class="st2" d="M1152.1,191.5c22.9-9.8,45.1-20.9,68.2-30.1c22.6-9.1,46.3-14.9,70.5-17.2c25.3-2.4,50.7-0.8,75.9,2
				c25.4,2.8,50.8,6.5,76.2,9.4s51.3,4.9,77,5.7c25.7,0.8,51.5,0.2,77.2-1.6c25.6-1.8,51-5.2,76.5-8.1s50.9-4.3,76.6-3
				c25.6,1.4,51.1,4.3,76.4,8.9c25.1,4.4,50.1,9.8,75,15c6.1,1.3,12.2,2.5,18.3,3.8"/>
			<path class="st2" d="M17.2,187.6C36,183,55,182,75,177c97-23,193-56,290-22c24,8,46,22,68,36.4"/>
			<path class="st2" d="M1150.1,191.6c21.3-9,41.8-19.9,63-29.1c22.4-9.7,44.9-16.7,69.2-19.4c25.1-2.8,50.4-2,75.6,0.6
				c26,2.7,52,6.2,77.9,9.3c25.7,3.1,51.4,5.9,77.3,7.3c26.1,1.4,52.3,1.3,78.4-0.3c26.2-1.6,52.2-4.4,78.3-7.3s51.8-4.5,77.9-3.6
				c26,1,52,3.7,77.7,8.1c25.5,4.2,50.7,10,76,15.3c6,1.3,12,2.5,18.1,3.8"/>
			<path class="st2" d="M17,187.6C41,184,64,179,89,174c38-9,72-18,111-26c35-7,68-10,102-8c39,3,77,15,110,36c6,7,16,9,23,15.6"/>
			<path class="st2" d="M1147,191.4c41-17.4,79-41.4,124-48.4c54-8,105,1,158,8c8,1,16,1,24,2c86,13,168,3,253-3
				c73-6,143,12,213.3,26.5"/>
			<path class="st2" d="M17,187.6c29.7-5.3,59.3-11.8,88.7-18.7c29-6.8,57.9-14.1,87.1-19.8c29-5.6,58.4-9.6,88-10.2
				c27.1-0.5,53.5,3.2,79.2,12.2c24.6,8.6,47.7,21.1,69.7,35.1c2.8,1.8,5.5,3.6,8.2,5.4"/>
			<path class="st2" d="M1145.4,191.6c21.2-9,41.6-19.5,62.6-28.9c21.6-9.6,44-18,67.4-22.1c25.8-4.6,51.9-3.2,77.8-1.1
				c26.4,2.1,52.8,6.8,79,10.3s52.1,6.7,78.4,8.2s52.6,1.5,78.9,0.4s52.6-3,78.9-5.5c25.8-2.5,52.1-5.3,78-3.8
				c26.2,1.6,52.2,3.4,78.1,8c25.6,4.5,51.1,9.7,76.6,14.9l18.2,3.7"/>
			<path class="st2" d="M17,187.6c29.3-4,58.1-10.8,86.8-17.8c28.4-6.9,56.8-14,85.5-19.7c28.5-5.7,57.5-10.3,86.6-11.6
				c28-1.2,55.9,1.4,82.5,10.7c25.2,8.8,48.7,22,71.2,36.4c3,1.9,6,3.9,9,5.9"/>
			<path class="st2" d="M1141.8,191.4C1166,183,1187,170,1210,160c28-12,56-21,86-23c26-1,51,1,77,3c3,0,6,2,9,2c23,2,44,6,67,9
				c5,0,10,1,15,1c3,0,6,1,9,2c45,5,89,7,134,4c34-2,68-6,102-8c71-3,141,11,210.4,26.6"/>
			<path class="st2" d="M17.2,187.6C63,181,106,170,152,158c26.4-6.8,53.1-12.1,80-16c48-6,96-6,141,12c24,9,47,22,68.3,37.6"/>
			<path class="st2" d="M1138.1,191.5C1163,181,1189,170,1214,158c3-1,5-1,8-2c27-14,56-19,86-21c19.4-0.8,38.7-0.2,58,2
				c99,12,194,31,294,17h10c37-4,73-4,110-1c11,1,22,3,34,4c36,6,71,12,105.6,19.9"/>
			<path class="st2" d="M17.2,187.6c42-6.8,83.7-15.6,124.8-26.6c28.8-8.7,58.2-15.1,88-19c5,0,9-1,14-1c3,0,6-2,9-2
				c37-2,74-2,109,10c29,10,56,25,80.5,42.5"/>
			<path class="st2" d="M1136.8,191.5C1173,176,1208,156,1246,144c13-3,25-6,38-8c28-4,55-2,82,0c3,0,7,2,10,2c5,0,10,1,15,1
				c32,4,62,10,94,13c3,0,5,2,8,2c72,8,143,3,214-2c24-1,49-1,73,1c48,5,93,16,139.6,24"/>
			<path class="st2" d="M17.2,187.6C64,180,108,169,155,157c58-14,114-27,174-17c32,6,60,19,89,34l3,3c8.6,3.9,16.8,8.8,24.2,14.6"
				/>
			<path class="st2" d="M1133.4,191.6C1187,170,1239,136,1299,133c41-2,80,3,121,8c5,1,9,3,14,3c6.8,0,13.5,1,20,3
				c92,16,181,12,271,5c66,0,131,13,194.6,24.7"/>
			<path class="st2" d="M17.2,187.6C86,177,150,158,221,144c37-7,71-10,107-5c18,3,35,7,52,15c24,11,46,23,66.8,37.6"/>
			<path class="st2" d="M1132.1,191.5C1183,170,1231,141,1288,133c46-6,91,0,137,8c48,7,94,14,141,16c23,1,46,2,69,0c25-1,50-3,75-4
				c71-3,141,12,209.8,24.3"/>
			<path class="st2" d="M17.5,187.6C47,183,77,177,107,170c37-10,72-17,110-25c31-7,61-8,92-7c51,3,97,25,138.9,53.4"/>
			<path class="st2" d="M1131.8,191.6c7.2-2.6,13.2-6.6,21.2-9.6c31-12,60-28,92-40c5.5-1.8,11.2-3.1,17-4c43-13,86-9,130-3
				c63,8,124,20,187,23c42,1,83-1,125-3c30-1,60-1,90,2c3,0,7,2,10,2c39,4,77,12,115.2,19"/>
			<path class="st2" d="M17.2,187.6c29.7-3.9,59-10.4,88.1-17.3s58.3-14.1,87.7-20c28.9-5.8,58.3-10.8,87.8-12.3
				c28.8-1.5,57.1,1.6,84.4,11c25.9,8.9,50.1,22.2,73.4,36.5c3.1,1.9,6.2,3.8,9.2,5.8"/>
			<path class="st2" d="M1129.8,191.5C1186,170,1238,136,1299,130c43-4,84,0,128,8c55,9,107,17,161,19c67,2,133-4,200,1
				c44,4,88,12,131.2,20.2"/>
			<path class="st2" d="M17.1,187.6C67,179,115,168,167,157c1,0,3-2,4-2c48-9,92-20,139-17c51,3,98,26,139.6,53.5"/>
			<path class="st2" d="M1127.2,191.6C1160,179,1190,163,1223,150c28-11,57-20,87-22c25-1,50-1,76,2c76,11,149,25,225,29
				c53,2,105-6,158-2c51,4,100,13,150.1,21.2"/>
			<path class="st2" d="M17.1,187.6C31,186,44,183,59,180c87-16,167-45,254-40c20,0,39,4,58,11c26,9,48,22,72,35c3,2,5,4,8.1,5.6"/>
			<path class="st2" d="M1125.2,191.6C1157,179,1187,165,1219,152c23-10,44-19,69-22c40-5,79-5,119,1c73,11,143,26,215,28
				c57,1,114-4,172,2c43,4,84,9,125.8,16.6"/>
			<path class="st2" d="M17.4,187.6c14.6-2.5,29.3-3.6,43.8-6.5s28.9-6.1,43.2-9.5c28.3-6.6,56.6-13.8,85.1-19.6
				c28.1-5.7,56.6-10.1,85.3-11.2c29.6-1.2,60.6-0.1,88.9,9.2c14.2,4.7,28.1,9.3,41.6,15.8c12.8,6.1,25.2,13,37.3,20.2
				c3.1,1.8,6.2,3.7,9.2,5.6"/>
			<path class="st2" d="M1123.7,191.6C1158,178,1192,164,1226,148c13-5,25-10,39-14c18.6-4.9,37.7-8,57-9c32.4-1,64.9,1,97,6
				c40,7,77,14,117,21c11,1,21,3,32,4c8,0.2,16,0.8,24,2c67,3,133-2,200,3c43,4,85,11,127.5,17.3"/>
			<path class="st2" d="M17.2,187.6C31,186,45,184,59,181c88-16,168-44,256-39c50,3,95,25,137.8,49.4"/>
			<path class="st2" d="M1120.9,191.6C1161,176,1201,160,1241,143c22-9,44-14,68-17c43-5,83-1,126,6c56,10,108,22,163,26
				c66,4,132,0,198,4c42,3,82,11,123.3,17.1"/>
			<path class="st2" d="M17.2,187.6C29,186,40,185,52,183c83-15,160-40,243-41c56,0,110,20,157.1,49.5"/>
			<path class="st2" d="M1121.8,191.6C1155,179,1188,166,1220,151c12-5,24-9,36-14c15-5,31-8,47-11c51-8,98-1,148,7
				c55,10,106,22,161,26c65,4,129-2,194,6h10c11,1,22,3,34,4c23,3,46,6,69.4,10.2"/>
			<path class="st2" d="M17.6,187.6C28,186,37,185,47,184c94-16,183-46,277-40c11.2,1,22.2,3,33,6c12,4,24,7,35,12
				c20,9,40,18,59.2,29.6"/>
			<path class="st2" d="M1120.8,191.6C1136,186,1153,182,1168,175c27-13,54-25,82-36c13-4,26-9,40-11c14.9-3,29.9-5,45-6
				c18-1,37,0,55,1c16,1,32,4,48,6c69,12,133,29,201,31c53,2,105,0,158,5c41,3,82,7,122.2,14.6"/>
			<path class="st2" d="M17.3,187.7C65,184,111,171,160,161l15-3c53-10,103-16,155-11c12,2,24,4,36,7c13,4,26,9,39,14
				c16,6,31,16,46.7,23.4"/>
			<path class="st2" d="M1118.2,191.6C1162,176,1205,158,1248,141c26-11,53-17,81-19c88-6,170,22,257,34c20,2,39,4,59,5
				c36,1,73,1,109,2c15,0,30,1,45,2c32,3,63,7,96,11c4.9,1.2,9.9,1.8,15,2c3.2,0.2,6.4,0.8,9.5,1.8"/>
			<path class="st2" d="M17,187.7c16-1.7,31-2.7,47-5.7c86-15,166-40,251-35c49,2,93,22,136,44.4"/>
			<path class="st2" d="M1118.1,191.5c6-2.7,12.4-4.5,18.9-5.5c16-4,31-11,46-17c25-11,48-23,73-32c22-7,44-13,67-16
				c40-4,78-2,119,6c48,8,91,18,139,27c79,14,154,5,232,13c36,4,71,7,106.4,12.3"/>
			<path class="st2" d="M17.2,187.7c29.2-2.8,58.1-8,86.9-13.5s57.8-11.2,86.8-15.9c28.8-4.7,57.9-8.7,87.1-9.7
				c28.9-1,57.7,1.5,85.7,8.9c26.5,7,51.9,17.6,76.4,29.5c3.1,1.5,6.2,3,9.2,4.6"/>
			<path class="st2" d="M1117,191.5c35-10.5,68-23.5,101-38.5c2-1,3,0,5-1c29-13,57-25,89-30c68-10,132,1,199,17c42,10,81,18,123,20
				c95,6,190,8,285.1,20.4"/>
			<path class="st2" d="M17.5,187.7c29-2.6,57.7-7.6,86.2-12.8s57.2-10.5,85.9-14.9c28.6-4.4,57.4-8.3,86.4-9.1
				c28.6-0.9,57.3,1.4,85.1,8.2c26.6,6.5,52.2,16.7,77,28.2c3,1.4,6.1,2.9,9.1,4.3"/>
			<path class="st2" d="M1114.4,191.6c8.6-2.6,18.6-4.6,27.6-7.6c12-4,23-8,35-12c43-17,81-40,128-49c82-16,156,2,236,20
				c1.5,0.2,2.9,0.9,4,2c3,1,7,1,10,1c23,5,43,9,66,12c16,2,31,3,47,4c44,2,87,3,131,6c40.2,2,80.2,6,120,12.1"/>
			<path class="st2" d="M17.4,187.7C30,186,42,186,55,184c94-14,183-40,278-28c7.8-0.1,15.5,1,23,3c7,3,15,4,22,6
				c23,8,46,16,67.2,26.6"/>
			<path class="st2" d="M1114.2,191.6C1135,186,1156,181,1176,173c42-17,80-37,124-49c40-10,80-10,120-6c3,0,6,2,9,2
				c20.5,1.9,40.9,5.2,61,10c35,8,66,18,101,24c16,2,31,5,46,6c83,5,165,7,248,16c3,1,6,2,9,2c8,1,17,1,25,2.6"/>
			<path class="st2" d="M17.1,187.7C34,186,51,184,69,182c88-14,171-34,259-25c13,2,24,4,37,7c18,4,33,10,50,16c9,4,18,7,26.6,11.5"
				/>
			<path class="st2" d="M1110.8,191.6c7.2-0.6,13.2-2.6,20.2-4.6c18-4,35-11,52-17c41-16,78-37,122-47c1,0,3-2,4-2
				c97-21,184,10,278,30c22.2,5.8,45,9.1,68,10c89,6,177,10,264.6,19.4"/>
			<path class="st2" d="M17.4,187.7C42,186,66,182,92,178c57-8,111-17,167-21c23-0.8,46.1-0.2,69,2c39,4,75,17,110.3,32.6"/>
			<path class="st2" d="M1112.4,191.6c8.6-3.6,18.6-3.6,28.6-6.6l27-9c32-13,62-27,94-40l27-9c15-5,29-8,45-11c30-4,59-4,89-1
				c58,6,110,25,169,37c86,17,168,13,253,21c18,2,36,3,54,5c7,1,13,2,20,3"/>
			<path class="st2" d="M17.4,187.7C25,187,34,187,42,186c90-12,177-31,267-26c42.8,3.1,84.8,13.8,123.9,31.5"/>
			<path class="st2" d="M1109.1,191.6C1130,188,1151,182,1172,175c8-4,17-7,25-10c38-16,73-35,114-44c1,0,3-2,4-2c19-5,37-7,56-8
				c20-1,40,1,61,3c62,9,117,28,180,41c19,4,37,5,56,6c84,8,168,10,251.4,20.2"/>
			<path class="st2" d="M17.5,187.7c27.2-2,54.3-5.5,81.3-9.1s54.1-7.2,81.1-10.3s54.5-5.5,81.9-6.2c26.6-0.6,53.3,0.5,79.6,4.7
				s51.4,11.8,76.2,21.1c3,1.1,6,2.3,9,3.4"/>
			<path class="st2" d="M1104.4,191.6c26.2-4.1,51.9-11,76.7-20.4c25.1-9.6,49.1-21.6,73.8-32c24.2-10.4,49.5-18.3,75.4-23.5
				c26.3-5.2,53.2-6.8,80-5c27,1.8,53.7,6.7,80,12.8c26.5,6.2,52.8,13.6,79.2,20.2c26.6,6.7,53.4,12.5,80.7,15.9
				c27.4,3.4,55,5.1,82.6,6.8c27.9,1.8,55.8,3.5,83.7,5.6c27.7,2.1,55.3,4.5,83,7.4c6.7,0.7,13.3,1.4,20,2.2"/>
			<path class="st2" d="M17.4,187.8C52,185,87,181,122,176c5,0,10-1,15-1c3,0,7-2,10-2c92-10,187-18,273.2,18.6"/>
			<path class="st2" d="M1099.6,191.6c26.6-3.4,52.7-9.7,77.8-18.9c25.1-9.1,49-21,73.5-31.6s49.4-19.8,75.4-25.5
				c26.5-5.7,53.7-8,80.8-6.8c27.6,1.2,54.7,6.1,81.5,12.4s53,14,79.5,20.6s53.6,12.7,80.8,16.6s54.9,6,82.4,7.9
				c27.9,2,55.8,3.8,83.7,6s55.8,4.5,83.7,7.3c6.8,0.7,13.5,1.4,20.3,2.1"/>
			<path class="st2" d="M816.2,191.6c41.4-7.2,82.8-5.9,124.4-2.7c11.6,0.9,23.2,1.9,34.8,2.8"/>
			<path class="st2" d="M17,187.8c26.2-1.5,52.4-4.4,78.5-7.4s52.1-6,78.3-8.4c26-2.4,52-4.2,78.1-4.8s52.2-0.3,77.9,3.3
				c25.4,3.5,50.3,10.2,74.7,18.1c3,1,6,2,9,3"/>
			<path class="st2" d="M1090.9,191.7C1124,188,1156,182,1187,169c2-1,3,0,5-1c54-24,105-52,164-59c20.9-2.2,42-2.8,63-2
				c11,1,22,2,34,4c43,8,81,20,123,32c8,2,15,3,23,5c1,0,3,2,4,2c43,9.7,86.9,15.1,131,16c3,0,7,2,10,2c5,0,11-1,16,0
				c4.6,0.8,9.3,1.2,14,1c49,4,97,9,144.9,13.2"/>
			<path class="st2" d="M791.1,191.6c71.9-19.6,145.9-5.6,218.5,0"/>
			<path class="st2" d="M404.6,191.6c-23-7.2-46.5-13.6-70.3-17.6c-25.1-4.2-50.5-5.1-75.9-4.4c-25.7,0.6-51.5,1.9-77.2,3.6
				s-51.5,4-77.2,6.5s-51.4,5.1-77,7.3c-3.2,0.3-6.5,0.6-9.7,0.8"/>
			<path class="st2" d="M1057.8,191.7C1039,191,1019,188,1000,189c-75-11-154-23-228.3,2.6"/>
			<path class="st2" d="M1919.5,182.9C1804,172,1687,169,1573,141c-69-21-138-46-213-33c-32,5-62,12-91,26c-2,1-3,0-5,1
				c-21,11-42,20-64,30c-18,8-36,12-54,18c-7.9,2.1-15.9,3.8-24,5c-19,2-37,3-54.7,3.7"/>
			<path class="st2" d="M396.7,191.6C291,158,180,174,71,184c-18,1-36,3-53.9,3.8"/>
			<path class="st2" d="M1919.1,182.8C1819,174,1722,171,1619,151c-4,0-7-2-11-4c-8-2-16-3-24-5c-59-16-114-37-174-39
				c-50-1-100,9-145,32c-2,1-3,0-5,1c-29,15-57,29-89,39c-8,2-16,5-24,7c-45,12-91,9-136,6c-83-14-173-28-253.5,3.6"/>
			<path class="st2" d="M383.8,191.7C288,163,188,176,89,182l-39,3c-11,1-22,2-33,2.8"/>
			<path class="st2" d="M1918.9,182.9C1855,178,1792,173,1728,167c-3,0-7-2-10-2c-8-0.2-16-0.8-24-2c-27-4-52-7-79-13c-1,0-2-2-3-2
				c-8-2-15-3-23-5c-1,0-3-2-4-2c-3-1-7-1-10-2c-19-6-37-13-57-17c-3-1-5-3-7-3c-20-6-39-10-59-14c-23.1-4-46.6-5-70-3
				c-17,2-34,4-51,9c-11,3-21,7-31,10c-55,20-103,49-162,61c-25,5-48,8-72,7c-19.8-1-39.4-3-59-6c-6.7,0.2-13.4-0.2-20-1
				c-49-8-96-16-145-14c-17,1-33,3-49,8c-15,5-31,8-45.3,15.6"/>
			<path class="st2" d="M372.8,191.6C256,163,135,182,17.1,187.8"/>
			<path class="st2" d="M1919,182.2c-13-0.2-25-1.2-38-2.2c-17-1-33-3-50-4c-28-2-54-5-82-8c-45-3-88-9-133-20c-29-8-56-17-85-26
				c-33-9-64-17-98-21c-17.3-2-34.7-2-52,0c-56,7-107,28-157,52c-8,4-18,6-26,10c-3,2-5,4-8,5c-21,6-41,13-63,16c-75,8-145-7-219-18
				c-60-9-119,2-172.5,25.6"/>
			<path class="st2" d="M358.7,191.6C247,167,131,183,17,187.8"/>
			<path class="st2" d="M1919.1,183.7c-67-4.7-134-9.7-202-18.7c-5-1-9-2-14-3c-18-1-34-6-52-8c-13.6-1.9-26.9-4.9-40-9
				c-1,0-2-2-3-2c-9-1-17-4-25-6c-41-13-79-27-122-34c-37-6-72-8-108,1c-14,4-28,7-42,11c-41,13-77,35-116,50c-16,7-32,11-50,15
				c-14,2-28,4-42,5c-60,2-117-11-177-20c-20-2-39-4-58-5c-20,0-40,2-60,5c-28,5-54,15-78.9,26.5"/>
			<path class="st2" d="M338.5,191.6C233,173,124,183,17,187.8"/>
			<path class="st2" d="M1919.1,184c-41.5-3.3-83.1-7.1-124.5-11.2c-40.9-4.1-81.8-8.2-122.3-15.6c-39.6-7.3-78.1-18.2-116.6-30.2
				s-76.9-24-117-28c-39.8-4-80,0.3-118.1,12.6c-36.9,11.9-71.1,30.2-106.8,45s-72.8,24.9-111.5,26.5c-41.1,1.7-81.9-4.4-122.2-11.6
				c-39.8-7.2-79.8-15.3-120.4-15.2c-38.7,0.2-76.9,8-112.6,23c-9.2,3.8-18.3,8-27.4,12.2"/>
			<path class="st2" d="M714.7,191.5c34.8-16.1,70.5-31.5,108.8-36.6c40.7-5.4,82-0.1,122.1,7c40.5,7.2,80.7,16,121.8,18.6
				c39.3,2.6,78.7-2.1,116.3-13.8c37.6-11.8,72.3-30.9,108.7-45.9c37-15.2,75.7-24.5,115.9-24.8c40.5-0.3,80,8.7,118.6,20.4
				s76.4,24.8,115.6,34c40.2,9.4,81.1,14.8,122,19.4c41.4,4.6,82.8,8.4,124.3,11.8c10.2,0.8,20.3,1.6,30.5,2.3"/>
			<path class="st2" d="M17.5,187.8c39.8-1.2,79.6-3.2,119.3-4.3c39.3-1,78.7-1.1,117.9,1.3c22,1.4,44,3.5,65.9,6.8"/>
			<path class="st2" d="M17.1,187.9c36.8-1,73.7-2.3,110.5-3.1s73.5-0.9,110.2,1.2c20.5,1.2,41,3,61.4,5.6"/>
			<path class="st2" d="M710,191.4c7-3.4,14-6.4,21-10.4c37-16,75-30,115-32c27-1,53,2,80,6c76,13,146,35,224,20c25-5,48-12,70-23
				c2-1,3,0,5-1c41-20,80-40,126-50c86-20,166,9,245,36c21,8,42,13,65,17c27,5,53,9,80,12c5,1,9,2,14,3c55,7,109,11,163.9,15.6"/>
			<path class="st2" d="M17.1,187.9C104,186,192,181,278.5,191.6"/>
			<path class="st2" d="M705.2,191.5c35.6-17.7,71.7-35,111.3-41.7c40.4-6.8,81.9-2.6,122,4.4c40.5,7.1,80.6,16.9,121.6,20.8
				c40.3,3.8,81.6,2.1,120.5-9.7c38.4-11.6,73.7-30.4,110.5-46c37.1-15.8,75.8-25.9,116.3-26.1c40.8-0.2,81,8.4,119.9,20.2
				c39,11.8,77.3,26.4,117,35.8c39.9,9.5,80.7,15.7,121.4,20.7c41.1,5,82.4,9,123.7,12.2c10,0.8,19.9,1.5,29.8,2.2"/>
			<path class="st2" d="M17.3,187.9C97,187,176,185,256,191.6"/>
			<path class="st2" d="M700.9,191.6C716,182,731,175,747,168c2-1,3,0,5-1c39-19,82-26,125-24c56,4,108,19,164,28c51,7,100,5,149-9
				c5-1,8-4,13-6c6-1,12-4,18-7c15.3-5.1,30.4-11.1,45-18c1-1,3-2,4-3c24-10,47-21,72-28c12-3,24-5,37-7c16-1,32-2,48-1
				c9,1,18,2,28,3c10,2,19,4,29,5c1,0,3,2,4,2c8,2,16,3,24,5c45,14,87,30,134,42c92,22,181,29,273.1,35.7"/>
			<path class="st2" d="M17.2,187.9C88,186,160,187,231.4,191.6"/>
			<path class="st2" d="M696.3,191.6C715,180,735,172,755,162c2-1,3,0,5-1c49-23,102-25,155-17c90,14,175,43,266,19c1,0,3-2,4-2
				c3-1,7-1,10-2c32-13,63-25,93-41h3c26-11,51-20,79-25c43-7,82-3,124,8c3,1,5,2,8,3c5,1,9,2,14,3c44,14,84,28,130,39
				c2.4,0.8,4.7,1.8,7,3c17,4,34,7,51,11c12,3,22,4,34,6c62,11,120,14,181,18.7"/>
			<path class="st2" d="M17.2,187.9C81,189,146,186,210.1,191.6"/>
			<path class="st2" d="M694.5,191.5C735,169,776,147,824,140c23-3,45-3,68-2c11,1,22,3,34,5c50,7,96,20,145,25c13,1,26,2,39,2
				c29-1,59-4,87-14c25-9,48-18,71-30c2-1,3,0,5-1c50-27,105-39,161-35c53,3,102,23,152,39c65.2,21.8,132.6,36.2,201,43
				c5,1,11,3,16,4c39,3,77,7,116.2,8.7"/>
			<path class="st2" d="M17.5,187.9C75,188,131,186,187.5,191.6"/>
			<path class="st2" d="M693.9,191.3C719,180,741,165,767,155c10-3,22-7,33-10c1,0,3-2,4-2c86-22,166,7,250,20c43,6,82,5,125-4
				c1,0,3-2,4-2c40-9,73-28,109-43c2-1,3,0,5-1c28-12,57-19,88-24c13.9-1.8,28-2.2,42-1c72,6,138,35,208,55c5,1,9,2,14,3
				c1.5,0.2,2.9,0.9,4,2c5,2,11,2,16,3c83,23,166,31,250,34.8"/>
			<path class="st2" d="M17.5,187.9C71,188,123,187,176.4,191.6"/>
			<path class="st2" d="M691.8,191.6C734,164,780,144,831,135c21-3,42-3,63-2c51,4,99,17,151,25c29,4,57,6,86,5c43-2,84-15,123-34
				c3-1,7-2,10-3c7-3,14-7,21-10c3-1,7-2,10-3c29.5-12.9,60.9-21,93-24c22-2,44-1,67,1c4.2,1.2,8.6,1.9,13,2c8,1,15,5,23,6
				c8,2,15,4,23,6c55,16,106,36,163,49c1,0,3,2,4,2c57,13,111,21,168,27h10c20,3,40,3,59.9,4.2"/>
			<path class="st2" d="M17.6,187.9C66,188,113,189,161,191.6"/>
			<path class="st2" d="M690.9,191.4C695,189,699,187,703,185c46-30,93-48,146-54c29-3,57-1,86,3c43,7,83,17,126,23
				c54,7,107,5,158-14c54-21,104-49,162-55c21.3-2,42.7-2,64,0c54,7,102,25,153,42c26,9,51,14,77,23h7c11,3,21,7,32,9
				c29,4,57,10,86,14c40,5,79,8,119.1,10"/>
			<path class="st2" d="M17.3,187.9C60,188,104,188,147,191.6"/>
			<path class="st2" d="M689.7,191.4C724,170,758,150,798,139c16-4,32-8,49-10c75-8,144,14,218,25c21,2,41,5,62,4c10-1,19-1,29-2
				c13-2,25-3,37-7c9-3,17-5,26-8c26-10,51-20,76-31c23-9,45-15,70-20c49-9,95-4,141,10c50,16,97,32,147,46c88,26,176,36,265.9,40"
				/>
			<path class="st2" d="M17.3,187.9C57,188,98,188,137.5,191.6"/>
			<path class="st2" d="M689.8,191.4C701,185,712,178,723,171c4-2,7-4,11-6c2-1,5-1,7-2c13-8,26-13,40-19c9-3,18-7,28-8c1,0,3-2,4-2
				c55-13,107-10,163,0c38,7,73,14,110,18c15,1,29,2,44,2c68,0,129-33,193-55c19.9-6,40.3-10,61-12c16-2,32-1,48-1c16,1,32,5,48,7
				c2,0,3,2,5,2c8,0,15,4,22,6c2.7-0.2,5.4,0.2,8,1c61,20,117,41,181,55l9,3c18,4,34,7,52,10c53.7,8.7,107.8,14.1,162.2,16.1"/>
			<path class="st2" d="M17.1,187.9C55,188,92,189,129.6,191.6"/>
			<path class="st2" d="M690.3,191.4c31.7-20,64.8-38,100.2-50.5c38.5-13.6,78.5-19.1,119.2-17.6c42,1.6,83.5,10,124.8,17.2
				c41.3,7.2,84.1,12.9,126.1,7.8c20.7-2.4,41.2-6.7,61.1-12.7c19.6-6.1,38.6-13.9,57.7-21.4c38.4-15,77.6-26.4,119-28.3
				c20.9-0.8,41.8,0.6,62.4,4.1c21,3.5,41.1,9.4,61.3,15.8c39.9,12.6,79.4,26.9,119.7,38.4c39.8,11.5,80.2,20.4,121.1,26.7
				c10.1,1.5,20.2,2.9,30.4,4.2c5,0.5,10,1.4,14.8,2.5c4.9,1.3,10.3,1.2,15.3,1.7c21.6,2.1,43.1,3.9,64.7,5.3
				c10.3,0.7,20.5,1.2,30.8,1.8"/>
			<path class="st2" d="M17.1,187.9c37.1-1,74.2,0.2,111.1,3.7"/>
			<path class="st2" d="M690.4,191.4C696,188,701,185,707,182c50-33,102-55,160-60c23.6-2,47.4-2,71,0c10,1,19,2,29,3
				c49,7,95,18,144,21c22.4,1,44.8,0,67-3c43-7,82-21,122-38c9-4,19-5,29-8c3-1,7-1,10-3c11-4,24-5,36-7c17-2,33-2,50-1
				c40,3,78,12,117,25c38,13,75,27,114,38c35,9,69,16,105,23c23.8,4.7,47.8,8.1,72,10c29,2,57,4,86,4.4"/>
			<path class="st2" d="M17.1,187.9C51,188,85,189,119.2,191.7"/>
			<path class="st2" d="M690.9,191.4c25.3-16.7,51.7-31.5,79.1-44.4c6-3,11-4,17-7c52-21,107-26,163-20h9c15,2,29,4,44,6
				c16,3,31,6,47,8c5,0,9,1,14,1c3,0,6,2,9,2h6c4,0,7,2,11,3c23,2,45,3,68,2s45-6,68-13c31-9,60-20,90-30c15-4,29-7,44-10
				c47-8,92-3,137,10c13,4,25,6,38,10c62,21,120,41,186,55l9,3c27,5,51,10,77,13c38,4,75,7,112.4,7.3"/>
			<path class="st2" d="M17.1,187.9C49,188,81,189,112.6,191.6"/>
			<path class="st2" d="M691,191.5c6-3.5,11-6.5,16-9.5c25-18,50-29,77-42c2-1,3,0,5-1c23-11,47-15,73-20s50-5,75-4
				c47,3,92,11,139,19c53,8,106,8,157-10c3-1,7-1,10-2c19-7,37-12,56-19c3-1,7-1,10-2c1.1-1.1,2.5-1.8,4-2c5-1,9-2,14-3c1,0,3-2,4-2
				c20-4,38-7,57-8c19-0.8,38.1-0.2,57,2c17,3,33,4,49,11h5c45,13,86,28,131,42c6,2,12,2,18,4c48.2,15.8,97.7,27.2,148,34
				c42,5,82,7,123.1,7.9"/>
			<path class="st2" d="M17.1,187.9C47,188,77,189,107,191.6"/>
			<path class="st2" d="M692.2,191.4C711,181,727,169,746,158c34-20,69-32,108-40c46-9,90-7,135-3c2,1,4,2,6,2
				c5.1,0.2,10.1,0.8,15,2c73,9,144,27,217,7c38-11,72-25,111-33c15.4-3.8,31.1-6.1,47-7c46-1,93,7,137,22h4c60,19,115,39,177,53
				c1,0,3,2,4,2c48,11,94,20,142,23c23,1,47-1,70.1,0.7"/>
			<path class="st2" d="M17.1,187.9C46,188,76,188,104.7,191.6"/>
			<path class="st2" d="M692.7,191.5C737,158.9,786.9,134.6,840,120c55-15,110-15,166-7c50,7,97,15,146,18c15,1,29-1,44-2
				c14.5-1.9,28.9-4.9,43-9c26-8,51-16,77-23c26-6,52-10,78-10c19,1,38,2,57,5c36,6,69,15,103,26c55,19,108,34,165,49
				c27,7,53,12,81,14c3,0,7,2,10,2c37,3,73,5,109.2,4.8"/>
			<path class="st2" d="M17.1,187.9c26.4,0.4,52.8,1.7,79.1,3.7"/>
			<path class="st2" d="M694.2,191.4C731,168,768,146,808,129c13-5,26-9,40-13c18-4.9,36.4-8.2,55-10c27.6-2,55.4-2,83,0
				c47,4,92,16,139,19c24,2,47,3,71,0c28-4,54-8,81-17c24-8,49-13,74-17c47-6,91-2,137,9c45,12,86,28,130,42c3,1,7,1,10,2
				c95,30,193,45,291,44.3"/>
			<path class="st2" d="M17.1,187.9c26-0.1,52.1,1.5,78,3.7"/>
			<path class="st2" d="M695.8,191.5C741,160,789,134,842,117c19-5,37-10,56-13c35-5,68-4,102,0c74,8,144,26,219,16c13-2,26-4,39-8
				c25-8,48-13,74-17c54-9,106-8,158,8c3,1,8,2,12,3c16,4,30,8,45,13c61,21,119,39,184,53c32.7,6.9,65.7,11.9,99,15
				c30,2,59,1,89.1,1"/>
			<path class="st2" d="M17.1,187.9C50,188,84,191,117.5,193.9"/>
			<path class="st2" d="M696.8,191.5C731.7,167,769,146.1,808,129c34-15,68-25,105-30c39-5,76-3,115,2c66,9,129,27,197,15
				c44-8,84-20,127-24c28-3,55-2,83,1c16,2,32,4,47,10c1,0,1,2,2,2h7c41,10,78,24,117,37c68,21,135,37,206,44
				c34.9,3.1,69.9,3.9,104.9,2.5"/>
			<path class="st2" d="M17.1,187.9c25.5,0.3,51,1.6,76.4,3.7"/>
			<path class="st2" d="M698.1,191.3c32.4-22.7,66.9-42.3,103-58.6c18-8.2,36.3-16.5,55.2-22.5c19.5-6.1,39.4-10.9,59.6-14.4
				c40.7-6.9,81.8-4.7,122.4,1.4c41.1,6.1,81.7,16.1,123.3,19c41.4,2.9,81.3-4.5,121.7-12.5c20.7-4.2,41.5-7.4,62.5-9.5
				c10.7-1,21.4-1.7,32.1-2.3c10-0.6,19.9,0.7,29.9,1c41.1,1.2,81,12.5,119.7,25.4c38.9,13,78.1,24.9,117.7,35.6
				c39.2,10.7,78.9,20.1,119,26.6c41.3,6.7,82.7,9.3,124.5,8.8c10.1-0.1,20.1-0.3,30.2-0.6"/>
			<path class="st2" d="M17.1,187.9c25.3,0.3,50.5,1.7,75.7,3.7"/>
			<path class="st2" d="M698.3,191.5C717,180,734,168,753,156c28-15,54-29,83-41c27-11,54-18,83-24c21-4,41-5,62-5
				c20.8,0,41.6,2,62,6c35,5,67,12,102,18c18.5,2.8,37.3,4.2,56,4c13-1,25-1,38-3c28-5,53-10,81-14c54-7,106-3,160,9c1,0,3,2,4,2
				c5,1,9,2,14,3c31,10,60,20,91,29c33,9,64,19,98,25c2.4,0.8,4.7,1.8,7,3c33,8,64,13,98,18c43,6,85,6,127.1,3.2"/>
			<path class="st2" d="M17.1,187.9c27.5-1.1,54.9,0.8,82.2,3.7"/>
			<path class="st2" d="M700,191.3c33-22.1,66.9-42.9,102.5-60.5c35.2-17.3,72-32.1,110.4-40.8c40.5-9.2,82.1-9.5,123-3.7
				c40.7,5.8,80.5,16.1,121.3,21.1c41.5,5,82.7,1,123.9-4.4s82.8-9,124.4-5.3c40.3,3.6,79.9,13.2,118.7,24.7
				c39.4,11.6,78.3,24.7,118,35.2c40.2,10.6,80.9,19.1,121.9,25.6c41.3,6.4,82.6,8,124.3,7c10.2-0.3,20.4-0.7,30.5-1"/>
			<path class="st2" d="M17.1,187.9c25.5,0.4,50.9,1.8,76.3,3.7"/>
			<path class="st2" d="M700.8,191.4C774,140,852,96,942,81c75-13,142,10,215,23c24,4,46,6,70,3c62-6,123-13,186-6
				c78,8,148,38,225,58c8,2,16,3,24,5l9,3c34,8,65,13,99,19c50,7,99,6,148.9,3.2"/>
			<path class="st2" d="M17.1,187.9c25.3,0.2,50.6,1.7,75.8,3.8"/>
			<path class="st2" d="M1881.6,191.6c12.5-0.7,24.9-1.4,37.4-2"/>
			<path class="st2" d="M700.9,191.6C718,179,736,168,755,156c13-8,25-13,37-21c7-4,14-6,21-11c23-13,47-22,71-32
				c40-16,82-22,124-20c55,4,106,22,161,30c34,5,66,4,100,1c66-7,130-7,197,8c5,1,9,4,14,5c31,6,57,17,88,24c3,1,6,3,9,4
				c18,4,35,10,53,15c61,16,120,26,181.3,32.6"/>
			<path class="st2" d="M17.1,187.9c28.6-1.4,57.2,1.2,85.6,3.7"/>
			<path class="st2" d="M1892.2,191.6c8.9-0.7,17.8-1.4,26.8-1.9"/>
			<path class="st2" d="M701.5,191.5C736,167,773,146,811,125c13-7,24-14,37-20c40-16,79-34,122-37c72-6,138,19,209,32
				c51,9,101,2,151,0c49-1,97,6,146,19c108,29,211,62,320.9,72.7"/>
			<path class="st2" d="M17.1,187.9C46,188,76,188,105.3,191.7"/>
			<path class="st2" d="M1900.7,191.6c6.2-0.5,12.5-1,18.7-1.5"/>
			<path class="st2" d="M703.5,191.5C710,185,718,181,726,175c4-2,8-5,12-7c3-1,5-4,7-6c58-35,111-68,174-89c21-7,42-10,64-12
				c19-1,37,1,56,3c18.9,3,37.6,7,56,12c41,12,81,24,123,26c52,2,104-3,157,1c56,5,109,20,163,36c80,23,158,44,239,52.6"/>
			<path class="st2" d="M17.1,187.9C46,188,76,188,104.6,191.6"/>
			<path class="st2" d="M1905.2,191.6c4.8-0.5,9.5-1,14.3-1.6"/>
			<path class="st2" d="M703.5,191.5C734,168,767,149,801,130l3-3l15-9c3-2,5-2,8-4c2-2,4-4,7-5c23-12,44-24,68-33c3-1,5-1,8-2
				c48-21,101-23,153-11c5,1,9,2,14,3c4,0,8,3,13,4c31,7,58,19,90,25c14.5,3,29.2,5,44,6c48,2,96,1,145,4c10,1,19,2,29,3
				c17,2,33,7,50,9c1.5,0.2,2.9,0.9,4,2c6,2,12,2,18,5c5,2,10,2,15,3c39,10,73,23,112,32c37,10,70,16,108,24c21,4,40,6,59.7,8.6"/>
			<path class="st2" d="M17.1,187.9c29,0.7,58,2,87,3.8"/>
			<path class="st2" d="M1903.5,191.6c5.2-0.7,10.3-1.4,15.5-2"/>
			<path class="st2" d="M705.4,191.4C736,170,766,150,799,131c6.9-4,13.6-8.3,20-13c4-2,9-5,13-7c4-3,7-5,11-8c42-24,82-44,130-51
				c31-5,61-3,92,5c60,16,115,38,176,43c41,3,81,2,123,8c32,4,62,8,93,17c6.1,0.9,12.1,2.2,18,4c38,9,72,20,110,29c1,0,3,2,4,2
				c11,3,22,5,33,8c44,11,86,18,129.9,23.6"/>
			<path class="st2" d="M17.1,187.9C47,188,78,188,107.9,191.6"/>
			<path class="st2" d="M1906.3,191.6c4.3-0.6,8.6-1.1,13-1.7"/>
			<path class="st2" d="M707.1,191.5c14-10.3,27.4-21.8,42.3-31c15.3-9.4,30.6-18.9,45.8-28.5c29.6-18.7,59-38.3,90.1-54.4
				c28.9-15.1,59.9-26.7,92.4-31c34.6-4.6,69.5,0.3,102.9,9.6c33.2,9.3,65,22.7,98.2,31.8c16.5,4.6,33.3,7.9,50.3,9.8
				c18.1,1.8,36.2,3,54.3,4.4c36.1,2.9,72.4,5.9,108.2,11.8c35.2,5.8,69.8,14.2,104.2,23.7c34.9,9.6,69.6,19.9,104.7,28.5
				s70.8,15.6,106.5,21.4c8.6,1.4,17.2,2.7,25.8,4"/>
			<path class="st2" d="M17.1,187.9C47,188,78,188,107.9,191.7"/>
			<path class="st2" d="M705,191.4C756,154,809,122,864,86c34-21,67-36,106-44c36-7,71-3,105,7c46,15,88,35,137,44
				c53,9,102,12,155,20c32,4,61,12,93,18c2,1,3,2,5,3c18,4,35,10,53,13c65,22,132,34,200.5,44.6"/>
			<path class="st2" d="M17.1,187.9C47,188,78,187,107.9,191.7"/>
			<path class="st2" d="M1908.3,191.6c3.7-0.6,7.3-1.3,11-1.9"/>
			<path class="st2" d="M708.7,191.4C744,165,778,141,817,117c2.5-1.7,4.9-3.8,7-6c49-33,91-65,149-75c48-8,94,2,138,21
				c33.2,14.1,67.3,26.1,102,36c27,3,54,8,82,12c52,7,100,16,152,28c33,8,64,15,96,26c7,2,14,3,21,5c27,8,52,13,80,18
				c20,3,39,6,59,9.6"/>
			<path class="st2" d="M17.1,187.9C34,189,50,187,67,189c14,1,29,1,42.8,2.6"/>
			<path class="st2" d="M1909.2,191.6c3.3-0.6,6.5-1.1,9.8-1.6"/>
			<path class="st2" d="M707.8,191.3C738,171,765,150,797,130c2-2,4-5,7-6c6-3,10-7,16-10c15-10,28-21,44-30l3-3c9-6,18-10,28-16
				l3-3c36-20,75-35,116-35c43,1,83,18,122,36c35,16,70,26,108,33c70,13,133,25,202,40c4.1,0.9,8.2,2.2,12,4c25,7,48,13,73,20
				c3,0,7,0,10,1c7,3,15,4,23,6c1.1,1.1,2.5,1.8,4,2c8,2,16,3,24,5c1,0,3,2,4,2c28,7,55,11,82.2,15.6"/>
			<path class="st2" d="M17.1,187.9C48,187,80,186,111,191.6"/>
			<path class="st2" d="M1911.5,191.6c2.5-0.5,4.9-1,7.4-1.4"/>
			<path class="st2" d="M708.5,191.4c26.8-20.5,54.8-38.8,82.7-57.7s54.3-40.4,82.1-59.7c25.2-17.4,51.9-33.4,81.3-42.7
				c31.5-10,64.7-10.5,97-3.8c32.3,6.8,62.2,20.6,92.2,34s59.8,25,91.7,32.5c33.7,7.9,67.8,13.8,101.8,20.8
				c34.2,7.1,68.1,15.3,102,24c33.6,8.6,67.1,18,100.7,26.7s67.2,16.7,101.4,22.2c8.4,1.4,16.8,2.6,25.2,3.8"/>
			<path class="st2" d="M17.1,187.9C51,188,85,187,117.5,191.6"/>
			<path class="st2" d="M707.9,191.4C732,175,754,159,778,142c41-30,74-57,116-86c3-2,5-2,8-4l3-3c29-17,58-29,91-32
				c34-2,67,4,97,19h4c15,6,30,13,45,20c6,4,12,6,18,10c5.2,1.9,10.2,4.3,15,7h4c7,2,12,7,19,8c2,1,4,3,7,4l9,3c16,4,31,6,48,10
				c1,0,3,2,4,2c77,19,147,38,223,58c8,2,16,3,24,5c1,0,3,2,4,2c10,2,19,4,29,6c1,0,3,2,4,2c32,7,61,13,91.6,18.6"/>
		</g>
	</g>
</g>
</svg>
