<svg xmlns="http://www.w3.org/2000/svg" viewBox="0 0 70.01 70"><defs><style>.cls-1{fill:#2f7fec;}.cls-2{fill:#fefefe;}.cls-3{fill:#2f80ec;}</style></defs><g id="Layer_2" data-name="Layer 2"><g id="Layer_1-2" data-name="Layer 1"><path class="cls-1" d="M70,35.05A35,35,0,0,1,33.55,70,34.67,34.67,0,0,1,0,34.94,34.71,34.71,0,0,1,36.35,0,34.91,34.91,0,0,1,70,35.05Z"/><path class="cls-2" d="M34.88,58.32a23.32,23.32,0,1,1,23.38-22A23.23,23.23,0,0,1,34.88,58.32Z"/><path class="cls-3" d="M35,54A19,19,0,1,1,54,35,18.88,18.88,0,0,1,35,54Z"/><path class="cls-2" d="M37.22,29.68v5.58c0,3.29,0,6.57,0,9.86a2.84,2.84,0,0,1-3.06,2.63,1.86,1.86,0,0,1-1.6-2.07q0-6.09,0-12.17V29.86c-.43,0-.56.3-.75.48-1.51,1.5-3,3-4.52,4.51A2,2,0,1,1,24.43,32q4.35-4.39,8.74-8.75a2.47,2.47,0,0,1,3.64,0l8.47,8.47A2,2,0,0,1,46,34a2,2,0,0,1-3.37.73c-1.51-1.44-3-2.94-4.44-4.43a5.55,5.55,0,0,1-.6-.89Z"/></g></g></svg>