<svg xmlns="http://www.w3.org/2000/svg" viewBox="0 0 30.89 30.89"><defs><style>.a{fill:#0d97ff;stroke:#2e3192;stroke-miterlimit:10;stroke-width:0.25px;}.b{fill:#fff;}</style></defs><title>viewhome</title><rect class="a" x="0.13" y="0.13" width="30.64" height="30.64" rx="15.32"/><path class="b" d="M23.45,9.78a1.37,1.37,0,0,0,0-.35,2.29,2.29,0,0,0-.71-1.67,2.33,2.33,0,0,0-1.7-.71,2,2,0,0,0-.35,0l-12.84.1a2.38,2.38,0,1,0,0,4.75l7.46-.06L2.06,25.38a2.37,2.37,0,1,0,3.38,3.33L18.75,15.2l.06,7.46A2.38,2.38,0,0,0,21.2,25a2.41,2.41,0,0,0,1.67-.71,2.32,2.32,0,0,0,.68-1.68Z"/></svg>